<mxfile host="app.diagrams.net" agent="Mozilla/5.0 (X11; Ubuntu; Linux x86_64; rv:143.0) Gecko/20100101 Firefox/143.0" version="28.2.5">
  <diagram name="Page-1" id="2j7_UOQhCjSUvKhE--Xa">
    <mxGraphModel dx="1945" dy="1126" grid="1" gridSize="10" guides="1" tooltips="1" connect="1" arrows="1" fold="1" page="1" pageScale="1" pageWidth="850" pageHeight="1100" math="0" shadow="0">
      <root>
        <mxCell id="0" />
        <mxCell id="1" parent="0" />
        <mxCell id="NSrM9LkIRHbTniB8a5pW-3" value="" style="rounded=0;whiteSpace=wrap;html=1;fillColor=#dae8fc;strokeColor=#6c8ebf;" vertex="1" parent="1">
          <mxGeometry x="870" y="210" width="150" height="140" as="geometry" />
        </mxCell>
        <mxCell id="kDmJCXZ-T7Dpuqi5_Cnn-1" value="" style="shape=mxgraph.signs.transportation.car_1;html=1;pointerEvents=1;fillColor=#000000;strokeColor=none;verticalLabelPosition=bottom;verticalAlign=top;align=center;" parent="1" vertex="1">
          <mxGeometry x="140" y="450" width="99" height="88" as="geometry" />
        </mxCell>
        <mxCell id="kDmJCXZ-T7Dpuqi5_Cnn-2" value="&lt;div&gt;Car Manufacturer&lt;/div&gt;&lt;div&gt;Cloud API&lt;/div&gt;" style="ellipse;shape=cloud;whiteSpace=wrap;html=1;" parent="1" vertex="1">
          <mxGeometry x="90" y="130" width="191" height="120" as="geometry" />
        </mxCell>
        <mxCell id="kDmJCXZ-T7Dpuqi5_Cnn-3" value="" style="shape=flexArrow;endArrow=classic;html=1;rounded=0;" parent="1" edge="1">
          <mxGeometry width="50" height="50" relative="1" as="geometry">
            <mxPoint x="200" y="430" as="sourcePoint" />
            <mxPoint x="200" y="248.68" as="targetPoint" />
          </mxGeometry>
        </mxCell>
        <mxCell id="kDmJCXZ-T7Dpuqi5_Cnn-4" value="" style="shape=flexArrow;endArrow=classic;html=1;rounded=0;" parent="1" edge="1">
          <mxGeometry width="50" height="50" relative="1" as="geometry">
            <mxPoint x="170" y="250" as="sourcePoint" />
            <mxPoint x="170" y="430" as="targetPoint" />
          </mxGeometry>
        </mxCell>
        <mxCell id="kDmJCXZ-T7Dpuqi5_Cnn-6" value="" style="shape=image;html=1;verticalAlign=top;verticalLabelPosition=bottom;labelBackgroundColor=#ffffff;imageAspect=0;aspect=fixed;image=https://icons.diagrams.net/icon-cache1/Green_world-2013/Green_World-15-1104.svg" parent="1" vertex="1">
          <mxGeometry x="470" y="454" width="80" height="80" as="geometry" />
        </mxCell>
        <mxCell id="Q0iOnT2UKNtf_5qlqNYP-1" value="" style="rounded=0;whiteSpace=wrap;html=1;" parent="1" vertex="1">
          <mxGeometry x="425" y="140" width="275" height="200" as="geometry" />
        </mxCell>
        <mxCell id="Q0iOnT2UKNtf_5qlqNYP-2" value="Home Assistant" style="text;html=1;align=center;verticalAlign=middle;whiteSpace=wrap;rounded=0;" parent="1" vertex="1">
          <mxGeometry x="425" y="140" width="60" height="30" as="geometry" />
        </mxCell>
        <mxCell id="NSrM9LkIRHbTniB8a5pW-1" value="" style="shape=image;verticalLabelPosition=bottom;labelBackgroundColor=default;verticalAlign=top;aspect=fixed;imageAspect=0;image=data:image/png,iVBORw0KGgoAAAANSUhEUgAAAjEAAAHpCAYAAABz6m0rAAAABHNCSVQICAgIfAhkiAAAIABJREFUeF7svXmwbNtdHrZ67jPfc+f75kHS03tCA5IxSlCMDMLlgJ2inGATgiHYiTEFZYrYphy77ATHQ3BIcBz/EcI/OJVyEuSA4woQk7hMhUAw1hMysgRC0tPTm+945p6HfN9v7dW9ep/dffqce+695/T+9nvr9t5rXt/u2+u73++31io4XUJACAiBCIHhcFjEYyEJpVdffbXwzDPPFG7evFkslUrF3d3dYrlcLna73UqhUKhXq9XawcHB0qBWW670enWk1Zv9zlJnv9m9vLJyt7pRv93pFLZqtVrn8uXLPdTbR+ih7EDACwEhIATuBwH+UOkSAkIgBwj81Kd+qrL7z3c3B4NBeXV1tbS8XCw988J7y088/ly11O9XyvV6pTMc1gq93lJ1qVitFqu1fr+53CvUa67VqffLfaQVllyxWB/2hzVXdnXXG9RBd+qArz50bgmfNZCTWq8/rO9s7/S6+zv38Hy3UinfqdZWtpZWqnfbje69O7dv3x0Ui299/OMf/z2RmRx8+TREIfCAECg/oHpVrRAQAmcMgWdb7/uWf3brf//G4rBf7zV3652N9Vqp58rLtXJlAEGlUBxWloeFar9SrBddsdIbFmqFYq1eGhYrw2q5OnTlmiv1a8VisdIvDaqFYaE0rJSK9i+hQsGkG36CzLhqaehK5ZI7MK1l6HrDQbc7bO4P3HCn2WrvdgaDrf1G49Vf+IVf+BFk2GIuXUJACAiB4yIgEnNcxJRfCJxTBKql8p8Ecfgj3U6rgs/yeqtdGvRh2SmVXWEA6gHCMQATKZKOkJSQlcCyVIBxqVBEniHylEo2+hLugy2I+XlfNPrirVCD4sCtrKy4jbV1i6PpCdVsFkrlzXK1iZxFV6m1P7i2svQ3kEEkxlDVJQSEwHEREIk5LmLKLwTOKQJQTh5vNJqrjcaBjaDRarv+cOBgXrIQLtKQUnEI/kLXmLFzTMHYDCLIVXDr6YwvFd9bGbChjfU1d2ljE2So6Pqof8i2QH66na5rdzqwRPWHlVpNv0EeQv0pBITACRDQD8gJQFMRIXAeESgWBtBboKAkhIXEolKpGskwGQaX6SgkLwgwG43iyFt4WQz/GHqzkWc0YwUGTAUVDFEPjE+oF47AvlyRn/4ensBuza0wfthut+XcawjpEgJC4CQIiMScBDWVEQLnEoGSEZQiCQXYSrlccbVKBVRi4E1HyZiGppqA1sDUNBxwIRFMSyX6vMAshDQQD+MupXLZFRHfR76DnV0QojJMRHUr2+m03f7urnPPPOfKiMeKJ2uPdGd//8DqLhfBcjrdy0h7lU2//PLLS3fv3q29dvPmSqlYXCr167XV1coy6i88/+SNux/+6EdvIduWHIHP5ZdPnRYCDwQBkZgHAqsqFQJnD4Fut+WuXrnq2utN8JKCW15actvb91z95hIeSTRAXEBaSDQqIDcHB/tuf28PRKfsrl695qr1ujtoNNwrX/qSq9eq7oknnwZpqTksuXa/8/nPu+vXrrrHnnzCVJrd3X331Vdfc7dv3XG1as0IzubmBatj69422ui7pfrKyura8t/YeeWVdzrNZqGyVAEHqldXymX4BQ+rhWqnUq8vVZaWN92lGzca23t7e1/84hfv/eanfv3OoOdurmyu3VwqLb0JUnXT3bp1961er/mJT3xiHySHzEuXEBACOUBAJCYHL1lDFAJEgIrJtWtXXKfdMR8Vrit6FUSj1eq5+vKKqTE0OA2gzFA1gTOu29naccsrIDmlilsC6WkjrtUdIH/N6ui3mq7T67kLm1fc6voF1+v2rB2kWPoOVJdSue3KMCt1UHcdSs3e/q6rov5yuVYZDAsfq1YrvRbIUa8/KO7u7xVe++qrhSHqgGpU+MDXfqhw+cZVt7qyjBXZxUG31+23Wu12qVBoLfUHrQZ67wadZvna+sHXbF57B4TqH0DZ+UUQGXIxXUJACCw4AiIxC/6CNTwhEBCo17Fa6MJFEI0uzDk9Mwdxpl9aW3WbFy+CfMCsRJORkZy+qS03rl+DOajidmAu6sAZtw7l5aUX3wMCVHbtfhdb1vXc2lLVXXr307aCqQsS4wZtqC8Vd+XKZXft+g3zu6FJqspPcIvL7SuugvROt0O/mwr6UIH24srDsruzte1e/vRn0H7Xra2suve9/32uVqs47K5nK6lYP0xNy5sXLqC9ihv0QKjqy+6J6zcGtfpSB6ayBhr7ZQR0TpcQEAKLjoBIzKK/YY1PCCQI1OvlwgYIS7vdgi9L0V26dMXBfOOw8Z0rg1S0oYZUQRhqcLylD0sBedZBJKogMxc2LlgtNDNVKnTQxYoj5Nnd4epoLqdedavLa1hxNHRb23ddD4RnqbIMl5hnR869UEfMl4ZKD91h7m5vOWzv63ogOEOQqgLUmm6377b3dt0Q5MjcjbkEHMXaEFy4FJxewHX0cWVlzUgUyRZ2DIZatFZE/dx07yIC/ZN1CQEhkAMERGJy8JI1RCFABGow5dAkxKXOXCH0PAjG2oVNd+fObZCDgTntrsOsRNJiW9fhf+bbWNuA6cf/VBgRwcU/uQapB7JBx+D19Q23VEPdSGg0D2A+gpPvmidEXOXk/W2Ql+XBS9iHPsjUoFCFQajj9nZ3TJ2h0vPYE0+5xv6+kZUi6gHrMWfgMvrC4sVCxUxhhX7B9rShs3LSLXZNZiR7Q7qEQD4QEInJx3vWKIWAq0NFgaOs60L1oAKzjo3oVpeX3Q521sX+urDplEBy6IRbA1rYwA4qCJUXnHkE4hDEDe4pg63qbPk1CQnNRzBDwTQ0BNHpg0Jsb91zPaxgunKJooi/uC/MDpyIuTKqcYDVSYOOu/32F+A0XHK3t/bdwT6cjm8865596kn3Ld/8TVzhbfvqPfbEDfjPcKM9mrh6rr2/40o4BaHfWzNixMt7v4T+Gb/SJQSEQE4QEInJyYvWMIUAfWGGw767c+suZvqh24Rp6enn3uV299rwd+m5RqML0nLg1lZhyinBVNPbAxnBsujeNsw3F9xep+Xu7XlTUQWrmS6tXnSDW++45vaO2wO8QygpS5evuX/5m592nYNd9w0f/pC7/tiTBnyv17fQ7WLpNVQW14PS4u659XrFvb5/yzV2u27pmRdcub4GP5eee+pxrIaqwOzE5eAlOAr3WyA6Xfel3/kNmKmgxPRfdKtXnnGF8gocgvtu5x5XX8NZuVIcrq5d1csWAkIgJwiIxOTkRWuY+UJga+uNDxXLm//Ozt5B9eWX/8XSZ3/rt+qf//zn3lMqdt0Xvvi7rkXzDHblvXTtGlYQDd07t7A6CGrKzbvvuBtXl93Vy21XHMKZFz4n97b68Il5wm3DDvTm3TdBbECGmj33wrVn3MZO2/Xu3nF72P33Dnxqrr3k3M3bt11na8u1X4BvC8xG3OSOogk3vuOKp7CD7w58YrrtktvbAQnaI2GhcWho6s8yFKGia8HZuGdles19mKnQxs03cS5T3924Unf19UtQaVZRdse985XPuGoBq6yW6u79r2EfG11CQAjkAgGRmFy8Zg0ybwjU65d+X7Va+yGQgiKWMxexuqh0+87tlY2NIsw9O9j/BWF/C9oFHWqrOAYAS6A7FEiabmMVlIPkYwiCAlVkF8pJqbLqWvBJafVAEEB22iAUTSyv3mA2mJe4sqnZbJlDL595vADNPcEM5Zdv+0306PvSaxXca2/cBQlxWJHUhOMuCA5WGhXLdNRFOtofNJvmgEwFp91suC6WgvfhzNvlKiWoQsN+Bz41aKffdtXiPay0brntdsF90kmJydv3XePNLwIiMfl99xr5AiMAB9w1bLNyBSuTbaVRG8SD+8MM+ljhAx8WHFsEc1HbduQtl5dtH5ceTDfmdwtCQumEDrN01OW+L1w15GjeAWZ9HlOAOrvwexn2WQb+M7bL7wCb3O3YiiE6pqB9f4QBcTZSw0MP4E+D/E3sNfPl1/dQX9ftQ9XZgKrCeugsTCfi3Z1t99aXP+uWcIhkH2QFlboDnLlE/xs6wfjjJ0m2mN+55eWCO8Bju5U4yizwu9XQhIAQGCMgEqNvgxBYSAR4HjW5AyZ8KCPYSI6LfExZ4VZ0JB30TyFBsbOSQEzof8L8XRAe+uuWav6cJS6J3sGy6cFgGTWiWtYDonL75jvuUtUvvR6CFHVAdF7/8iuuT5WE/9mZTP7iM9UdEhiajVrgI+/c64AINc2nZf0C94IpeZMS8mzde8t98cv/GkoNfGLgDwNJxvKRKJFYsTqOx85pwqf35gVpsuO4dQkBIZAXBERi8vKmNc5cIkCTDk+qBlvx5IMqC+Z5r7j4gxpLdpYSVBCuMoJ6snXnjju4UsFS67oJH9wT5t7WbSxrBmGxlUtUcQbY5+Wu624ug5jQ+ZYiCRxs9/eQWqPwAmIRLRQy5uFVFvOTAfMYgGd1UE+PZiTUUUKgPwzr6YAI9btNU2wG3QO01wN58f1k+6zfrpiyFDjOJF4fQkAI5AKB8T+VcjFcDVII5AMBTz44VszynOjpNEvFhWpIYuZJBA0jGyQ1PM+I7GDvYA8+JzzkEQuvk1+IBkxHfSgtNPmY+QhkqNehMpIQCvrFmIqD/V9AQmjuCadle8Q9oWGc32uGa6i9gsK26exLAuV9aBJdhfHYBbhYwh52JRAj7A9Dg1PgLVbOKk/6IA0mH19ujVIIRAhIidHXQQgsIAJ+HxevhnCyx1lDNkoKMSVsIGemI6MAoAUkEAk9ICnpYbk1SYopJiAWDgrHEM99LM8uQkEhWSFRIclpg9hUwXS4P0wJxwAUcbRApboMR2D4vsBBN9CMAfZ44RJvkikqO4wnYTHekbAR71tDn5mEcJEwMR3nLOFQAiz15somlkvKJPwsEBkvzxTcc89tic4QN11CIAcIiMTk4CVriHlEwOxAdhkVIFEwGwxIAp7pPFswHxgQFBAM0glSC542XeNRA/V1cA0cR1AeYAO8qtu8vOaWce5SdaXuhrW+2yxfcaUrA3dh/TKWahddGQRlBUuvnyLxwWonO0RydQV7zzTc66+/5t54/XX32I3HsEMwzjxid0hfEqoxWsHEnpKhBLcW9NeeaYqiqQgd5KonEjJzAfbsJQzTCI58YkZw6EYI5AIBkZhcvGYNMm8IDCiC4CJPAE2xOy5dXlpaxQZ0Tbe2vuauX7no3n7rtmu0d12tgL1grpTd+gY2mStddZcv1ZGfxwUMHQ6Qdlc2YUoC8cFBjK6/AkKx7lc4wR0YKknRrSJfHX433JmXe8t0QGo6UG9e+eob7pd+8ReRp++uXL3s+2IOumOzkO+oZzQ0K/WG3JTPH0bpR0EiwyEkyoyP9JyM0QkZGvqte5NUfQgBIZAHBERi8vCWNcb8IcAznOGDa2oFZnkeknjpyiWYdEAmLm2CpFxGwgCrgLagslzFAYorUGSgzMDZtg/FY+tew128iPOPKjyfCCua4GR7sN/BeUjIB7LQwfKixt6Bqxx03RMrG6wK+8kcuDt7e+7OQRN1FNwHP/h+LJ/ed2+/fdNd2li2VURUgeDH661MVFrQQRIashQeb8Al1VxebVHse6Ig2SPzGptJJJiUEsM+6BICQiBfCIjE5Ot9a7R5QSCZ0D0/GLrVlWW3icMef+/3vuhajaZ7p3fT1I6nn7runnjicbfTXHH37u66Jja767R3XKG3hdOsl119ueRa2F/m7tau29tvu+XCZWyfh91dGjg+YGvPrWFzlv6gaBagJkjMAU6g3j1omG8MnYjv3d0G4ugMLUJccg0iQrcYOh578uI/2c9avWoHQO7iwR8aiU/U0Wfl3BuGpqpklVP8GoNZifVpcVJevuAapxDwCIjE6JsgBBYcATrdUokhgeBp0OZgC7NPBQ65ZYQlbNW/32Y6lwv5nXORCfcw+0CZ6eHeAgkFAp1+uQya3AR3yAPyQPbAZ5In24Cu7JpY0XQXh0Hymc66VFG4jNuICOox/YXsxVhIyIM43HtHZLSNtnZ5PAFWS1VweCVTrSFevA1PrAfqjz/gwMfrTyEgBBYfAZGYxX/HGmEOEbBFQKNriB1t4ZALrkACYxYa8gAzx9Cc4800dPS1GKomYAjmcJsQDMaYRwo5CPKYwmN0A6cQkJDwOVkizf3puFNwt9tzB7s47JEb0rEoVjcZkSHxSYiIrwdZzIE38BKugPKEqIdjBvZ2t10T6s46nIIddhf2HbdO2oUjoKxPfITJyXqmSwgIgXwgIBKTj/esUeYOgcBiqH4MobbAl8Um+xFT8PwEuDDOljWTBoCQ8LMKdabE/fzNhMOVS0WYl+AtzGpRn3fMHboyFR6WYzzzQdmpoi1uWsf2Wti0jmRobWMVS7D9EQWm1IBlrS6hHHYG5mEG/S52+U022+OrKpfrrlBZcSUoPvWVSzgvCWVqa67rpR7f64SusP8kMGxP5iSip0sI5AcBkZj8vGuNNI8IUGUB6VjB0mgepEhTEFWScECjKSC4bHs626QOlKRUcBehepTLBagpDUvjrnerICf9cs01O02rk6dSb6xddKUuNr+DwkMyQbPVRSzRbuFIgyLPY4IaQ/Ly1BNP44TpFdsAj5vuLVUL7tJ60dWxmV1nUEY7LVNquNKJbGRj86K7cvlxHPq4jmXZQ9fY38a+MyvuzTe+aO3wMpEouazf+E/mpDEmuhMCeUBAJCYPb1ljzB8C0RJrai31eh1+K5A9MPN7E45fGeRX/FBICSuFvKhSX8ZxAkUcGElTEcQYkovllTXX4MZ3PdKIoatgE7qN9Q1X2T4ACeFyqILtM1MHiRnA4bcEssSzmujPexGkpFar2kZ5vIqwAVVgdlpdLuNkbCo+IFggOCRMPM9pGXU89sSTtiqqh/gGjjhouaqRGHIY+vomVdGElIxLjr35+6JrxHlHQCQm798AjX8hERiMllhjtsckX68v+5OozX+Fp07TJJQ4uJifbCAC3uGW5iWyD7+BHAgOHivc6RfOvvC6NSJBAxRJS4mrlRDB4wwYX6kUEbjhHRxz6YND8xEIja1O4pbBcFsxfxvyGXYP0azL4iy94Goof+XKVXCbHkhOz2HLGtcg2cFFImQOwskVyMyQJi1dQkAI5AoBkZhcvW4NNo8IkFxw+fLevV1TOYISw31hPIsgKiAQIDZGWsAs7Cwjc9D1K43ovEIzEOiPh9DUDzAQEJsh7klYjNjgngc5VkFu+iAkPVN/qLxwaTVPymYz9LspugvYq4btHbSxRNtEIr+CCdlx0kDJra6uo69QdFodNA/zVBumsOoqHHk7MFXhHCXsDMyLK6Z6jZbrNOlgo580/4L0pxDIBwL6G5+P96xR5gyBWJQowzelWq25drNpKNhRA6QqZAt2kZBQESGJIBch6/CEpEAmA52F1MbOY/J+vj4XCQ8K0D/GO9eS/EBxAWHhEutupwsfHJy3hPaN5Jjs4j/KtWX37Lu/FqumsGy6vOS2tnfRIH+Okk6B0FTqa6gLXi7lFggLjkMAR/nwRz/hur2mW19ddtXlTSNHrc7Q3bzZQV96rgbz1AqHpEsICIFcICASk4vXrEHmDYFKBRu84KLZiOYa+qe0u/BxoRnG1BZPFoo4tNFOtyZrwUWBxa9UIp3wjIOHP/pF0fSn4SnUPh/JDs1FZcgoRSgmdBamqafZauIQyLI7wEGSnuA4O46A/jFc50QpqIY9X64/+awdRlkpV90yVBf2kUSnjz52UXZ9Y8PIUG0Zh0euXTBVZvPylRFpqoCYMe8By/U/ZIdUcu+boftS3l63xisEcouASExuX70GvsgI7O62XePgnnv1K192N996w62tvteIAVcUedkFJqbaklte2zDzUqe177ptOOiCgPR7DbcPYaRS6JjvCRZow6dmFUpH1bX291xzq4nVQg0Hq4774v5rrtJs22Z0DRxFgHVLrgbC8syzT7v9u3eMNLGOBlSgLlZH0TxFFsQ2S1BeSDzag5bbgxJzmU7COCqBqk4LhGsZBIl7zbSxad7Ozo45H1drdRCkCjbpw2lMJEbIVwCJevbZF0GEVlFvAWaob8IYv3+RX6/GJgSEQIKASIy+CkJgARF459aW+93f+W33O5/7nPmgvOfFkjnhrmKiJ5GhL8oGlI4lrFq69c7b7o0377ndXRANLJ/miqDd7YHbXK+4SxdX3ApOo2Ydt956x93dvufu7W65fZxO3QV5udl/y20Uq66C3em4+mkPceskH48/4XZxBEGfq45AWHowLXFb37CPC9WfMkxPJfRpD2cwdUBIqBqxDttPBpSFKoxteoe272774wsqYDklOhAnRGjQ60CN6eNohK4r3b0LslVzq18AA9MlBIRALhAQicnFa9Yg84bA2oU19/y73+OqWJXUs43keBr1sm1YR+db+qlUQBJ2dw+wJLrglparOKxx6No4H2lvvwU/2j340CBvqem2d+64HcTt7YG4cB1RDY644BE0J3VwoGQf/rVrIENw/XW9CjbJw0Z5bagu/Q5OvqY5Czm/+vprbgekpgj15YUX3uXWL8KpF2SEygpkGihCK+6g1UC5DlQWHjzJE7dXfD9hNlrbYX+aRr64CslvjIcTtKEmleGY8/Y7t92br3wZJqmKu/OBD+TtdWu8QiC3CIjE5PbVa+CLjMDFjRV3+cKGe+app9xXYFJ66823oLrUYG6pGhHgRR8Tmmouws+ktrQGhWMf+7YUscU/VxZtuJU6yM0SHHSRb72IvVuw43+hDIdbEKGCMQl60pRcHWSowpVLCI0mnHCxsmgFp1G3seFdqw1nYpR/7fU33OtvvOkuX77k3vveF4xU0VeHfaGBi6SlA3MXFRiSmzbMU7YiCqkVrq7CJnpdEBy7TIjhuU9QbNAf/gcZB6dsHxjpefnll30+/SkEhMDCIyASs/CvWAPMIwI1mF1sNRFccmnSMT2EpANx4YRoqhllEBKeq1SFgrKCZdidNpSb/qYRD2+2IXrcA6Zs/i10+i1in5giTD52nxAiwxh178DsQyWFS6t7MBHRR6WE/L3eACukKu76tRtubW3NDqLsYtn0ynLTtVtQf+ATswnSZa7EaPtgb8e9/pW2q8HhtwUTVaux7waorwvlJ5y7RLMYyU8ZJinymFoVqk5pwNXauoSAEMgJAiIxOXnRGmY+EdiHvwltP/QbMenEaEJygYBUYX6pQOWoI1SganRrICvwXfGb3HFTPG6ORxIDExJJjBEjT4ZIIrgiKRAPWwmFOunXQmLSarWg9ECZQRwXED39/NOmwpSxkd327i135+033ZXrV10dJqEuVBuufLJjCZC/ifK33rmJM5cu2MqnAvrZga9NE7443KnGEzK/lJvKTRP7xFRAxgrYCbjXFo0Zv2TdCYHFRkAkZrHfr0aXUwSazaYdi7S9vWUb3HVgNgrExB/eCDpD51qoLxUwDO63MgDZMX8ZmIdKWKpMh9xCQmgCkQmmKKaXQSxIYoxR4Nre3XX7BwcgQTADQaXZwoqi3f19S76wgiXV16+7Daot6Nd+o+1+/Td+E2cvLeOcpA3s+7LmLmHzOyayraXlFTgG78EPZ9/OcuIRB9ZfHF3w2LXrbnVt3drowOx0F6ugulBp1i9dst2DG2+9ldO3rmELgfwhIBKTv3euEecAgXdu3TKH2g5WBTWhiDQbBzbp+yXW3mSzvLLsLmBZc31pGbvsejMTzTO8gsnJzj6i84rFYecY3FMxYT29HjbBo3JCAw8YD1WSBgJZC2lNG0RlQAdfpJVgSlpDWzQ1cW8YEpWvvPpVLOtu4JykFfeRD33QzFehXZ6dtHnxEuryygzrJxHjXjKXLl1w69w3hm2AvJC4cNM8HjbZQ703btyw/uoSAkJg8REQiVn8d6wR5hEBkgsjHQMjF1Q06AhbgspCAkGysnlh0125es1tQAVhXA+qS1BVSCa4kRw3s+M9FRh+0lm3g+XMDSguu1hqDX3EFXkgJNJsd16QnF6/a+SpiwOcuONuCauHqjAhVWvYBMaUFm64h7pRfwNmI5IcT5bMMAVC1HfVQtXICfvVxrED7D/VlgsgMAcHMCnZ8qihxdEJ2MgSCNdg0AW3oauwLiEgBPKAgEhMHt6yxpg7BLabWKnTxwnQcISlb4onKTimESSijmXNaxur7uKlTSgaK0YuBth0rlgECQAxIJUggQikxhMYbP8P8rGzsw1CsWPEo416l+FMWwU5Ijmhg+0yCBFPpO5AFfnQhz5ihIRk6sL6urtw4SL8b/wuuxfx/OL73u8+/S9+zQgM26txuTVITxfEpt2GKQrmqE6742AaszEwz6C3bmarXS65JoGBOrOHDfhaTSz/Rpv0+Xnuuedy9741YCGQVwREYvL65jXuhUYAlMRt3dtyd2/fdvt7UDugjtDcUqn03VOP33CPPfEkNrLjAYzcWM6bioZcNk01BoTEyAwT8EfyAbLRd9tbu9gwb8V8Ura2tuEQXPEKC3LVQUYuYmETTU1Ubd7z7neZmckOf4QPTR0EhhvYkZDcuHbNPff88+6zv/UpMxlx5dIaNuKjOaiDdDr4sr27d+/595QoONvYbG+F5y2hjQOYyHogX03sM0N1hhfr1xLrhf5qa3BCYAIBkRh9IYTAAiIAz5bCV197233mU5+GQoFTn0ECqKxchvPrv/lvfNRduXIZW/zzFGjvlBsg4BNJCy9bbcQbEpmE2NAMdRFmqDo2omtj6fMyNo/hTsDh4v4v9FsJq5jsrCZcdC7mXi9IhuNwBUSkgKXWyyi/YgSLp1KXsL/MAEux2YapPzz0EX1cA2Gi3849OCm/8/Zb7vKVa255acmtYMfhAVUc5F2DssPN+0igPv/5z4/6oxshIAQWGwGRmMV+vxpdThEowkSEtTxwtMU5R1AseNGkREfedZyXxH1fgv+Lh2jsVBtWIJF4UEUhrbGlz/iPZUs4sHEbZqXGwb7b3FyH+kEy5InKEEucgw8N41gX6zGHYhITVIcHuFOZAAAgAElEQVTFRlj1zfuS7SAMHgJ/HUSC4FAZYlskUFRnNjc3sUHeZTsXqYV6uq9/FSYx7G9D/x6oPWjcLdMMhYtHDrCGj33sY+77v19nJxkouoTAgiMgErPgL1jDyycCMLhgUq/DT6Vi5CVcNUz0NRwLEEUlYgycc6NIIyIM2KwuLKMuQ2G5eu2KrTC6g3OKWjgskpveedIDBYYrluAD40kMVzT5OvlMM4+dhQTzD9vhvjWkR37FE+5AarwGBAJj/cBBkuh7FW2uYvXSCkhMFSdjGxHyBi7LwzpXYV7ieUs1EDdaxHQJASGQHwREYvLzrjXSPCEA4mB7vlD5gMpBqw7JQ72+ZOYaqhwkKbYYmvwBH2ZKMjLhL6odZg5CoEMw+QGJAvNUsNqI5h4uuY5NR2VbjQTNBj4wVGCsXrRLB183JOHxz9aoLalmnD9ugDsIc0UUGRZ5jCdDqC9RXagEJV31HcafJEFV7E5M52GOi8u3dQkBIZAfBPQ3Pj/vWiPNEQLQM7Cw2ZMBEo0CnkgKVrE3DNULrlDqcg8YKC28SEwCaQmKDEkQPVqYxjhTZniPOBKLOvxVPNGgKcnv5ss8QeZh2rDkVRd61/TJTEhQUD4QHz7x3sxW6COdZtgGHYELfexrYySJZMy3bXvWsAJcnnR5lYfsiOMCKUpSfR79KQSEwGIjIPF1sd+vRpdXBLw/baJ8jBWWJZheqFqQGPRtv5ZJgMKGeIGskLwYqUEYnZOEezuaACoKLxIYXkY+KLXwHv+R6NguuyQXjE8IDH1ZmMsrK+wLfoaQ7ttOyArSrQz/5wZ79ok4i7cmUB/aMILjCZgpNtoiJgFHH0IgHwiIxOTjPWuUeUQAEzzNQOEiyVjFTrhmwgFxIBEJqsY4zxgolg2yBsvGFwmQnSJNhYb5jOwwh+kj+NOTH6+yJOcuIZ9XYPwn1SFe3mnY184DI1mfnZlgNIfkxX9aDo7JZ0UC7jAOkhf661Ct0UZ3ARx9CoF8ICASk4/3rFHmEAFPA/zASTI42a+vrXrSgWiak4wIpK5gTqJvizneJumByBhhAQHikmbzlQGRoD+Kd9L1PynMY2TJSylWAx126fdCPuSdhRMz1QQ/SlQdEiEQJfOT4YnYOOKAy7dZOKE2psSQ0fBUbbtGEk3SYX0IASGw8AjIJ2bhX7EGmFcEzN/FOArVDa9orGJHXfNbQQKJwVjWOIyS+cGQTCTlA7lhlSQhPI3aTEasnK3gk8SDZIYb5zGavi1ciUSTD3OxbKBNSde8gjMiMqMbO7pgf2/XbW1vW9l7uzu2Yqnb6WF59x5iiq6KtnZ398ystNxbAbFCTuxHo0sICIF8ICASk4/3rFHmEAFuIheWK3P4FCq4Ky6XI9P008cOvoFQTIPHVieRjCR+K8xHRYSrjai+0N+F5Ib5RgoOT8DGM8kMN6+jySm+qK74y5MkX6ePSfiQ1dVo7Ls7t27CubiAM5ugGoEgXbx8yY43GOKxBMLSxBEFt2/etr1wuGfNhfXN4QsvbUy0pwchIAQWFwGRmMV9txpZjhHo9HqF/X0emtg2QmDmHSw/XsHqJBISnlfUxxlH0y6vqkymBo2E5h2yn7AzL+vy5iOsJKIyg2IkIyPuQv8b21kXCShnPjBUZqjcMMKYi/ep8RYjn+YdeukYDH8XkCXmuoBdep9//jm3hB2DWc+dO3fcG6+94W7fuYVzlFo4Fbvn9l9+edqwFC8EhMCCISASs2AvVMMRAkSACsgOTn7m4YnhqkHBqOGYAF48goCKSlA+YtTG5qFEgUEiCQn3frGypqTAx4bkhOQIn7bnDNUXSyEv8XlpbmIjXZ6Gjd14ewMQnmTJt9Vp/3lTFPsS96eOvl597LHE/AXSBGWHq6voi8OdfrkPDferWYGfD/17eDQB9ga2PuoSAkIgHwiIxOTjPWuUOUOgXywOeeCj+bWYhIJN4bBRHXfxJUnpwt+E/iuzL6+IWB7UEVYBkKyQgHBjOavfJyOPJzWs34hNwkjsNGxc9I2xZdCID6YnK8wrYTAoaWkMtTp8bkBWfLInO8xHDkWnYa5GuogTJ99XfQkkpmska9jrDW/dupVUqg8hIAQWHQGRmEV/wxpfThEA0YA3STDd0KXFVAzsblvCZE+nWTsCYAaP8bzCs4xQD8Hk6dL0d6GZx9gMCQvizQcm8XcJBMbICgLbJA0x3xnTanAxifkDEeInVkuFsiQppSLzG4eyPynw1GreF4cxq/DLWYFiw2ZYIRWfJ5980nLrEgJCYPERCP+4WvyRaoRCIGcI2MSeqCH0NVnDidF0xKWph/4jtsV/IBRTsPH7uvhsY2UFO/2i3rCDb+z0a+YjZjdC4pUcU2X4nzERT0msLiMs3MgO9yQ0yBMUGuYy/kP6gnTbs8ZuqfD4FVFx/SRJoe0pQ1G0EBACC4iASMwCvlQNSQgUBjgn2siBN/dQ8VhdBYmBXwwVk1a7jTTvYHsUWp68mNRhF81UgUDw03xhEsLCdJIWhmAWovpC519e8KAZ5/V8JvCahOQkP0lkMNzDBkNgDPmPBUbxRpcQEAJCAAiIxOhrIAQWFQFvYxlpLSvYrZdnEZEO2KolCDF+CfZ0AIykoJ6RDwuy0pxERYc+MUwfHTWQ5PWkZ1yn0R/as5BO59xAQkimPPlhEtOgstDsxHvbf8avdGJ/WcbKhTC9y0oRAkIgRwiIxOToZWuoOUQAM39QTVaxR4w5v4JVtLC/Ch1704QjGyESkPFPBZdYc88ZLpDmZaaeiOjw3nxfqAIhH8lJFb4roR88c4nx7Id3ifH1cHl2OSExnhx5cmPEhX8kh1Vm93EU6ys7IpOShYAQWAwERGIW4z1qFEJgAgH/F5ueKLiMyDi3sb5uG91RfWmTxIw0mungeSJi3iqWKRAUW5mEZ+/vMi4/IirmuwLFB6pNONmaz+aFg1VKYwoU9owJpCZRfYwYjeu1exvM0dfL2ifmaJCUQwgsCAIiMQvyIjUMIRAjEBYdeUWDsz8Of+S5SVBFqKR0eh3EjE1B09ALSk2s2NAHhrv1sk5btcTCRpR8SB6tSpqLzIDFT5qUkJ9OxoGh2H4yJCwDnKqNpdgDU4fGFMcqQX7G6RICQkAIpBHQEus0InoWAguDgF8hRPWEG8QtYzM48oh2owNzUssdHOy7A2ztb6dRJ8rJ2Pcl2UEXpIPLsem/UuF2/3heXlnBxnJ+vxlCZX41EcuI/We4n4vtR4N05jOigzKWB8HUIH7CY5dtlGAyYpIt/2bliQJjSgwfRWY8EPpTCAgBQ0AkRl8EIbCwCHhfFeoaVWwaVwKRaTSa7tbNW253Z9c19/Zsw7jHsa/KKp1+uTwahMP4BTAJpqOd3V339ltvuTIYUBcqThUHLL703vf6vMnagODcyzLeBBWUGRISZuWxB5RYoMjQL6fvCY2pLGjLExuSFK/YWB083sD6sbAvSAMTAkLgPhEQiblPAFVcCJxtBDypIPGg4ywPTNzZ3XKtZsN1oHzc29p2m1cuYwM5KCtcHURSAlUkmIlYZgj545VXv+paOGSRCsmLL77gSjAn8b5cGe8LQxwCieF9bIoK6kwgLGG1UqLFmJBjxxigzpFZypyJ4VNj9ZLo0DdntgWcJildQkAI5AcBkZj8vGuNNJcI0G+lb6Ykrk6q15fc/kHTHezvuRuPP+4eQ7hy6bLF2xJnsImgwgTLTW994N73Ne+z85Y6jYZ75umnwUFAbujfQp+YxJTkLT9jJSbATV8YmqKYb2RSouICksLQx5HUXE5NhYaUiPnseAKcs5SIMUZyvF4Tfx5+oSgn3eYwLIoRAguLgEjMwr5aDUwIeEJBHFZxevUStufnUQF3721he/6euwoF5sbjN9za2vpor5cszKpQW55/5lnHM4maPAkbm+YZcQE5McaQ2HtMMUEYkRrEB5ITdtMlSeGhjSRWXlQBCTLyxFOx4XMDoYV5jex0vX+MERjPkLK6pzghIARyjIBITI5fvoa+2AgEQsHPFTjjckURTUC7u3tGNKrVOhx+KzMJDBHC3r92aOMe1Jti4jNDVsE6zBeGZIXOu+Z1a666thLJn5PEqKG1y6wsU6uRxAywd0zNVWDGGmL34CLIEfeSKaNwG6pQp4vVU1RqSJTMlmR0aY5Lp1jPAZKyCIGFQUAkZmFepQYiBMYImJUnmfftyAE47pLEUIHZPyCJQeIQaggcboMjbho/Eg0jJTAj4VRsMx8VoORwtVHYtZd57OBHOOri4Gw7j6mPIwbscEh6sbAOEBf6qpDiVOCbw91+We6x61fcc88+7+7cvmXmJq6CYpkKyvZ6KIM87WbTzEw0O7ECWJ2OuPoF95EjsihZCAiBhUFAJGZhXqUGIgQiBCCdUBgheWCoLVXNJNPu4OBHnn0E5YNOvo3mAZQRnGxN5YRqCpiCKSgkI7ZvC06GNlICU0+ivFBVaUM9GTAdZiGqKL1e18jQAKSIRIk7+pJDmd8M1RvE85BG5h30uyAsHTv6YAV71wzg+HLp8hVswNeivgPfmx7aRH2smwSIdQ46RpSq6EcPZfvoc1Bq4vdeqdeLHxGL0V8FIZAbBERicvOqNdA8IVCrLfUuw+dl85InB6Vy1d27d5eOJ+755581x9wlOPs2miAOg3tQT/quyRVL3S7uEUBUSFBIIK5fvwZ/mjXXBXFpNfpuf2/fyEWxDKdclCNd4c68JCpUTwZQeFieZIkkiJvrkdCE/WharSbisGtwt+2WoMysXL/qLl+9hg34upafJIqrlCroc3GJfjc0XVGNYR0kXy0QHayMAqGhymP/MY0Ep9drrq2tzWt7ytNXQmMVAguJgEjMQr5WDSrvCKxWSr/61DPP/09QWa5imfTGhbXVF19/8831xx9/wr300kt2FBJogfmctEFc7t296+4idEBUqJ7Y0meTUobuypVLOLkaSghIyp1799xbb75hMsvoyAESiSQY7mQUVp4mJr+KqQAGYiQH6g1NUTQfsTzPSsLGecNypThocylSfwjLVaFfrJQ7K9VqF3V0UV0LvjsdkJQWVJ02+tHBKdzcsa/dGw5bw16vg3o7MFUdwJT18+vr636Dmbx/CTR+IZADBERicvCSNcQcIvDMM5+5eu/ej61uPr1Sq1xY2b59+78Bofj6Ajac43Jq8gyqKeYzCxIDRjEiHQXu4MsVQ0ZFnN9DBnFLWOFU2YHzLZyBjaCQuCCfqTJItyXTICskNGX43zAP1ReaiNgez2vyZic25/NxJRJ8dRrdTv8nCv3hF0BK+uVytd0ftvqD4rBX7Bb7pUq1V6/VuvV6vd9oNPoH/U6/hHxQbHrw1+kNyuX+9v7+YHCv2SkW25CbdAkBIZAXBERi8vKmNc5cIfBsodDCgL8EIsHd4VZ+9Vd/tbWyymMHuF+LN8+QuJCoFAc0LS1hH5l1sJbJzeJITmh2og/NxQub2F/mALv+bhqWRmKMCIGswJQT7m2PFzr2ggEx3hOWoh11YOYm86Xxe8wwH/J0ms3mP3XPPPNb5VdfdU8+9tgAhzgOP/KRjwx/xf2K+7j7uJmHPvnJT7rv+I7vGF6y1u1KzEbox5PhfpyoOyEgBBYfAZGYxX/HGmGOEQCxGHz67bfr2LF3daVOMuJXDQVIjMTApFODb8r6+irMRrTEeAddrkLiTr/1ehVqSc3VoK5sbW1huTbqwX8kL3QEZr7RPjBUZGBCohMvL8aT3DCfLbtGGa5e6lL9CeloEPkaCfGyeF1CQAgIgXkQEImZByXlEQLnGIHC9vYKjglYrWB/FvIJ818hqSC3wMV7Lr+uY8+WfhlOuCAacJC1NJYpwXzEdKoqFawKqlW5MgjMg6Yo1gPCwjrpM8Ol1eYrg+fwyXrs3vxisDwbaSQ3LG8rlpCGfWyS3lizuoSAEBACcyEgEjMXTMokBM4vAliWvAIFZp075fZoxunCnETH3sHY74WkhM62JRANrkjyS5uxAggkg864VE6MmMAURXWG+UlheNkqIVzekdcrMCQmfPaKjCc0zENzkjUO9YaqTDBJWQW6hIAQEALHREAk5piAKbsQOG8IlAeDMrxzCyWQlB42lMNinmSTO44EpiP8WS4UsEaa+8h0TCIJS52bzb67+c7bUEu8b0sX5anKkMWYkYifiepC0mImJiM7Y2GF5iVwGm9OAokxBYhOwPgIZOe8Yar+CgEhcDYQEIk5G+9BvRACDwyB5evXX2/fvv2XBr3+JZhzlvvDYa2CNUlYrtwBIengud9BKAz6fxAE5I+RlGDZMvrjbUaNBn2Exxc3x6M3DB10SUJ4jQ6EtA3z/GUEJ3EeZl3MS9UmmJHGJifUBfVHlxAQAkLguAiIxBwXMeUXAucMgSfW17fhtfu/vbq9Xa41m+Veo1O8dPUqxJbhYHt7e7ixtjbY3NwcvvLKK6ulev2PgVEYKbFN6sg4oJmMzjDAE/1ZaBYanXpteUBT6N/iT3U0NcbYil3JOUsgMdy9lyYm7wtjK5OsjWUcTqlLCAgBIXBcBERijouY8guBc4YAFA/KI/tHdfvVV1/tUi3hIuvEzcV27TVlhkoKiQnvQWAYFy6SED57NYUb3Hl1ZmReQkbuIdNDXdxxd4DucNk1iRJNU96J2K9WOqqPShcCQkAIxAiIxOj7IASEgEcAzMI2rzOTEFcNkWxk/ETYMm1/UWuxHX5BZDx38T4yRnwQ531kvLmpDHbklR3vC8OVTMznl2fDz0aXEBACQuCYCGT8Qh2zBmUXAkJgIRDwjrY8kZqKS7zHSxgeFRlqMp6MeGsRYgJhoUKTqDAxIGZUSkxLttQa+VkH1RkjMIHZLASKGoQQEAIPEwGRmIeJttoSAmcYgUFlUMCOMNZDmo6GKUISryTijrveohQUF6gxBb/3i1dhvMnJTE2sEJmD/wvPUAp7y5D0lGC7gk+MPHvP8HdDXRMCZxUBkZiz+mbULyHwkBEYEZjIp4VdCKYhU1A8cxnFMZ2EhuYn78Dr8xcK458WEhnmMULD8t5lxnxn6Bw8Xs/0kAes5oSAEDj3CIjEnPtXqAEIgdNCIDH1GFFh8PQiJi5xSyE+kJMJq1BiMgpp4VgCPnPzvJFZyYhRwmpOaxiqRwgIgdwgIBKTm1etgQqB2QhQE6EjbzjvaDAYO+eSsITdd7kRHn1cwiolHhJplIdqCwKfeZGw2Eol5k3SWQ/jTIWxc5bM2KRLCAgBIXAiBERiTgSbCgmBRUSAish4dVGswIR7jtpMQDQh4ZM+LX5jPL/iiHHxxXLMw/xGaPA84fxiSswiYqkxCQEh8DAQEIl5GCirDSFwThAw0gFS4T/H7CI8WwyJCNWYhH0Eh11bgYQ4mot8Nq/ecDPeQIJooGIdJWuHq5T4JJ/ec/L1UDeFwJlDQCTmzL0SdUgIPCIEEhWFXCQQixF5SUiHKTDI4AkIbqnEgLTwmcWCX4w/pZr5YDYCTyF5MTUGZQckP1RxEEd1BmkDbHonJvOIXruaFQLnGQGRmPP89tR3IXCKCAx6vQIOijRiQUbhdZgxtxitLmJaosbQeDQwx9wkH+LLJChJeuheUGICKWI8Cc6EM/ApjkVVCQEhkA8ERGLy8Z41SiFwNALmsgLqwpCYhkyV8WzGp6Vq8SQkWTrNNBSgs64VZ9FE3Qk+MX45dlKJNZWYpo7unXIIASEgBA4hIBJzCBJFCIF8IsDDG8lfuPooJhfmucIEXOaciyuQkbTCQlLjNRnUMWGe8pgGJSYuF0hSPlHXqIWAELgfBCaXEtxPTSorBITA+UaASkyKUcTmnzC4ERFJ8gZCwnRTXyIUmBaWUfv78V40gRCl2zzfIKr3QkAIPEwERGIeJtpqSwicZQQyts4NBIWEI9yPVBiYjQ6RHJAWIzL8jNjMBNGxtCQxvj/L2KhvQkAInEkEZE46k69FnRICjw6BMQHxRGPMN4LOMvaBCY65MUkhe4nVmOAQHPLwc6zCmPmq0O124yKPbvBqWQgIgXOFgJSYc/W61Fkh8AARSMxJnmxEagkoyXhl0pjAMF/Y3dcTnzEPmSQ1iTKT+MgEAhM+H+CIVLUQEAILjoBIzIK/YA1PCMyLAB17hwU45tI5l/u5YF+XmIykl0OHxdcTBCbhMbFCM9JlEodh9ic2T7H8yrydVD4hIASEQISASIy+DkJACIwQIOEwUpK110uSKxCboLvERGdUPjIZxfDGRIj3RmawMLujze70LRQCQuAECIjEnAA0FRECi4jAoIQTH0fXSGehLcgrMuETeQJxCaoNn9OHORphSYhKqDaoNr580lwB8o8uISAEhMAJEJBj7wlAUxEhsKgIGBlBIKvgji9+4zq/94sREA48SSdBiVUYcpZAUpjNVjEhry9CIoR/Mw3jOI9iksU/6E8hIASEwDEQEIk5BljKKgQWGYFKsTIiKFRRSEiCycfGjbghGQfZCq6QbkQlRWhCesDLkx342MB8NOEvYwwmEoBCAX0KASEgBOZAQCRmDpCURQjkBYFAJwJBiZUWco3wHBMRwyaSU3walRePGimPUZUJVcYnJuYosZi8fME0TiFwygjIJ+aUAVV1QuC8IjDau2UK2YgPbJwgN5kDjtxcqOCYeuO5SprMhOMJMqtRpBAQAkJgBgIiMTPAUZIQyBsCE+RkRD4SFSVtMkr0k1hGCWaoNG6exIyJjbUTzFK4W1nRIus0ZnoWAkLgaAREYo7GSDmEQC4QgCNuYcJM5Jc/mxmIIVCQ+MwjIyNMTxCKVRZGhfri85PMtyYiRCgTyTa5gFqDFAJC4JQQEIk5JSBVjRBYBARiJYbEJMsRNxCQCdUmITppDAIBoilplB95bdVTkpn1HRwcpIvqWQgIASFwJAIiMUdCpAxCIB8IcMfe9BVLJBOkBRmDyhI+02UnCFFEcnx8RGrSBfUsBISAEJgTgcO/WnMWVDYhIAQWC4EezEneOuQJhj0kZh8SlZisMIkX86Q3uctCJZQdKzPjXLFPTVZZxQkBISAEpiEgEjMNGcULgRwiQF/bQFiC2YgwHFZhxuAk/rkWkc6Xfk5DynQ5xKRR0bMQEALzIiASMy9SyicEFhwB/hgEpWQ6+cigHEGWSfCJD3dkVFadof5AlLA6KaPiBQdcwxMCQuC+ERCJuW8IVYEQWAwEcCDAxBWIRiAhPnFs/OFdlplomo8My48Jzfh+MdDTKISAEHgUCIjEPArU1aYQOKMIxMQl7iJlkrQ6E6QTrMueGE06HxMPx8kT5ox+BdQtIXCuENCxA+fqdamzQuDBI0DCESssbDG9D0xWL4JpKPal8SWH/jDIqB6rM2WGyqpTcUJACAiBWQhIiZmFjtKEQO4Q8KoK/VqKPHV6ypVlMkqrOP45VmlAhfh/RF5EZKYArGghIATmQmD6r9RcxZVJCAiBRUIgWIZIUvgfr0A0wk69cZy/z0Yg0JeR2cnknMinRiuTsoFTrBAQAnMjIBIzN1TKKAQWG4GwOomjHCkkwbQE7uGJzRiDoMbExCdGiHQlVlqsfJLZdgJm+mJDqtEJASHwgBGQT8wDBljVC4HzgkDPDRJO4X1iSEAm/VswksBYkBanB7IyIimRyaiIe2yjZ4RlZFxiPab26BICQkAInBwBkZiTY6eSQmChECjzwEcjJxxWBoFhbERORkqM5fZXnJ4GJ+Ud45UYT4bEZdJg6VkICIG5EJA5aS6YlEkI5A+BoLRkjTwQGKYd1yRkRMeTF6s6iDtZ7ShOCAgBITALASkxs9BRmhDIGQJeifG0xBOVbIqSVlxiUkNSEgk2E8u1x/nis5gkxOTsa6bhCoFTQ0Ak5tSgVEVCYBEQ8OQikJARGTmWF67PPKHWoKLBIN4TOJitJgnPIiCoMQgBIfDwEJA56eFhrZaEwJlGACSDdh7r4zD5HCku2YLMaDwT/jEjBjT2oWF6Wr0Zg3FE5WcaNXVOCAiBR4mASMyjRF9tC4GzhAAce3kFsjHLJybd7RFBiZdRp/aECXXH9afr0bMQEAJC4DgIiMQcBy3lFQILjAD26PWjo9Mt7mJz0LzDjn1qQplAhkZqjakyE4dH0v4kx5h5QVY+ISAERgiIxOjLIASEwCQCo+VCYzNPFjk5Dmyh/NhZODIhkb50OsepTnmFgBAQAoaASIy+CEJACBxCwPOY2eLIyIR0qPThCNaXvTKJEszQicIcxkwxQkAIHI2ASMzRGCmHEMgFAvGPQbxEOgw+vdooDYrZhA5t+uIVl3R9EwToUJl0zXoWAkJACGQjIBKTjYtihUDuECiVSuAWkyYkgsC4QYpokKykCQtLWvkJxjJWc2KTFMvymaugZus9uXsNGrAQEALHQEAk5hhgKasQWGQEeoNeISYm4f4oBSaNSeTtkk6y58BzjMiQxqBAtZqZVZFCQAgIgZkIiMTMhEeJQiBXCIz4R5bKQiTS8VnoBJUlK83HmWYTKTYF+fVOB0spQkAIzEBAJGYGOEoSArlDIKExseknxmDClyXt6BJlHKs4JD5TUDQlxl9SYqZgpGghIARmIiASMxMeJQqB/CCAfWKG3CEmkI5pqsuIyCQZZ5qPYsElgXJUb+ITQy6kFdb5+Z5ppELgNBEQiTlNNFWXEDjnCHhT0HSzUSAgaUVmGpHJig9lmUYCQy4kJeacf3HUfSHwiBDQAZCPCHg1KwTOJAJZrCPV0bRCk3627KxnmhkpVZ9ZpbRRzJn8OqhTQuCsIyAl5qy/IfVPCDxEBMychPam+cTM3ZUjCMxYySm4kisMxWHmRlYZhYAQiBAQidHXQQgIAUOgWCxCVBk7245ggVQyMgFNOPNOyjaZiswR2LK6QaFwBOU5ohIlCwEhkFsERGJy++o1cCFwGIHY12VESkBswv0kUfEb1lktCdEZpU+QHd9OmuSwLbGXw+9AMUJACMyPgEjM/FgppxBYaAQGg8Ehj5gJB95Zow8rlRIyM6qIRCUhQVkEyVxnwoR7v9cAACAASURBVHKoWfUrTQgIASGQgYBITAYoihICuUSg6LdtCQqJfQaCkSgraVKTRUBGpIUg0jyVEBvv7TtG1pfl8Y/SY3L5fdOghcApICAScwogqgohsEgIkFx4hSQaVUJGjHgc0muyR3+YmkzGeJI0d3XZjShWCAiBXCMgEpPr16/BC4FZCHjSwRVLFGK8csIbXyZ2e0krNLNqZVooG4jMUfmVLgSEgBDIQkAkJgsVxQmBXCJQzNRYzOAzElESYmOmpjFIabPSLFLjGxmbqopYnYTzHw8LN7l8Bxq0EBACx0FAJOY4aCmvEFhoBAYTo4uJSJqUpElLGhYykrEvzDjVCExClUyFwSOD9olJI6hnISAE5kFAJGYelJRHCOQSgbE4Mou0BLISiI59QqaxMml9xScZmsH3JpfQatBCQAicCgI6duBUYFQlQmAREfC+MOmRGflIkZE4TyA8gcyEtLSac1R8ul09CwEhIATSCEiJSSOiZyEgBCYQiFWYcB/7w4TMk+ajxOeFbCcJLBvXNSY1ablGL0AICAEhMB8CIjHz4aRcQmDhESi65OcgXnbEUZsTrycg3qdl5NRimCRPozyMCVUYaaFyE6FnvjARC8oiRAsPtgYoBITAqSAgEnMqMKoSIXD+ERi4xLE3zSqSZyMfGGYgMiPykhq6NzV5dSWoLUZakOCfJ48rGDGe8w+hRiAEhMBDRkAk5iEDruaEwHlDYIKIJJ0ngSExmTQh+RVJQWUJ5UKekRoTWY8YF6s05w0b9VcICIFHi4BIzKPFX60LgTOLQNp/ZURYzELklZW0uWhMYJI8GB05C+ND3ojDJGM/HHNmQVHHhIAQOFMIaHXSmXod6owQeHQIjHxiki4EJSX0KFZYuIsvLyMovKGpKMno85lW49Mic5RlTfLxg0lp61WUrFshIASEwEwERGJmwqNEIZAjBI7QZWNSk1ZpYpSYj+nhMzj64pRsT2CK44boP5MmSzlCXEMVAkLgPhE44mfrPmtXcSEgBM4NAr1Oz0SSkdkoo+cTakziqBuMQTEZCfe+rqQiz1hGtY4UGEkxGUgrSggIgXkQkBIzD0rKIwRyhECsstiwE/+XLAhGeUFQqLTwSisrh+pLKiKnSQo4nJ2kSwgIASFwbASkxBwbMhUQAouJQBFmHiMgI3aRjDN6ThMU5phQYCJo0uQl9oVJI6izk9KI6FkICIF5EBCJmQcl5RECOUAA+8QUzJclNdYs4hIsQIdMSCnC481J6Rp9A1n15gBmDVEICIFTREAk5hTBVFVC4DwjgNVJIwYzjWCQ5Hin3cNmo4mxJywnrcaEPKw/pOFea6zP8xdHfRcCjxAB+cQ8QvDVtBA4SwjQo2W0dDpyto2JSExu0gSFIsyoWNoklQw0KDO+bFBoxGHO0vdAfREC5wkBKTHn6W2pr0LgASIwcD2rfZYJaFbzJDBpYnMof8JyfBtBzck2Nx0qqwghIASEQAoBkRh9JYSAEPAI9CDEJOYiRkwzKcVwpfOE5yzFxghOSqFhXAncZ3V1VXKMvodCQAgcGwGRmGNDpgJCYEERKBcLQy5OiobnFyuFgxsPE5ssYkICw/g0oZkgNkkbFlcCjdElBISAEDgBAiIxJwBNRYTAIiLAHwP6xExuXucJSdovxshHoqqQ9ExVXhKgmB7ITbqufr+/iHBqTEJACDwEBERiHgLIakIInAcEbHUSrkBIuHldrKgwjc+BhIR8aVJiY80wG03kiwApSYmJ0NCtEBACx0FAJOY4aCmvEMgBAmmSMl5yNB68kZloh96YoJDABJNUIDpBiWENcdxEuRxgqyEKASFwughoifXp4qnahMDCIZB1NhLjSFSCMhNMRTb4ZAWSv/Wl02RlIv/CIaYBCQEh8LAQkBLzsJBWO0LgHCCQVlBCl009SciJEZKMtUSBmFjekTlp7BQcExmrwuorOPnEnIMvhrooBM4oAlJizuiLUbeEwMNGgMcOpH1ZgunH+gJiYrQjISgkIaN7xqc6HOcLSUVz8OWTL8t7+cSkgNOjEBACcyMgEjM3VMooBPKBwARxSYYchJhgQrLoiLVkKTish87BcX1ewBmvVGI1UmLy8b3SKIXAg0BAJOZBoKo6hcA5RSD4uKS7H9xcsghOnDdWZ0L82IwUCz1jXxkpMWm09SwEhMC8CMgnZl6klE8ILDwCMPaYuSdtGBoPfMJBNyNfsYifFMYjBEIzrm+8PDvIOMxfwB57aCHDy2bhAdcAhYAQuE8ERGLuE0AVFwKLiMA0IhOYRkifIDUAwogLAUn8ZdL1+OfEqJQQHdGXRfwGaUxC4OEgIBLzcHBWK0Lg7COQ8WsQqygcAAlKLMDEJGXafRg4071I4xsKBEj79Z79r4Z6KATOKgLyiTmrb0b9EgIPG4HBZIMkHZP+LGMzU1qBCeajUEMwJaXzDXk4Ey6rO/ksBYebhz1etScEhMC5R0Ak5ty/Qg1ACJwSAhRIzJ0lJi/+mS0EQuIVlUm/mUBa4ny8j5Ucz1W8X4zVMZF+SmNQNUJACOQKgQwBOVfj12CFgBCIECC1ICGJCQuTY5ISnn2xsbIS5wvkZVyXz0ciE1SYkH847OkdCAEhIAROhIBIzIlgUyEhsJgITJAXEI60+hLISaywpJEIZRg/zufvi8Vk1VJUqFAo4amTrkbPQkAICIEjERCJORIiZRACOUGAy53N+TYxFSWmpTD6mJykEfHlPFGJlRbmC/UFVSa0UUjaGw7p2ltNV6lnISAEhMCRCIjEHAmRMgiBnCCQnErN0cYKih/95DYuaYXF5xkToEmPmSQ1IkhGiLxtCW2Vhx0pMTn5kmmYQuB0EZBj7+niqdqEwLlFoOxg6wkqTDKKsYoyHlaa4EyYoJDN0hOCYupLBiKhDpIdLoqqSonJQElRQkAIHIWASMxRCCldCOQJgWS5sykpyTJoEpIs4jKOs8XSk86/yQqnoMgEIsMyY2KUHALp8c3iOnlCXmMVAkLgBAjInHQC0FRECCwgAuAWdk0QFpIQxsUM47BvjC+D4wMMloQH+XpSyk7wi7GMTEPAYQciMAv4hdKQhMDDQEBKzMNAWW0IgXOAwASBIZlBn0k6GD9iJoiz5+QK94HYJFYkT3yCqpPkD3WFMkaQEFJ77J0DpNRFISAEzgoCUmLOyptQP4TAI0YAgghtQkZc7D+SkOQ5i7iYQhNkF+u70R67Gw78Z1zO4pM6xzTISJGUGENNlxAQAsdFQCTmuIgpvxBYUARMETELD1QY0Ar7TIIlpRQYEp00kYFpyKMTs5SorNVhEsxk3QsKqYYlBITAA0ZAJOYBA6zqhcB5QYA/BjzbyBONRGVJERcSkCCbFAv+52NMdJKVSEmZaSSokJQjLpNKznlBSv0UAkLgrCAgEnNW3oT6IQQeOQLc7G7cCRNMUn2ip0w6LmQZkRZEFLGR3ZjuHB4YiczI3+ZwsmKEgBAQAnMhIBIzF0zKJATyhUBQY4LZJ4w+Nh/FKorlT+iNv2eJsc9MyDtOoynK7xCcL2Q1WiEgBE4TAZGY00RTdQmB845A2nyUjCcmL1RZAhkJ6ovPNrmfTKzY8MykMYHxuWPV57zDpv4LASHwaBAQiXk0uKtVIXDmEAg+t+xYICC2UilagZRWXyaeUc4vPkq8ZhLnXT/QSSOUJ0UjCLQ66cx9G9QhIXA+ENA+MefjPamXQuCBIwAdxXxiYtUlVk8OKyljYmJl0EMfE+/eO15qHdKtHrAdr85Q1eEBkJmnEzzwMasBISAEzjcCUmLO9/tT74XAKSOQ0JD0yqOUmWka0Tns++JNT+bEi54GksQTrHn59UyTKs0pD0jVCQEhsMAISIlZ4JeroQmB4yBgVCJRYny5SGlhEohH2pzEHAMSlAnTUbI6ieoMTsamiSmt4lhTSOe+MtifRizmOC9KeYWAEBghIBKjL4MQEAIRAoFP8HPSVSWtstgzyQtyps1OfB6AwPDyqo1l9WYku/EX08rl8tgSNUrRjRAQAkLgaARkTjoaI+UQArlBgPRivMeLX1Hknz0ZCWQlVl48SfGEZ7RjL+qJiY0ZjhLSY4yFKkyyyqnv5BOTmy+YBioEThkBKTGnDKiqEwLnFQEQC5NIzH+FCksQTMwJN/3vnXE6s1FzGRGcBICYxMQqjq/bV27Upw8xJ139eQVR/RYCQuChIiAS81DhVmNC4OwiEEgHCUsgHUE9iXvNfGnTUuA7oQ6mBzIUPtOeL0ZmUHGpVGL1YxvT2YVIPRMCQuCMIaB//5yxF6LuCIGzhICRElNlPMeITUvspycrvsdGbpLOx2qLl3RIWHw9IS3kpRCjSwgIASFwEgSkxJwENZURAguMAFch8V83/R7oBfiFrSBKTExh2IdXHI33iQmEJ4YonPnIuhI+ZPXyKtsCJV1CQAgIgeMjICXm+JiphBBYOASoqGDzOc8qgimIfjCJukJiEqsw4RiB4Jxr6VY8qSJByFQX3Iey3ql38swk5GG0iMzCfas0ICHw4BGQEvPgMVYLQuAcIECq0Rr106sp45XPaR+Y8MwCsQ8NVyGNCQ2YCZZZ8znk90qMzEfn4AuhLgqBc4GASMy5eE3qpBB4sAhQRGm3fRumnpiq4q/gmBvHpdNDXisb+biQ4AQiY2Ws3jE5erCjUu1CQAgsOgIyJy36G9b4hMCcCMROuSwSiEpMamIFJlQb0j1JYUGfEsoHkxPjfZyUmDlfibIJASFwBAJSYo4ASMlCIC8I0OgzbawkH0ylL8y0yxQb/hepOBP3Q5T1HsHTqlC8EBACQuBYCIjEHAsuZRYCi4kAuUWvd1iYDSTEO+QeHntsGIoJy+GcUGGMAE0nQVllFCcEhIAQmIXA4V+tWbmVJgSEwIIiMITvynSGMY16TItPg3QUwUnn17MQEAJCYB4ERGLmQUl5hEAOEDh0skAOxqwhCgEhcL4REIk53+9PvRcCp4aANmo5NShVkRAQAg8JAZGYhwS0mhECQkAICAEhIAROFwE59p4unqpNCJxLBOCzMmw2mwOHX4SwjDpeTh32evGOuX4Rk1+xdHhBU/B/if1gJjfLGx89kIBFEahzLoFTp4WAEHikCIjEPFL41bgQeHQIgFjQL7eK8ATCCwhfw96QcJC08IoJyZiUcKm0JU8sp/YxvnxMcFjXcIA6hwPb3TcEbnyXOAZfQdkfRru/jc8vJGEbdfRDnfoUAkJACGQhMO/igqyyihMCQuAcIQCSsI7uMjyO8CEEkpYXk+dVfF5EWA4kpt8H+QDxyLrIYYYJ0Qm78obl1izvSQxLIhZkBaclecKDXxzmL5VK9pwQIzbSRDhAaCBsI7yG8K8RPoPwWYS7CLvIn+wrjCddQkAI5B4BkZjcfwUEwKIiADJBn7enEZ5CeD/CBxFIXqi81JJQwWdQZAtUTRj6/b59ksQMoKKQ0AT5JVZZgpkoEBf+oBiZsV8WT1Jsx1482SdDQl7KJDLYO6YQjrhmEV+cVfQQaGIiadlD+F2ETyN8CuErCK+hnnv41CUEhECOERCJyfHL19AXDwGQCRKSr0X4huTz3fh8DoGkhaYjfpYQJnxfgvriiYs3J/VAZKi2MC2QlUByWJ5X8JXhTr7cZqZIFSYhLVRbTIXh2m0qMCArifLiCU1CZpjP8uAK6Un18UcgNCQ1dxBeQfgSwq8h/DrKvZFRRlFCQAgsOAIiMQv+gjW8xUcABGMJo3wW4dsQSF7ehUCTUR2BpGbk+xaTkUBOgv9LIChUXqjAMJ2KDJ5MHxkEX5mRuciTGxKPQELQ1khpsXgSlcQPhmk+3asyxeLYpGQqTVIPPlhLyJ71SVmISk0Xgaan1xE+h/BPEH4DYQt1MU2XEBACC47AzF+KBR+7hicEzi0CIBgkKM8jfD3CtyJ8GIE+LSQ0JC0T2ycEgkKCQJISE5cRWeHZA7j4HCsu3i8GSkuiylim5AqkKCYxgbiQlHg+4kkOn5k/kBWWYZOlkicwVGSYzvg5lJlRF3ATVjft456KzP+dhN9GW++MOqsbISAEFg4BkZiFe6Ua0CIjgEn+Ksb3YRCKP4iJnsrLDYQVBJqJRlcgF4F4UFEJlxEU+rwE0kLlJVluFBOYUAfL8d4oDokMmVBEeNIqTExAjMh4aWVCrYnzpElLKBM+j0Fo2EMOlE7CDP8Pwi8j/EuEf4X6sr2UWUqXEBAC5xIBkZhz+drU6bwh0G6331etVv9djPubEN6LQOKyjDBSXGLiEsiLkY9EWeGnmYeMjYxVl5CH8fFqJCvnI0dws16SipjgMHGSyLBLXlGxllAH09NkJn4O9/zMIkFpQsN6Q5lR5w7f0H+Gq51uIpDI/FOEX0A5mqB0CQEhsAAIiMQswEvUEBYTAUz+XPZM1eWPY2L/Ztw/hkBzEVcU2UUqEpY6e4LiSUsgJswTTEOWNyE1BSMoTEsUGsYn6VYxyyHO5/MmIMalyUsgF6FM+AykhflDHv7YsA1PVPjkVZqYwCDR/Gh4jcpFSk6cN52e7kP0HMxNO4j7PYR/jPBzCK+jDu1FMwM4JQmBs46ASMxZf0PqX+4QwMS/3nO9ryu78h/H4P8IwgUE+sCMVBcSE15BcQmfIc7Sg5KCyJh8hLIx0WG58BznTZOW8GxqjC9k/ZggIsnzmMAk5CUiLZbf/p8kLFl1BUKU1Yb3vzlMiKxT2RcdgrkfDVc2fRLhFxE+h7plasrGS7FC4EwjIBJzpl+POpcnBDDpr0AW+Ha4dXxHyZXosMuN6WzzOV6BZJCEcEIPfi6ewNBpNvFzSdSWgF1cnnGBxIQ67ZMhqTfOz3ZCu4FEMD85SNItPh4y7cR54/QJIhIUluTTKkrqivPF97FZKs7LPCHE7aXvkyb4QQWGjsBvIfwKwv+I8lzZpEsICIFzhIBIzDl6WerqYiIAkkAT0ScQvg+B5OUSQi2Qh/gzJiCxohKUmEBAiJQnGd685J89GQr3k3nHRCmd134kAtFIzEPBKTgmDsw27UqTErY9L+mICUqox3cpm7iE/LFvTcif0T8qMC2EVxH+T4SfQZAykwGUooTAWURAJOYsvhX1KRcIYCLniqLfh/DDCH8AgWajKuLhihIccvnp92whKIF48JNKDCfskJd6ColLTE4CkGkH3XRdIV8cH8dZPIL9YLBvvE+ITehDeDaCkuQPdfCZ+8VYWoby4mseL79O5wvEhPVZedZDZ2EfMUGIQp5AYvgcKzjp9pM+ksxwRROXaP8MwieR78tJmj6EgBA4owiIxJzRF6NuLTYCmKRfwgj/BMJ3I3BjupHyQlUlKCtEIZAUTr7xUumYrGSZiELZGMk0wUk/My85AveSia9AVCYiUw9WVyAYCVGJyUhMcnw7yc8P8oYfIjuGYPTkGzACg9tJ4mQ1TBCpQHRCO4HgMKcnNMzvSVDImxoCH9kMjzn4Vwj/AOGXkJcmJ11CQAicQQREYs7gS1GXFhcBTOo0FX1vEp7F5yoIiJ1ZxCttFvLKytjndERomJeJ0XWYkPgVSEYAUnknCs6oI5CQdPlAAkJ/A3FgVaO8CaFhXJwet52OzyIX6TxxfXFaXJb3tsopIVM+n6dCIV9sbspogw7AJDM8WfunEH4OeXT4ZPzydC8EzgACIjFn4CWoC4uPACZ2mo64TPrPIfx+hHUQgFJadSESgdAEMpD+DGiliQXjs+JCPCdq1s2/9MG0k5U/Ky60yTpCeriP88fpVmYKkUnXEZOI9L2nHr4H6bS4X7658U8a84b8sWmJ+dIExsxNob+hUv/J4wtuI3AX4L+H+l6eTNaTEBACjxIBkZhHib7azgUCmLCfxkBJXv59hMt4roxPiR473hKMQGAMmMT3xO6Ta5JgmIFlKnGZXm6yvjShiMtl3qNZb9pJTF3WixlXMo5AcGIiEkqFuLgvTMvKmxWfzhcITIgPnzGZidN4nyY2qRHRX4ZnNP3XCD+P/CQ2uoSAEHjECMz87XnEfVPzQuBcI/CVr3yl/swzz9Dn5fsQPoAJerXfp78Ld831piB+xiaZSZIyffhWGmU5+c5TZlaeuC++2kkz1fReHE5hXYEczGozlAz9p9cL3YVD2XTN0+J5ejbdiMMPmd1l/KqxfFxH7OjLtkJ6+jOkJf2hXY8b5v0mwt9H3v8j3U89CwEh8HARyPjr/nA7oNaEwCIigAn8RYyLq46w74u7BOJS7oHAcC8WTu4hhLEHUsJnm2xTKgzj0qQgEAavxySmJE7WSaXp/IwelUlI1Kj98BzajshIyBOX5/2EahRnSt0fGlvSj5AtHhv7zrOZJn+Y/AgDCbH0iMDF5CS+H9WPG5rP4ivk42eswDAP4ywk5cJzVL6De6oy/xDhJ5G+FdeteyEgBB4eAiIxDw9rtZQDBEASeIL0H0b4qwhfg+flXq83mvC56iecTxRIRtbES6jIK8gpwpVFSny+bAXDCAszoJK4rXQ96ee4TqsjKj/ujb/jeKiGZBEa9j3FlSbGMm3c6TbC81H50+nxc7jPimP9sTLDPBaYgM90WtIfMitulvfPEH4c+bVRXgKMPoTAw0RAJOZhoq22FhoBTPiXMcD/EIEKzA2QF3PcJRGIA0HIIg6cOANpmAVUVtmQP01ajqontBnni+uP00N8ukycP+7/OP90MjOrf3FaTD7SZXxa0KPGqXGZdHk+Z6WH+JCWfk6bodAaVyxxPxn6yvxD5OfGebqEgBB4SAiIxDwkoNXMYiOACfuDGOFfR/hGhPVut2vLpoMpJZCZgAJVCjpvHEVaOIlmkZaYUMyD7OH8ftLPqjvUF6fFJqF0e2EMWXXFaVnp6bqmPQdyFqeniUlW2YBfOm/8nL5PE5VAZFh/SAtlkk/6yvBk7H+E8BOI+2JWXxQnBITA6SMgEnP6mKrGHCGAibmE4X4rAs1HH8Cqo1o4TXqswhCQtFmGSsBhk1EMXZgosyb/yTT+NT5sOkq/hrhMVp3MzzzptPRzut44PSYtowEmBSbS0pXMeA7lQpbYzBbGNFE8ADsZad3hlVkmig/p/AwhlEubluJ05GkgfBrhxxD+OdJ0QjaB0yUEHiACIjEPEFxVvdgIYHLlAY3fh/AXEa5DfRmZj2IfkSwSMGsiTU/2zHt4Ij+8Cijkmwf12PgS+mflWTiwhCkOLVnjCW3GaelxxP2yNDaFkO53PN6stgJ2iZbEGg4POUVkfJl41L5I/B6m3cfExe5ZFH8UCrhPER2kcJO81xD+W4T/AekyLx1+O4oRAqeGQMbf/lOrWxUJgYVFAJPrExjc30L4o7jf6MB8xMmfk24gMGESJwjxfaxQxBMn84UJPAu4MKGny8R5syb9WfUG0jKtztDv2Jw0MZZUR7Paz4ojffFc6bDyE6pMtxMoyDw4hDrCuKaVmTbugFn4TJMVciS6/tr5TRGRSepjV7kUm6uX/jbieB6TLiEgBB4AAiIxDwBUVbnYCGBCfAEj/JsI3wrn3aVwntGhc40SNWByogz6wxijcfrhtBGJiFSReGKO687Ky1aYJ5tIHO89ZdUfm3ZCbUe1NSs9nXZYOxkTwqy09IgmsZ9M9YqK/wm0dklGoixx2XDPzxCYlSuzSGf4GSszSTU0L/1fCH8FZT432bqehIAQOA0ERGJOA0XVkRsEMNl9FIP9rxC+DgRmwv+FIGRN9FkTaVbcUSCGCT6UTU/4R5XPSj+KCIyVGpY+ORma1tc4nuMKz9PyZ41hWlyoL/6M88ZjJ980G1HGFb+r+DymtH9M7PQbleHqJR5V8GOI++WM6hUlBITAfSCQ/bf2PipUUSGwqAhgYv0YxvZ3EL4O/i9lmo3Cvi+T5IV/rcaOvGFCC58h7zw4xXnTE34oP4737c5T77Q8nrSYKHHosr7YyE5+ZZGTaXGBfMStZcWlexPjzLRZBGVa2XS8r+ewo2/8boMqwzgGkprkop/M7yH8KOJ/IatuxQkBIXAyBDJ+qk5WkUoJgUVGAKrLf1AqlejA+1K73a5w4k1v8OYtPn6KD5MbMYnvY4yyJuQQdxR5yZr4Q91Z9Wa9m7iNdHpQKQ7n8b4s6fzzPgdlZ1b+GMdp+eL+ZY17GubT6ovjA35ZdYS4+JP3PoR3PSYxUT4uw+Yuvz+O8N8j/n644DzDUB4hkAsERGJy8Zo1yJMigEmcO/B+Lz7/MiaepzudzsTJ01kTXWhrVtpx+hMTFtYZiIV9oqLTnA3TpCW0HcYSP8f9mmc8o36m/Hum1TMtnm3N6sf94j6tfKKvTahUzBvyB+UlxGV8EoJbCD+JwP1ktAR7ni+O8giBGQjwB1qXEBACGQh86lOfqiD6BxF+BBPOE1Bgipw808unp0166SrjfLMm6KxyQZ0I5Uaf6cxzPrN8Vr+z+3jYF+Y4/R91KWkzJl2z6gl9ycqT7nv6eU4YjpXN93u8qoqF477xe0Eik9Vf5kUfyYOuIfxlhAHy/XeI0hLsY70FZRYCkwiIxOgbIQQyEMAEU8Zqo+9E0o/g/kkoMKZa2gZ2+OQBhLzSkyef7TTmDCfRaZNbRvMZUeOp39oIhCBSNTIKnTgq7iun3lNpxuZwfwXc7g+TybpOPNgpfUq/22n1h3fBdJ6LxVVKh8YFAHlwJS/Uy/2F/lOEEvL9PTxzFZMuISAEToCAzEknAE1FFhsBTCzchfcvIPx5kJYrIDA2KYWJyUhMCoLxpBwcSQ9jdJyJO7QVT6SeSMQ6RtTGKTCNQxMvx5kQpsOjOVlM3MYID9LCKcNiKyxj/fAPJ2s4o1TW+5gVZ80jTHv3TI+cea3PIYS0eAUT4rhy6WcQaKq8xzy6hIAQOB4CUmKOh5dyLzgCP/uzP0sC8yMIfwEE5nIgMPGwOYmFiZXxYeLz94cBsgk4IkGHc0z38UhP3FmTrNWXkkr4GAkfSRbPFEJ/Qj/Sz3H/RgTiVKSYSaxmkrKoE6F/9on4GINZfY/Hkb4PdVh8RADDeCfS476kK8LzuMz4PaazedWzFwAAIABJREFUeeLjTZF+FZNtkldDvj+FUEcdP4RnnoqtSwgIgWMgkP5HxTGKKqsQWCwEMJEUaULCKqSfwP11mpDMfJRM4GGySo962oSXzjfrOavu0C7LzTNZZ9UR2gxpcZ3p/szTRrrMcZ6ziBXLz+pTuv40qUunj5+Nak5PRoqNl58zc82fGH8PeB+ew338mVJkumjl7yL858gj09L8kCunEDi1v7+CUgicewSwjPp7QGD+CxAX84Hh5Dpy4uWklBphPGmFJJsYI9Ui/ZwGyedNJtykjeNM6qxvPLFPTtxHtZ3uy4N8To/Jq0SHHYZn9SFdxxhz3h1RV6S2GC4G3OG9fGa1P29a+F7E3w/exyG9MR7SOqj/pxG4l4yIzLxgK1/uERjtxpR7JARArhHABPltIDD/GUAwAoOlI0ZgRhPSnOgch8CwSj+xJSYStDltos5qfpQ3kCZwGE8OsnI/+rh4cmeX2f94oj+qh2kiMM4/i8AkoETE0nBPsD8O3kf1L53OukP98Sfv+d0KKl+SVkX5/wjhr+FZv8tpMPUsBKYgoL8sU4BRdH4QwKTxBzDa/xLh6Xa7ZQpM+Fd6FgphMp2WFuLDxJWVL87DfMfJm65vRASsnnHqPHWm64qfucpqWh3T4mfWl5CWuOxJ64kNRbPrAFGaIDCHlbLjEKlZ48tMi+S7rH56IjMyWdJH5ocRfgB59ducCagihcAkAvqLom9ErhHAZPEUAOBhju/FPjBY8mr8xa4w6cST3FETXtZENQvgdH3p59AP1uvT/CQct3PcNmf1Z6Iu4JA2oYWy7EsgEun2PYYxzUiUplkNHzMt7ldQVaZVMeqJyVST/ZpW5n7iiccIE/s++TZDfFBgxp9emUny1dH2X0X4E/fTB5UVAnlBYNpvVF7Gr3HmGIHh8OAx55b/PiD4NhCYajiFOkw6gVBkEYv7gS096c+q6zh5Z9UT0lifEZBkYvX3YzPUcdqL6wn1Z8XN06958vguT/qxZPV3GlVJj3ueNk8jT/z9ib9TvA/PwUcGJs0Q9zba5oqlnzuNPqgOIbCoCEiJWdQ3q3HNRACT38pgUP9ryPRvt0BgRg68M0sdTownosOp45isyXZa/pD3OGWOqiudHiZP34ZXDo7bXjp/TBLS7Z3O82EVJSYIoY3DuXxKur8n6dPofc/jfJSRh32I3294Dp8k0kn6DfTvb+H+3zpJP1VGCOQFAZGYvLxpjXOEACYGOlH+IP71+51w4q0Po2XUzDQvMWHeeFK6X4jD5DYvGYgn61A29CHuV7gPeU6zz/GY0324XzzSdYf3wnYCRnGbWYQmjku/13n7m8FFRo7BWW2O+p0yI6XHM+0dRYT6PSjzd5Dv8dPEUnUJgUVCQCRmkd6mxjIvAn8KGX8ES6o3on/5HiIk6Ulv3spDvniSypp0kzluot1jEYzkX/VhMg5l552cjzueR5WfZC2QBY7NY3m4N1njjuMCPqGumQQkqh4t2tO0/PH3JNxPy5vuNfsU+8iEVUvJ95IN/36Ev4t8m+myehYCQgC7ZAsEIZAnBDAZfAjj/U8QrnW73RGBCJNdPPlkTYonwSpMnumyWf/CT+fRMxBIkTVicj/YTXsf07A+ynE4lJuXuDB/ug/2XYvGacQGARd/o78d4UeRRz6M016S4nOLgEhMbl99/gaOSeAK/oX71zHyZ1qtZCk1Hqb9y/w4kxLRpGIQiM9RBChMYkfly3pL6QkwK8+ixGXhc1rjz6r7NHGLFRr7fgSSEjUy6gPT4jx47id7ySCax8P8WYTvPc3+qS4hsAgIiMQswlvUGI5EAJNFGf+6/XNY/fHNIDCV2JE3azI7LoFhBx7kP5NHEyD/xX6fV1zXPPf301wWtrPqy/bzeZDIzurN6aT579J4DOnR2DtAUzFW4b1E5s4LyPJXEP/S6fRKtQiBxUAg/fdpMUalUQiBFALwf/nTIDA/DkfeS7i3VE4U9hcgZZs4DoEhp2DxeSbrefKEfh3nBc5b73HqvN+8xNDwzbD7HBU/Gg/K8v3MNT7/Ek7U7aw+hopmpZ2kMSNpCRFN1x2e408uveay6xI+ASaL/xLCf4w8b52kfZURAouGgJSYRXujGs8hBNrD4fswEfwQEjbDv2xtYuREeyj3cSOm72obamJbc03EKDBvPtZ9nHqPO6r7zR/GEfqY1destInxHwO3QAyO3+/Z34HjvI+52k4ITNb7823F3xV/z+8sTUu4yOn+EMJfRN7KXO0pkxBYcAREYhb8Bed9ePixX8F66h8EDi81m81iPClxRpj2r+GAW9bkG6fdL75ZE/msOuP8s/Kd1bSAf/weHm1fQWMjYnFffaEa5KW9qdUc/X0bfbusW8OhP5KARCYxgdI/5s8gfMfURpQgBHKEAP9C6BICi4wAD9X7bvjBVLMmTsalZfwYjJCWCDeWFJeZBlxWW3He+00/abvTys0Xzx1m58t53nKN3kdiwkq/qzT58Olm7Bpl9dB4IsOFRN7CdVjrY10xmfOYjoH1aeO6SWRoViKR4SeuZYS/iXxfRV2/dt6wVn+FwGkisKA/SacJkeo6rwjgR/7DCP8L/gX7Lhwr4A92TAaTNSlZXMRWOJmk88U+DdNwmUVQZqWF+ubJc5K80/p7P/FpfO6nrrNQdtp4jhufHsv0d0qTkc9tP8YRSwxt8jOEcrlsPjK4WIr+Md+FtJ10e3oWAnlBQOakvLzpnI0Tk8Y6yMuP4gf+GTjzHiLrWZMK4+J/N4dJxOKTMAvGWXlmpbHO47ZxVH2z+nmaael+83nRrmkE5nTGOT4/icjF+Nl99N3jcx9O6YlZid9p+sd81+n0Q7UIgfOJgEjM+Xxv6vXRCHwPpPdPgMBU0hN++FdtXEX8r92sqkcT2ZRJetbkPSuNbR2VHvozb76s/mfFPaj60nhntX1W47L6nhUXv5NZ6SHfLCI06z0EShja4CdX1yVl6A7w53HPDRx1CYFcInDoX6i5REGDXigE8KP+HoSfR3iRm9pxcFkThZ9YmOyniniiifPHikwMlJWaRmpmpE3rz0TdU+qN84T7rLFl5TuNuFmT8Tz132/5edq43zyz+piVlhV3VB+y3lmIY328j+sNfjOMY6BZiQEXv4a/jPDvIX7/qHaVLgQWDQEpMYv2RnM+Hvz41yC3/xn8oD8f/GBscojoepgIPFSTBIZ548kkTChZk840AmP1ziAhmXVF7+2odF/9fCau0/46BHzm6WNW2zG+WelnIe5YYzzhPwNjghLGHOLG2AYdJvk62XfKv3eqMZFZ6ZuRwBVLuoRA7hAQicndK1/sAUN5+RgmA65Gqk1MtOP5IFOVISrMP0lwshWcWQjOmqTnSTuKHMyqY1a/HkTasSb7VAeyxnHU2B/EGGbXOQdDwffKU4vZNc2Tmh4/OUscZ+0k32PGh00bEU1J5gcQ99F52lEeIbBICMzxt3SRhquxLDIC+BHn2Uj/Mz4/Dl+YUnpSCGNP/ys4qC3hk/nGRqYxYtPqY46sNMbFdWZhn1VuWn1Z5c9sHM0ep9W5Y9SVxjz9rkOX4nzT8jBvOi39HOqbFj8vBPH3YNp3IrQRf1Yqldis9E/Q3p9E+t687SqfEDjvCEiJOe9vUP2PEeAP+NfjdOq5CQwLh0ljYiI5JVynTUiMn5V2Ss0nbcRmibEZalYf7rv9GeObu+6w3DjID0cUnIVnGGv4TBOCaVWn60w/TysX4tlOCEfljctk5/Xv0fqQ4Gs7UI938/0WlPvG7LKKFQKLiYA2u1vM95q7UeGH/enecPhdpUJhOWuiCZMW08L9aYCU1RbrzYrnFGQKz4xJeVbarP6a6oEN1kL5ATZI6xcGbjDEJIcjd+BBwQz2n99ov+iKpnAUXGlQcpVC2SGGWeyyj1P4J07oz4kwj3DKqif9LtnGvPily/pRZ/8Z3htTp41jrvpIyma8++zWx7EsOuJ17AsC/WJ6IDIVJuC7j6i/hL78f+jn3aPqU7oQWAQERGIW4S3mfAz40eb3+NvLhcKL6aMFYmjmneDScE6boKbVl/CAdDX+X8+HYy1mWl1TsvtoNjQYuu6g5zqlrmu6NgL+K7Rdq9R2u6WGaxVxX+i4Bp67hZ7rgdxw9isAMhwr6MqDilsZrrjlQs2t9Zfc6mDJbQyX3cqghviaqyCPkSPOmPdhH5qG4czxZSVSgUjiAyGMiUX6PrSbhe/cfYrYw7Qy85Abg28K0QrlQz+nEbKsdO4dwwMii34TPPrFfA/CT2bBpzghsGgI3MfP0qJBofGcVwSwCukD2BPmH+EH/l3xxnbxhDNtkjlqzFmTH8tkxWfFTcs7K35mnzCDw1zmGsOW2ynvuf3KgdsvN91e8cDtlXFfbLoDkJkOCEsL+gvP62boI3SNhXC3VxKYMshACWILluuCquCEHmoyroawiufVYR2Epuau9Vfd1f6KuzZYcavduisOUd7+0X9/Px33W34WRtMIQLrMcfqQlTcdl34O7WXFT/uusExIm5WH+VhvIEbcxbdarYb38gqSvx3pn02PWc9CYNEQuL9fokVDQ+M5dwjgh740GPR+olgs/0Cj0cDyav473f9bPT158DkmNkcNNmsSsZqnmAQy8x8jb1Z/WOcQY6LZoDFouq3SttuugrxUm0ZeGqWW23MN6C8dkJYu/uvjDgINyMjQFq2U7b7gqviTBIZGI1IX3hfszmsbZkyyOI7R/zCQ4BRcHXlXQGwuD+ru2c6Ge6y37pZ7NaSxxPgnJI23VTfHddJyc1R97Cyz+pKVFsdNSzchh6hmEL+jvjNZ6fGg2KYFRFZAYqK9Y34aUX8WaUG4OjYWKiAEzgMCIjHn4S2pj1MRgPLyEfwr9B9DnXgcS05H5yOlJ5T089QKk4Rpk0c6Plga0vGsJh3nZxP8Oee0MuwNXROKy67bd9vlXbe9tO8OKjAXwUREs1HDiEsHussA5AX+LyAbvURhIYGhrkKyQqriHVzCiqFAV9gV/oeyMEmRKBlh6uHAQX5iciyV4S+DUC5hggQR4p9Uap4ErXmivequIywPoABgTANWa3P18X5Wjpv/qHd3v+nT+pMVH8dNS7fvQVBNpnQu/q4c+t5MIcKsKrRJxKnG1Gq1QJbeQtQfRfqnpzSpaCGwEAjIJ2YhXmM+B4Efe6gwgz+NcBWrNBJl/fAEmjW5TEMscn+YyJKeWJgY4rLmmKz80xScdF/6IBFNqC7bxV23VQOFWWq4RrllPi+tYRvkBZ+gKy2oLgNQlAFIBUnLwHSTCigLNRIaiUBALIa+L6AyMAWVSKDoF0OHX5ToF+FPQx+aPoxQ/aZrdVqutd90vVbbtVsd1+30XB9HT9kCmH7R1ZZBWjbW3ZcvbriLmxfd87Vr7vnBprvRWnOrnaoNhWM/Huae1R2nTBqzh/F81Liy0kOcfR+mkLv0d4U4pOOmjW9UP18PXlJ/0AeZsZ/1GwjfifTPob72tPKKFwLnHYHDv/jnfUTqf24QgPryh+AL89MgME/SFyaQiay5YtYEGSaMaZNH1oQybxxfRlberJdEJWSvve/uVrbcbu3ANaogF1BeqLjsFxISYyajQuLnQumDZqIl00guwW/lAkw+G7061BE47PahxvRJZEBpMIeWhjAeESTjDJ449EGE+F8XNbaLUHVAkvaLIE2gTPsIu409t3uw4/Ya+27vYN/d295yW7dh0rpzgM3WBm7p2oa7/u6n3Hvf/YL76KUPuPd3H3Pr3RVXAGmylVBZLyNr8Om4I5SLdPbTfp7W76z4dFz6mX3Likv3Of09Cc/+dfn3lS4TP7MNr8bQN8bUtm0EqjH/76xyShMC5xkBkZjz/PZy3Hf8wFOF+Wn8QH83ViTZIY/hiv/Ryx92poVJJL4f558+QWRNLKHONPzpvEzPikuX6/ehvHQb7q7bcTu1HbdfgyJS6rgmVhQ1YDpqFGg86kJ/wUokMw7RVFR3m4MNd2NwwV3vrrmLnWW33IefCsgDfV9KWE7EfmKVtV0cIY1Jfol1IBhJQvLBPFySTX2nD1LTKXRBnkBo4HfTBKE6QC+22ttur7XndkBubr5z2736hVfcW2+84xp7Dbd8ed295/0vuD/8wsfcNyx/2F1dvYaa0OIxlRnfY//nPJN/nP+07o9qN07PyjtvXNzf9HclPJvP0vSv6KgK8kWSl2qVG+BVQvz/ihvun9Q9LWxUjxA4SwiIxJylt6G+zI0AfuA/CBLzcwjP8oykUDCeMI1sIIGJcXyIYxmbGyIClO5AemLx2Q/PKPPmm6gf1XCl0d3+lrtb3Xb/P3tvGmRZcp2HZb2ttq7qdRbM3rOBg41YhgRpcDHCNEkxaFKiwwhLVFBm2JJDv6yQ/MNh2Qw79McOR9hhOcKWl5BtMSTZgmxZpGUuJkMUSXAxQQADDDBYBgPMPj291/7W8ndO5rl57rl573uvunv6VVfenjf3ZubZ8uSre76X6y7ACy2P7ncxD6YdlkpjldEe95RMAFsIuGy6B0fn3WPDC+7+wYbrjtHPQoCFaqnqIXWXPE4n6inBVvyj/UTeIRYaoqD+H7Jtt02roNBLg1VQexiC2h7tupsHW+71V95w3/jSS+7N77zltq9tu48+9H73Cz/28+4HPvwDbm11nWXQlQru1uc2fRQeK+Oo6TrdOt93NpVfpVU+ApXTrdBtVPespZTby/uXe2NopRKWXePawod6Y353uvZMkT1w/Dwww5/V8atUtvje9gBe3MuYxPtLWInx13d3d1eotvplnnqxa49IT40OEtZjNoDoYF+WNRugsfIn6H25Odh2V9o0dLTl93IBeKGel50OBnMIzKAbhXpfTh9uusdHD7jH+ve5+4abbh3DRX7jFkhl7FK1Qesj24XG+ob4uYemobeKXxKQMQEN9Rqhj4bto2GnHSzz3sXz/uTA3Rhtu3evvuu+++1X3de/+HV37Tvvuk89/Qn38z/2592Hn/1IqTOhGuSth6rpo/BUpcyfk9I7C3CxfDZdZ4ltT/tdFD5LJ/LpTsut6UiCcP1T3P888vfrdOb87IHj6oEMYo5ry51gu/Hyfgo9GL8e7vwd1i90GywoLUHavvhTbkzRzJI3Kzii3pfLw2vu+ioWR2Nvl70WwAum6e718OkAHAAUDNDzsoa9Wj44uOieOHjInRlhkfMEEzYxPETrkHTAStlG9ZJ6+zqSD8LYUqg0lZdpojesD7U8Aj00f2eMoSdMA8YeNTTxeB+DYQA0mJBM82ku37zmvv3Nl91X/ugrrntz4v7iD3/G/cQP/oRbXz/FYEiulJ5oRfrpKDxpSbPlCohLUWtbrF2lMu/AlIhknm7TWZ5FiOik3pgVrFQKvTG0e+8vouxXk8pyZvbAMfZABjHHuPFOqunDw/F/0Jq4X8JJ1av0gpeXvA0i+sVuAz3R2jyhrwsa2t8p3lSelkmxe/dgx11x17FcesvvrNsl0IIN6rC77m4Xm9gBwKwfrrqnho+69+8/7s4M1nlCLl0U/G1gFDhAun2duNMkXPTAMypKQ2o23eSLOp8W9SK7sO39/qTvtjHUtINN97AQ3O0e7rmtET79m+7rX/2m++bnv+4+dvZ73F/49Gfck489w3NlyDa6pukQXfqueaTuKbq6PPFBXbnNr7Ox1B7R8cxueZrAkNZnv0fspQD8pn03RSfdCcS0O8UC1H8IKX8J+XlujG3cnD7WHsgg5lg338kzHi/xsxhK+nX0BDyPHo2Wf7c3B0N6odvAUOc5LY9o6vhS+ak80TMejd0WDR+1rmPy7o7rd4botdjBcMyB28Xw0Q56YOhX88Oj+92H9p5y7xtc8Ct8BLgQWPNQpAiONniLfl9fD2YkAIoPJMhpXisn+ma2eRxe5pIbjgZud7zHuwfzUNMEc2YmAGfom7l884p74U++7FYuOfdzz/+0+6GP/wgjK21zXZvU5Utd6spvd35Kn86z5dPS0+zT3yd5tt8xmyaZorcLANNbLlYqvY2in0BZ3sV3muNz+bHyQN4n5lg1VzYWHvg3MJ/kudF4BADjwcs0r8xCNwsN6UnRpfI0LZ00/Pb+u+4aJu/2ezjHCPNHdrEnyw73vmD4BT0wD0zOuY9sP+0e7j/oepisS4c20lUEQvqVr36NUz59SLfctR88ucjwdvPcF2+YJuVnqYPo8z0V/v+pciuAhqq6WBGz2d50q6NVnMOEycnY52a9s4bJvztudaPnLvyrF9yrr7/m/ulXf8NduvGO+6kf/Cm3gkm/hXyqkxXckLZ+t6AhxSr+SpVNy2NeIlI9LlpeRTa1Vw3tNF22vKmtLa34BWCfNyvsdMjqpQfxv8+g7CXIopMo8pU9cE94YJ53xj1R4VyJ4+sBvIBXAAg+i71hfhJHDHSOEsRStbdyhCaVb/NsWsunsgGtPhpcc5d717Fk2s8Xof1XdjAXZmvtwC0hwHyw/5R7bu9JnE20hiBJQCMOkZXtjaCC8jV40UEuVUfKI3t0oBceATYRwFCwrr4aJID7PqFqeWFT0LU/whwfLNG+uYS9ZgBk9jDERL0z1/dvuu9+63X32P559zPf91Pu3Jn7wqCXt3wWMFJXxyZeqb/1Q52sunyroyldKfNOqhNdydffL3lO5VUYQwZN7l2OvTHfRfaPwKbX6+hzfvbAcfOAH2w/blZne0+kBzB89BGAmO/FnQ7+4cv3NYTnRM8MBREbSGZxXgqc2Dyb1nKprD/ou0v9d90VbF63TwczYmhla7yNHchwhEBvx220Vt2ndj/qPr71AQCY0CNRqpHqiYFwf3xA1JIKxmIT1Xla0CtoSbbqMSATdN3omT9BdQrgcJHoDD0Wa50Vd8addudHZ9251ml3prWJ1Ka7b/mce+4Dz7itR0buV7/ya+7a9Xex9018FYk+7c9Znwtbw3fByqK0rivXM/G9adKnfUN0Nt3I21SYKDvKd1fEUJNSLyCthAvX47j/2YSanJU9cGw9kP45dWyrkw2/Vz2AQNHFPJh/H70wv6SXVev6HuWFnwpANs+mSWcqT9uys7fr3h1dwfLpbZ7Au32IQxux6+7NDvphVvbdk+3H3cd2n3NnsGTaXiKb7kWd6C9VIzYkNVARGTrPBmtLn0qLHLGhyae2LKWP5E0w1LSHXpnt8RavZLo5wB09MrSJ343dG653reV+5MFPukfupxgbLyu/VHgHE7PqtXQ6PU/ZtKro75r+bhCf/R7qtNjQQ29Mj1YqeaD6RbB9Gs83p+nN5dkDx8EDuSfmOLRStpE88D6AmJ8ajTBhBJd9edugMYvLrIyU3FlotC6i3z/AEuPxFUzgxZJj7PRCPTA38XSjDUCDnW+/Z+kp9wPbH3Vn+puxt0QJkbr4u0cuJJc+up42re0nOuYJvpJ0k19Eh9Q58sRemHn4hbaFXWRPYW7MufZZ3qzvTAcf9Mps4piEc6vn3OS+lvujrS+6d66/WRIv9jTpvBNls+oVP6VsOGpZStat5o24N8ZvNghZ78fnp25VZubPHlgUD2QQsygtke1o9AC6xT/Rarc/iiGadlOAaBSiClMyUnlWXhMNlfUHA/du/wqfOk2Td3eH2KIfq5CuY5LrqDt2n3DPuU/ufASTX5eLybvExx0tYVijrMN3ltIQThnAeMvSPArkBZm2HpSOesodsjKyxHYxGKKhrHhRHtuSkK1tLOkE+XJ32Z3tnHHnl867050NTALGx625M93TDicnuD/e/ZK7tPN2ZTZOk89T9bpdeaR3Lt0Jf4gtc8mZoQK1fla8+rtBw0rhWsP9X0dZMSQ7g7pMkj2wsB7IIGZhmyYbJh7AC7eHXph/7XAyQeQ3YyogmuWFrr2ZCiipvHlbgDaxu9LHJnbdbey2i+MCMJF1GxNbt1rbrtVtuecnH3QfxhBSGwczSt+G2E6bx6UuCaQxIHmqpZaHFZJvfSBARPmwJL6gZzG2hyeSkl1liOPBD7dCUFJtkchvmwu7LLvN3oY7e3jGbQDEbLRPufUJrWZaxWZ/I/elg6+5reFWUmepAguYaPLDnTLXtrvVI98fnhsTv2OfBN2zljansweOowcyiDmOrXbCbN7a2noccfZfwUnVlRVJ5Ip5AEiKti5P50swqHP9EMtZ3z246q62r/EutjSBdwcghg51nHQP3Q8fftx9oP8MH8hIsiT4WBAigVDrJtpI78EOAF2dKZyvwUMquBbyVWEqIFIekUj9I1+Y7EuKlDLrs1SHTafVdmeWN939rXPudBtgpgswQx+AmRvYS+dPd7+MZdnbhK1Kl5bdWPnbXCh1T4m1Ntn6p3goz/LV0VG+b5fQI6fQaaq9UnJI1xjfFxpSCnofBt2nU7Q5L3vguHkgg5jj1mIn0N7V1dUfH03G9+OXpO0UYG/M8zKfxX3zBBgOEKOJu7F3011fuo4eGJw6jTkwe4f76IHZcZ1e232/+7B7vP8oB2UBJMTHAMF2VSAtZdpWSye8UncqtzQFP5VZRIBCTZ/i1xhC7MbEaiXW10HbQIVWbgmNECADDW2Lv95bd2eXsF6pteFOtdfdqaV1t+5W3aXdq+7LO19zfRxhYK/aOlrCO5Cu013JrwF1GuzNa57tWSvzJ/8sSiTUC0O9McFWYvhpPJ+f145Mnz2waB7IIGbRWiTbU/IAXrRdfH4SQe+WNmasBBpooViTyrdNUEdD+fTZ7m+5a62bADB+x1o6B4mWUY86mAPT+hCOEHiiEKl1Em8VgFFeCgj4vAL4JHg50KkASkoJiDAAkQGaUJ6sk+L1PN7sQifJQzBkXiXHyrJ1KoVYxccTfgFkznXOAsQAyHQAYlprbmXSc2/tXHIv7X4TPQjVXfLF74VTF+BB+8B0IBXW2Xzrt1mrUfHvdAzDoic4SVzp/FFkPTerzkyXPbCoHrilwLColcp23VMeeB6/Ij+IF3fthF7/YqYhl3K9pweJGFY42ONjeWzaenavv++ujK9j+fQWel+wEy9IRuIDAAAgAElEQVSd5ozN3cbLADCHH3TPDi8ygOC5JQQmuPfFABIllPT53o7Ys0J5ErjEHrFXWIvAZnxQARDKSQJOIq+n9vaRvSS9vN8M14H9RGWx10jbyFxcT+9fa6sAIKLpoEdmA/0vrAr0Y/qgx2AHo2Uvb72K+UMt9+EzHyrm3xDZ3bykToXPaoyxbabbT/Nav9WI42zt0ya6ujI6gZx826I2bAEt+gm+fwC5zWOTdQJzfvbAAngg98QsQCNkE+o9MJpMfhSrkh7AFuomPEceDqyJ0qZAI8FIpPjAHEFNvUW+hPhpM7vrQ/S5YA+YvckAgRcTefHvoH3gPtR6xr3/8Em3dOiDuQzD6CCYCogSqCS4MQAIlbN3sdHWRdtO/FTOn/Csy1mfySd13g5P2eTHkq4AWnQePUudJF/XifIYyHRPYUO8M24TvTGr+KxgDrfDgpqXd151b/exYgl+tFdTvS3t7U7Pq1vTz8t7VNuLdg/tQgeI8gTf2E4/Ddmnjyo/82UPLIIHMohZhFbINiQ9gJdwbzIaPY/NunpNL/66AFHHk8qfNY8M5aA/OcQqGuy+iz3DaBipz70wOEoAn4da97kPHD7rWljFStBBgwB5lgDD8lTw10CF8quhW3pBIjjRzrP1IP4U+CnZpGi0LG0rPdOHepS8Dg/4tBxrh/BQPj3XQUSS12633OYKAZmzWHqN+THdNZzmvc4TUr9645tum1csVb0R/VgnXVt1e5+tr216Vm1H4jOova4dxAbRwUNKcVL4Yyj/oVntzHTZA4vogQxiFrFVsk3igcfx8Jw+ZmBW1xwpMMwu3O3099wN9MAcHGIzuzFObcYkVOwMg/1PTrnnWx9x3QkOcQxhWwItB3ICJqZnRattslvK5K4Dl+iwsnTniOanfOZhhjIASAVEXYc6NwnE0HUo2aWN0UKCP9pYtbS5fAo+PM1zZVa7K271cNVdxVlL39j6phuNB3WqkV8FOA3Ed65I1VH74bYrPCJmmwB8jyOQ6cGun7nttmWB2QPvoQcyiHkPnZ1VzecBdH1/AKfwPjYYDjhC1cVAX1aen1GnyQYWigWVPArudcrAQBvaXcehjrsEYiZYjTQaYEv9HdfDKc6fXP6Y2zzccOivKM3jEABTCupBt+SJTpu2dZEf4dpG3esh9D6vzO0Bih9+43IujgCAZMbelshbp6sAPKqnRfKsD1PgSGun8l6n584vn8XS69NuvQsg0+q5ZfRovbb7pntl5zslW3XNrK5yre9cyuq13yddXvdM1lk50yyW70DFp1KQECBtS+2r9oz5YeRj6Vy+sgeOpwcyiDme7XbPW40X6zJAzCfx67xLQzf+Jd8ALoJHmoJBsqwOrNR4mIY3bqJngDax2xv33f4Yu8LgDKBBZ+A+vPyse8g9wP0aGnWRXtFNQaewg0CE+ZBayaMJmHRF3lhmzZM+FaEXnRLkdLCTOCcBV+RrG8UG0aP5NR39sm+6SFcqrmqfWP6V3rI70zuNAzKpNwbzY9prmMuB+TE3v+u2Dq4nh5W0n6y8O56e8ztUa8+tyqHvUq3wWMAgJuqiPWN+ZAa2TJI9sJAeyCBmIZslGwUPbOJl+0O0wZ31RgECbEFD+ig8KXG0GmkHhxjShnb7o33M1djBxnY77oHOBffU4ePusNjd3XOn9BaAQAWtFJ3AgwggPABK0RJyovwyWCmvLCKLhJdpVQWFV/gprfVYnbE8WJmoC8ny2aRJf7xiX14FQRSKTy1j6XUXS69pom9rhZde78DfL2+/4kaYRF13Wbvr6G5nfrUG5Z6VOj9WfKraZyb7UuhwBkY61ZrmxYTemFNg+dEZ2DJJ9sBCeiCDmIVslmzU3nDviVa79SGaD2Nf9rfDO3XBrkkXDp90OwAsO61dDCMBxDjsC4P/r3VX3ce6H3C9Q6yoafmQJvKlR0ODC7K/0M9gIT2jw9qihgBKYEX7o6DhAOeBCMlh/SHoiVy5i41ajra34A8EtXUJ9eL66WeuI63i5dxCjZUrBdSrRL1QNNH3bPcM9pBZw5BSF/OMOu4722+4N/BZtMu2lbVPl9c9W56p6eBKaY9ZemFIJq9SwrwY9X36GGy6f6q+TJA9sIAeyCBmARslm+QcQtbz7aX2Sio42CA6zV8pGSmeJjoa0tof4kBHDCP1MQfmAJNMDzCZd9Qeufd3H3fn8e9wyQMSHZxFJt31L/aiDjQEgOgjQV9orAxJC5+WpetSDCgEcCRlbAfneU4GLqFQ20hZRTqUF0FSgSDmDx8iq7RJ0CP6yzJiuBVdmk7k9ro9HE+AYSWctbRMQMatuOFgjEm+r7g9HE/QdLG/VX2baO92mfWBTYt9xqXFMF0dfVO9CMB4YMlUz+DzRBN9LsseWFQPZBCzqC1zgu3CS5mi3A8PR0ParbfiiXmCU4q/IhAZCTUlMtjitgc7WEa9z/Ng9gBodoZ7WBJ82j3dfaoImFqfDez6lzLRSXmJh20JQAMwg+mswYx6CrhT0DOZIS7ZoEAH6wighGgqdqNc5uSIem2zNon5SxDNGhzTXk952MtSE43Ys4r5MWeX0RuzvIb9Y5bdanvF3TzYcd/dfo28Y1mTaV03XZcUsejWNqToUnlWj01rnqYyokuXp+trv2cp26xMmsvEc2P86da0V8wH6/hyfvbAInsgg5hFbp2Ta9tpvMS/Fy/Zdp0LZn1xp/jnCRDET/T7QwwftQ7cAPMxDkYAMTgb6bBz6D7YexZDHRhGCpf0Iui0POvAyPZz50gc6il4A7gogIEGH7THRwFgSLLvESkM8EKLpOj0+srgQfxQ2AAu/wvdAxwuV6CIHjUPKZG0nlJKuvQZS96YcgAu+EJdxWDJlzTJouXWp3ubbo03wltxOCDcfWfrDXdt7xrVvqhr04OVq22nMvlYGU1llnZaWtswy/dX607ZP01fqtzL8fVlIMPDfHx9CmUrKZ6clz2wyB7IIGaRW+eE2razs/MxrAK6gNVJs0Wo4CeKuRLfm4KSdeu0AIHJxW5rhLkw2Mhub4RZMNQTg39Prz7uHuo+WPRCpAKTyKa7lBfBCZyUx2Uwiu4EImylS3UxQV/qUtSBOrEMjeggWl3X1DPREntRF/Kp+Bd3sa1kU9WhJT1ef1m3ZdFp68dlLF0/08WwEubIUE/MMj67B3vu29vfgW2z75hf+F2BQO2DJpus7+porV+q8r03Of+IdtTpLvIT3xENIb3q0BPDw0pc+mP4nJsqOxNkDyyYBzKIWbAGyebwCcefwByUUzaYTfOND771wVLFjGmiuJxe7vRrlXphqOdleDhELww+2Bum3eq4i51HXRcTTotApYOS0iDlOqB5sBAAjAo6us6W3hqdLFcIiB8TlRYdSziAMXVJkJOyQiQVMMgpz4cp6EI9JGASnwcwHqzVtWfCxAiiSDjkrq2sutPdTYCYVaxWWnZLOND8re133HX0xrQqsC9Vq9uTRz6Xz6wSdTvpumpgQbI03Syy6+gtCGZZxslchwBgaBdfXLR7L82NyVf2wLHyQPotdqyqkI29lzyAl+tSp9P5SLfbwXyYWDP7wi4HhjiHwtKJBJ9vw0az5yjojgBadgFg+i3sCYMlvgOsSqJ1SQ/1LrgLrQs4sNAf7EiS1N4bOOvH21QK3KpCZInYygEllBXDOdY0RSNFdaCgYCWw0Sr/iZd5vD8k6EVw48FVxVuQp221vqa0lh/rGPmEn+iiPlvZakDvYDffDQwrrffWsCEe5sZgaGlvOHSvYxO8MR2ydBcuW39tQrWs9GW+C9ZWVXJb0B5Mfq8f+hr8S1WqnJM9sNgeyCBmsdvnxFmHoaT7MIx0ERXHdzMG92kBe1p5nSMrgVoR0kv+YEjnIvXdEHNhRocjHPTYx4mFLfd070kYCBMTP3s5gKkgXRAFEMAqBNAYA+rqwVOdFb8OkvIsoEGAgty9Oq9I50lVrQ8K2cHGlE0pOSSPgJzQRxvLGqaVi132voJjCDbQG7O+vIoN8LpY0t5xr958Axvg3bSkC5eW5ua2UNbpduQyTXiHa0FtRXNilM4fuMMqs/jsgdvugQxibrtLs8Bb8cDKyspzeKk+hFOr+buZCqAiXwfSuqBKtHWBgfMbgsYhVm4c4GDHPdoRZjJ0fXwO0CvzcPc+92DnfvTCxB4AkkW2ii59V0tZq65JgCBbbyYhFGN0SN0KH6Fc11WeqVz7MVVlbbumZ7/GeROF/ZZGCshWrbfIhw0E5sSOsp/KTrA+FBl8thJOuz4FILOGnXzX0DOze7DvXr3+WmM7FkbfgQf2T8qhyg/T1Fb5LaycJuHo5X5yb1EH2i/m/NGlZc7sgffeAxnEvPc+zxobPADw8iyGVM7TpF4JEE2BokFUY1E1cJTJqXwwHrn9wz3eIZYADDbg40m8zyxfxHARZmJwYPaXBgFWsaUTtpQNOsgXzyww9KQofZSnw78GFlon0ykgI/oZVpg6JOUF3rLMWG9b37reKaWqYLEyfdpbUS7zE45pyfUmhpJWsIdMt912HXxe230LB3JuVcxYtAzd3qm2F3trMFGpOkeFOSTb/l0RyA4b352Bko8umt+yPdkDTR7IIKbJO7nsbnjgybW1NV7qaQPse2oMXva0lPoAQ0gDrIDpD3BaNebDnMMOsudafhGHBKJ5QZYPUnEZcok/RDCqO+VXgrwMRnAPADsJ/yNo5YNTyWfBYTpwaR+meCRvpjoFVFJtp9gjVegzCMbWS/sS3Fzvsg0+bGPSN/aMOQUQs+46tCXi0rLb2tt1b+68WdnX5r38voj9VZ1Hgxv18lSjVpXNkBPt8f6lIwiKnpg1CPjEDEIySfbAwnggg5iFaYpsCF6qPQSpJ+AJPmpAv8invtQT7rMyhGQWWSP0wtABjwc4ZuAAq5MOlg4AZcbuyeXHXA+Bk5b2SiCmu3xIh+RrPeUBE489SuUS5MNdynQdvFzuP2EBUQ+yAvjRfB7glB1TCanBz8wXZGiAkbKjkBjotQbJYn8oX+j6E+QiuVqPPNNdbEyVk64VnHRNvTF0ptIKTrkmhu9cf8P1sQGh11qu891MWRfpNq97Fnt125d8fMQKWVtIDOXxpne0/xD+7vD52BHFZ7bsgbvigQxi7orbs9IaD5zu9/uPyFBSDc0dz6bg0acJvViHNECEHAzptOoB5mH03IXueQ6UNiBIwJFgrQMwGUyTKH1/iTc/BA0f6Emi6qmwz7JxXAx6PsxL2gIk1qDk+WTQYQ0PdL4/xwMwARitlueRdCroWltZXNBBVmoeX3OCYEmLudjSi/yirlCA1Ws4GHKNl1332hhWwnL363s33dV9LLc29Rad78WdbLT2p+qU8mOKTmwW+kK+aUPbpLauBXBNuJ3mO1F78d1fj0PPqpWR09kDi+qBDGIWtWVOoF1bW1tnEKDul0m91gWpAGFpJD0PrZbBfPj06WykpaEb8jlJfaQP3JnOaRxGeIrBiAUphQzqSQhBge+hgOh18C6CM5UjuFTsrQEhlo7TJDvoZXGsy1+anp5FrwYH/Cx2KxrviiqP6KC7gLGgjm9iiwAjyrN2a3r7LPzaf5qGfLraW3UbHZyphB18l7F3zHA0cpe238Vka2znu4gXOXOGq85PdfleZLNs+S4kMAx/PxlgR/seRNZDM5iaSbIHFsIDGcQsRDNkI8gDADCnERQvAMSk3rczOan5ZT+TCOwNM8ay6gNM6AWIAZgZYIk15vG6BzoPuM5SJwk6GDhYIKHAhICGlAURXMR5IOQALY/rFQKNriMFIV/m6Um+5JXoDC/RkHx9PICuQ4pXykkH24dP9XgBKg2XqT9hJX+FBwmcwXdUJn4SXfaLwL4CXRe9MevojaGl1jTJt4WVS2/tvON2+7ui5K7dU9/BJpiRor8TxtfhKNJP//ymd4cXoPvhO6E/y8weuBMeyCDmTng1yzyqBx7CEuuV1K/7eQTWBYUi4E8RRqdU9zGQROck9TE3po+l1OtLPfe+3v2lHgV++Zcig09zIKb/YtQu6IRelxEQ8ME59nqI7JKOIE/zcpBHfuzzQZoCvaIVnaxDbAq22zqU61OtQyFL9Kr6F7xBj5Xl4Qcx+pAugV2ACtkm9lhe5tL2g3Z1GXNiMMG31+4AzKy4q7s3cJ7S1ZLfiW8xr3pYk6p7XR3moRW/W1lkCS21JvCOFt/A/2j33nxlDxwLD2QQcyya6d43Ei9jxLClJ3E/0ndSgl+jp0qAo0rpZThsbIc9YdzQDQjMYEXS6HDgzi+fc+utdWbygaM8ZCO8DEiYRujKQEBAhMgQKzg/RHMNQOiZPxVzfRC0ZUJP5PTMdgXQIPhFRFGZyPX2BFuDn0p5Vn+QrQOj9wHssoqCz9S8i0Ia6yAbpW0SvFIXbQKRLWOC73pn1S238MGw0gjzOt7eehsB+e4PKRX1UUbrvClfxegP6/cjpFNwSdqK72FejPrx8OgR1GSW7IG74oEjBYy7YmlWeq97oIOX6KPj8aTxO1kESuMNCfxHdZIEmAk2uNvD/BfqhRnh3wRzLMZYifQ+DCXJ5WnTwZppGDgU1MVT1UZPJXWiX8PlQBekQB7tDE9lEXREcGR5aN8P7acWzkjy6WCKiqA2wLGsAJwKwxMPEZB4kEUk1fp5xiJfAxTSEXjIBgFcXL9AZ+slZog8AoxrADG0WmkZvTFtDPW9tX3ZHQz2hPTY3HVdj2q0yLBtSt/HpotKmSLQAdPQjwlabp2v7IGF90BjwFh467OB95IHenhxPoFx+VbxMm54+fqg7IO+PDc5Y9YgMcZheCP0woypJwanV+9gTkwbnUPne+cKgCFBlGTSs06Lnthz4ntDyLY6G4S/DgT4rfx97fT5TCJT2wAEAHv8nzXlS89QSTbyUz5O1cP6tGIrfGDrZWWznyCo1JtEfCw8BliSXdDOAKQInK3QkBIBmS7OU8LBkDcHu+7a/nWrzVZj7jTZlfo0CbJ+4dqq77TIExmW3pZrXU1lAkaabKvIomXWwTZgQzoIkja+y1f2wMJ7IIOYhW+iE2MgNl9tP0wrkySYUc3ti/2OegPxdAQQM0Dvy2h8yMNKI2x4R6uSevhHfQc2eBT2haBbB0TEbqHXwCPWkQBINdCFjgkWofm8TD0ZmGCCD7baDs4NQEJkaFmiX9vmZYuGEvzQRUWvSYlewEgwnG3RlQCxz6K5PF62+LXOfzqf68ICDrkXZg1nKtFwEh0MOR5ildLWu1R0267YPlWRYne1xOekeFN5wp8qs3k2Xae7Lj/lGg8pDx22NyC2J/DZrOPP+dkDi+SBDGIWqTVOsC04+HEZh9G9Dy7g4wZu5zWrPHqRDw8BXLC0ekCrkjC34gDzYR5cuYBdwGgfsHjpoMpzCdQvdaJinRy7w5wWE9gLGiXTDwP5DJHve1XwZxpAAMmV+tBdsIEP6qzYB3ivICyBDj1GMl8HZdRDU+jg3psILMhwXxYARjGnJvbgKLOLR+2T4hkirP+pjMAL228ESf0sTzq95Og8pdX2Gt/ppOsWes3e2b2M9jtImThzXp0dMwuYg9DWLcU6zZ5ZZBRyE39flEWfMSay46Jl1hnEpBoi5y2cBzKIWbgmOZkGdbvdMwid67TRnfXAXC9owzwPL9GOAFwGOKl6hM3uxuiJWcLBi2fapzHfoh2DviCHoCsCjhjkKc/23MhyZA7iGmwYOYQZot0E6HyESfFIXkEfZFM6QkGZE+NBA5eFD6tGt4UEMQJksXplwCQ6om1lZ+vygoawnPZXeKZGLuUrUbPmkw6i5XOUMB+GQEwHc2O2Dnaw1Hqb/X/Uq86GOnl1PiH6prI6eUfNp3Y88gVmmpeFaxmfOAnsyAIzY/bAnfdABjF33sdZwwwewFDSA5iDQi/PW76mBVurQOgpgPfR8zIeTXhS7wFAzGYPpya311Vg99zEE/VEiQJQbOAq08feEh0sC57QgyNShYZlI5MCVSkvBHPhpzLpafF0h0jHgM4AouSEmJLl3iSLeLV9wqJ7cawvUzwii2mV35p4C70aAFmGkO5hPswpnG7dAdDsYt+Yg1HfXdm/WqpzDWslO7bp/GjAtnlFuMpootXflSYZUlaW1Wy31Su6aKK22fTuiVl0Z5rsgbvtgQxi7nYLZP3sgYODg/vb7d7RfzorP3Kwn/EnqaYbYz+YEc2Hweqe4XCCM5P23Gns0Etb22MARoEWHyhEj6wGIhMkiGsbdF4KFIjp0lNjg5i2UXowKE/L0mnLT/K1O0iGTOJM2alcyY9iv+gQ+bpeQud1kW1eityFl9J1PijVU/gb2lHk0EnWPfTGLGMX32WcpTQeHWLPmOszfwdsfbUdtmxauo63Ll/kpcpTeVb/NJpp5SJPvg9CD0D/BJ7LY6hWeU5nDyyABzKIWYBGyCag/3p5+f6lpfrl1bO+jMmXs9ISnQ6oNKl3vIRjHgFmMCPGjVoTt4GemBU68BFlWq7w0V33TOiN+oTe3j2vB0JapjyLbBoQojxbHwJNfJkyW5/CxqLfxSMD0kxl9LE8Oi34QWyw9JIv9pXxRtClOgbINylMInaW/w6CfeXMUO2y79pYpbSGowd6ra5rd7rcW3XzYAvzOwZU04SEmqyUcTWkTdm2veppm3tN6vmml9iqWJuk7UqSiIm+UzTHyzman5ZBzHRXZ4q77IEMYu5yA2T13gPD4fA+vFgbv48xWEoQK3sv+WKe4mAtk5ZX08okOmqA9oehzVnWO6cwabTDgVEHW+ZT8VEHicIOlFubxRwfL6pBjIALXcyH/1JDNwUASdSN+KS80AVB3vayvmKvFwVohMfL8HaIzChPgSBlA7nD6q7awJWrADOis/4tfGp6b6THqlCN8m63g6MIuug162JuTMfd3N92ezjVetYDIbnNVF1u9VF/HwofUJuqy34Hiu9NiSYCWf1dStOWpM9XBRhDvTH0GQPEwMd0flIGMfN5MVPfBQ80Bo27YE9WeUI9gJfyaQSx0s/mVCAg9wgZUeuXuWGfy5MUXrA6iif2Uk/HAICGAuAp7AZLQdf+nmfbdExSptNjDOZlTm2viWlsr0xGFX4duKRCqQBmwUMRIIONfsJutEXo+Z7wFOmIfvYURTrQU7oEEkJ7UHGZH2As7F3DZaIvKE7VMZpEQsvtLPREI/WgIb9VOgySJvlicu/+4MDt9w+SdYuyj9+TrnvV+ipI0jRNvJHTn6EEWuqJwUFh+coeWGwPZBCz2O1zYqxDMKLNtVLxtOQD/SKWQCnBdR5n2Rc6pWl5NU/pxRkyQ4AZWlbdwxwLvsr4ioNnKZiCJKYlOhNjnB8i9kklabKt2F4OP6JSdCQAhQgL95IvGB15iWy2R1UFh6yaKntb2VIyptwkha+hI+XDAuiQToXSrK/Yf34lTLTL+pggXVAvYMVUu0jSkBIdzkmryag3ZoT9TnaGO/BCyrNWyiw0lmd62vqHOGbNmy69TKHlxud560Vt6s9RgowL29vbt2Wi/bx1yfTZA/N4IIOYebyVae+YBxCkTkN4ETHlRVz30qd8C15StLMaTEMrtLkdbfY1wpLjEYaUWgiKq+iJQVysXCldqUDLwVrFEuKjpNgucrA5jtchURvJqCMaUNQbdJxLd+LBJyyPLYVtlgrZsuqIkwysvF2sg3VHI704mS/jzfJi1NBGyNZzgJiGl2h7m3w9S1iGuUST+KCgJ98oZ5GdNq2dKfwkk+rXxoeWWBOgGY4nbgdLrWcDMYkGDvW75Ztu/BmFpb5bM7Imyay8OpMEVAb6lY2NjVNJgTkze2CBPJBBzAI1xkk2BTv10umKHE3sS7fOL0SnP3V0s+TzUBI+Y+zUO8K5SUNs+rWMIQo6IZmibimYQq8E3jrZVbt8YNfghWiKQFyAlwAwgmBN73VGAMQAJviLQBBgh3CV7GUaP1kz6isoPaggW/zE2xj2Kdg1tQWXid3iCAZHEXwQCV1FnmQIfSijpPWppOnOugQVBV5tG4GYXnuZ58MQ+ETS7WNOzCEmaTdd2tYmuqOWkcnWhzZNsm3erHZZOisnbbd8T2K7sJwAGoNMGko6m+bPudkDi+OBDGIWpy1OtCXoAVkrArrxxGwv5ltzH8dW9MBMaMdezIeh5y79sne02sUPCXG8NkHYBhGyQkKEDsr2UEYLTpgPsiVgk65SvQuQE+vJekI+B8tQRFkin+/4iC2iw7P6MnkueLjGXnSU44XrOvFz0FnIo4fgI6Et2xB3Clas/GjbWdJis9gifDpNzzQvhubDdLHkmq6tg203HKVPtJaAbW1YtLT1ibavqUzoIlyZoWYgJpn0AaCl2JBBzAxuyyR31wMZxNxd/2ft8ABemq1Op9PFXcfEwjc2eN0Jp1FQG6G3gn6307k79EzzYeQwRe4IoP8FQCABRAf1wq5AlwoyRC+BQuoluGiJjgUIvLaOjJ8CuJAyj6lib472k9Ytz3S3vpS8Mj2q6dulVCVKVG2P8EnKIrDyAZFlh0qmwIM0urWtSAtQCzKi38ohugP/tdAT0wWY6aBXZgenWdNE7TLUClXipkx+3azrb0ta+1f8aAVbGikXv5bbqFz3Opnid6srRW8kknMyiEk5LuctlAcyiFmo5jixxhCA6dbVXoJg3Uu+js/mC39KDveUAMLwkAr+0Qa3tHEaBboY63zQI37Kl+BCenQ8ZB7Oi0FS03uZOoCG8CEgQwVrbWsqGDctIWYNbH8YjlEOEayky8hcsbkU0IIMLy7KEz94yGNAAQkLQEH7wbYJpUkX+9IUSt3FU4VtBswI2xJ27KX5MG00Hk3KHozo6Ih0TwzrDXJSNr03ebbG023S3zlro/ZzVbKnbqyz+IPu/INivGF15HT2wKJ5IIOYRWuRE2jPJSzlxMu13fSCpZfytGA4zXVN/LQ3BiAM3t1+mTUFfxqeoNUuMVh7DVpOEVjVSpsi0ISgUARjBWpk/klpPAbirQ+0Lr1MWugsvfiA+BgchI50hAkAACAASURBVLkwlF+2m3RZfbGuGmIRofigqFtNexSgCjzWT5TmvOAHSRd0CpxIWSoYixtt3fnsJDrjCgCGhpT2x30MJw0FY037etzxcmtvHYaydLMYptuF6UObCS+XK0EpHVJOZdgvZgkz3TOImcX5meaueiCDmLvq/qycPNC+cqWFF2cRNysv5OCm1It3Hg9yUK+JHIcS9Kk/BoCEtq7v4h9dxKL55FmCLwdcmkkqF6XpmWSaYB5JQlmIHFF+CT6wbq1HfEN52qYKIKBBFIn2bIqXK/wMJMhO9fEmR/2yqZwn9fn0f+Ep6qvl68zwLDoL3aENirSRKfViMtNevt5VJWQrAyj0xNCWNEjhEE8c5gkgcycub2MKYs2nTbfhfJyRWsuw39WSzJrvfkGDcm4TZEwmOIi128UmSfnKHlhsD2QQs9jtcyKsa1+4gPhTDrp3pOJNL3GUTbCS5RCrk3hfNhw/QL/s6ZVubZNddPUv11Iw4kBQBiO6PsLHATkUCMgIWCOS0wQdMkf5R2iFSAd9eRY5PugHLXQT0ELMHPGiKvuk5aaWb7MdjIWqw1XWNm1z3XNJP2xj8RWHRF+UykDPy6zReC20G5UNMUF7lFiddDuAg6+zB7fzyEvR1uWl8uvaSPIT7iqBXcuv0/RVYJ3ke/wLKwabWHJZ9sBd90AGMXe9CbIBSzduLIXVEKUXbuolHgOr/9U4q/c8XxOwIHle2hh7jNB+MRIkJc6LbhnWSUkTGg0ixMaizBit62nrHPp0/C9kDuxRqzz7gMohiCWTDC2Hy6nAY46ChvmDuGi3qpU4xHOU2wZ57Af8I9nRBiYuLm1vkankVuobHVcWhJToSNaP64LOg7YHMsR8CABI7Xg7L9Ft7db51j6r3/Lacp1Oya2zgescfCsuTunSeURn7eVvEhVMJrknpqlxctlCeCCDmIVohpNtxDW8MRGgwqmG030hL2EJkKkXtZYSywWOlHXwCx8xkPpP0B/DWIC2yacA7f95en5GoKSPBMcmG2xwICk2qIs8KrP10GkPLTSA0QErDW40Pw21UJzXeSX5ATxIHtulhshEc2E/OS3wUBnxyfCT1FPqTzyFXHI0pb1Ly/4ISlI+Ev+Iv4QmmEBS/XASjt+i3jSamE06RmPMiSm0BaULeNNtcavmeVnp77qW7SkUnUc07C8e3KUurXxlDyy4BzKIWfAGOgnmbVLXxxEuHXDr2InGBsUKrY+rPI+CLgYyNIxjJ+tKJAdNSaZE0pBf1ecZq/m+N0PsseUSsLmeBCoiIWliGygEpfl8fhEcIcOLUZUI8kp6RIe9i36Wo+zBo/g46WsBOuFOMJEvkuEfoqYgq7BZShraUJqo+C6AhzYupEM7CbjRgYa3A8OQ/Ipd0fLb8nQr8lP2FS6GdSK7pEMTEE340EMYxczx4ba0bBZyJz2Qv6R30rtZ9kweePXChTECKeKNBLbIlnz5ziS15sWd4OWwjp+eAWowBZniF1t7mzjQc75Pi6WcxscCCcq34EDXhZ6FxpokfN4OL8fTk0VQR8vAxVfhbvUTyCmuoEvk0V10aD6pI90L+do4AiLh43t2KB0ITNMV9SddWoZ4OYCaCDCiALZJywv2VOvoZYut0oI8Z6nNrYU2LA8nJetVsu92JoxTlOg6O+rym6xq0FLL1qSHv2P4oLcxHwBZ68FcsCgeyCBmUVriBNvxic/i1EW8M+XFal+wEhBTLoo8sdTyp/gqefzm9uGgjXkVFBAnvFFa+SqCP5ObwBtIhUY4OSYHWrkTjd7jRefTs6Yvymh4R+QoXfTINAEYCD/dGZCgnIeGGIP4GnkaD4ZK+hL1kvpIbRkeqPp4Hb5UdGrAIW5iOcHugl+cpMANS1KO17qk/sImtjE51Y83vCOHUwb5q1AQbFaCY1Hjk+hvJEoUUr21by1JU5mlbUyLg0GUsrXkv0ZBLMBT4N5Ry/OnseXy7IG75YEMYu6W57PewgNLn1kaIBgNKEOCoHVP6uUsNL7MB/65XthKyRIFPvr1ToEHYxQU6rDIFEFf/4n4ACg6yoG6OiImAVbU2DSBDqmvlkXPWocNuxoMFEHcI6UCpFCybB9VzFsScIzFA1wYeaINBQ5QwZJoaWKvrpttI0pzXqgA0dNQj9S5YFYPXIa0lUUkbFswnmh0/diXNLakbPIHGkbvefqiNin1dywvVZ86ZeI35jE+1zyFf0OmrlkDW51azmcZ1G644Q+yfqfARim5MHvgvfNA7i5873ydNTV4AAGOgEwpwtQFu7r8BvFTi3jL+kPaKA09JPjQxEY61bqI/HiS4E/CODaDRmyRdKoHgegllGrbZZWTBDh/Jxf4+S5itHaKDtwRjCiKEL0Ke9huG8htXcJwWAheJXAQbPfyohzyS4VOO0iMLypRpbckIs/7IQK8KCLK8F4qSyB+gkCEZUgGLZkvWRx8Y/XWpdmrc/LUyWrKb/o+23rKd8XKq9rqvxN19JpfaIrvKFcbPTGd1u1d2mWNzunsgdvggdwTcxucmEXcugfw0tyTlyndUy/f4mXLwer2XhSreJ4HemRoTgXpkt1edXCNdnkLpIx5YBKBIF0PsVKCjAUUltbGTKHnAF3xiw87JTBBdUiAiaIOMMj6ttjUjnqjcPFkWH7U4EdqIvdYZm0uKLQdDTYJvW5f1h546C6fpOzCNAI5SLCfaIk8DS35YbSCZJ6HuorNI0PRWr9rMdPKqm0fuZk32KrptEx5tuUlGhZJ31T/3YbI3BNzxLbObO+dBzKIee98nTU1eADBZqd4ezbQFS/h2xxgKNjxP5530uJf8/uHBzz8IRcHVRVYtZlkl4+fPgBQmcx54bLAq4OI8EsgIRoBFDroEJ3IsMGcy4IgKkvJF366k41Cx+nA40VEsBBnrxRVZhKuBy5vn69XyPIiFLws6u0ZQnm4sV5hiT6Tesda6aeyiEjLBnFbDbHQjYesqD8NOmjzu3m/KnU+LGs/WqpksxHBZXMa2yTPWjgTbTCBaLHB4YGVkdPZA4vmgQxiFq1FTqg9CN43UPUYzRr8kArkDeQzFVHQbnPQa2NYyQf7/qhPL/IQsIOYGYOMDRgSGAUEkLQSDQV1ZamAGcointQkYOEvgAkTe3qtR4CX1ql9WPFnqGO0xwMXohOd3p7q60PPIaI6FAAnPBS6oEPKRI+UWd8lAzvze7vEbSynNeGJvbQuqQ39nXZXV19I7+q9Uj9lzUx/AKD3eKeeWpek9KXySk6BguFwuHdXHZWVZw/M4IHqW2gGpkySPXC7PYDlnDchs/JWTr1sU3m3bg/1pCDoYjIM7fFF+4wMaNt6zIuRXgnRS/dSAA1B3wMPCfjlytgALbIKOSSTHCAAItxJCuXpQO/r6uml3szHHy+DOIRPy60EfpIdPiRL6sb3ILxqU6CrNlfRDCJTqmH1al3RB57dpyNAobSvXvR75YsCa2kYjPTStkOjEY6NwCGQXZxEzroKyxb/QbeHtTaWVWsk7eQr7MtLeVZYIl18z1qYIdZu7yZIclb2wEJ5IIOYhWqOk2sMBm24Jyb10p0171a8Rzv0LiPgddrYJK2DCb4IhoPDPoCMPwVZQAjp8EE19tDQsl7Ji+HSB2EKCjqAixy567rpZ+KWYK75hYb1SYUJcCAtH7aR/tEQGfJpAjEvO8Yl/HQvAlbgZb5AJ6L9XYCZh3Osh+pMQ2+Vy0st2RJ6TKLNkYZ1So+KmtdNWbre0sNU+Eh4Cv00/EEnkPvTyCdLY/SqdVyvQ4d4QpigqYq9dycj9Z22lnAbmY+lobTQpJ6FXutL6U749bDb7dIQb76yBxbaA6m30EIbnI27Nz0wHg6vIgjxBBT9Upba1r14yy/wGKtS9E2eo2GQtusAxCy5XovOr24DwIzc7mQfQAB/JgiaViYHZQQZv3Q4HZhjf4IBECGokgwZOhJalhmCF4EiXUemZ70+yLNNyraSjUEHyRf6EjBAptSh8E2BjKK3eNGY6Ai6rU0kx8uOgEdsER2U9pvk+deOlMc7tz4rLuwifZwdDZM6UI5+xoGF6IXB3j4QT/NiAEe5R22ebpiS/9iSO3dpHx5Vy7z2Jpq3/L1mP9P3AjPDWi3qHc1X9sBCeyCDmIVunpNj3Nra2jt4IRezaEvBdkY34MWLKwbBGdmYjIIrDT9gq1fAF8AZAJn+cAggg7mN9GIPAV9kUp8EBRDqueAAHgp0YPZByhdwfehTyInwJmC3AiiwPF8ZCicsoEiDnwBO9E8EV2xPwZsAKMZGohUeCW7RKqkpay/s9vQKZKDU1zP2TBGH+IHqLEvJRV/ZTq0n6Ar8XBevvaivd0toD0VHNhJwGQF4jkZjN8Zntd3DgZD37i4ShY+tC2vSHp9EGCPtpsm5/UGCuWCH29vbGcTU+DJnL44HMohZnLY40Zbs7+9fggOKfSkaA2PCU0Ifg3uCqCGL+Dr41U5DSvRH0e2sYAvhgdvq7yA8lnthOBjzr1UK7l6oDSgxrcAERZEQmLUpYrOVQTQ02diXR3jhA7kABW8ADxeFAktPcthmjmLmEp6QLfXSfiQ+SXOVSU4pLwA5MUyrCHTC422JIEfrIfu1jfJczmPVhT1RFSaiYuhvCBBDS+PHhyO3trwKYNpj+lmupH8aGEks8dR9GlhLRZp/Gk8dreQTv28eX2mdX3xZg90pXdT+wV10DMiVFE3Oyx5YJA9kELNIrXGCbcHE3iuYSEi7y5WuUpBTJXUBR/L5Pmv0CnLbmNC7vNRz7U7PLdPRA5OW25nsYbOMkR9SAl0dGND59CwfCcwS8EhVCC9FbcTmgifoibTmyQRlD29ib5AAjBjwyoG/pCdYUfiZgATZqA6/FPjkaWLdtJxUe1TqE/zCPTukgz6hjaS9CjtQRs8CWKz8ks9CHQjETABeJjgQfQA8fGpl3bXRE0Mrle7INeX7Jf6fR3dss9izpfNSsqxvim+Y+Z4Ib5W+LJXbbTIZnz17NvfEpBye8xbKAxnELFRznFxj1u5f20Ltb+IFWnr12hfuLIGBaDgYhp4BLcPK0x4nENPBpN4O3TGctIShpRuDm46WWtMlQbcSnIMQCcBah+8goXksGLIKE4DlzjLF1vBMeT54Y/4Iz2Xx7pC8oIpvok+AUqFfyfLzbejXdQjkNvAqH/Ej1AnEEPBCuxfLZevI7aFtiaT8JPZbv7McZQvPO0pcwbxYV6NL9I/GtJJsTFv8uDF6Yw7xvNE9VYDPhOhSlrWvjp71hU8djc2fl17zT7PLlpfT8U/J0qVs5PYILJgQQyuT8sRe66icXjgPpN8cC2dmNuhe98Dw+nAwnEzeRtAtgZi6ehcBvIZAv7Q1bRMfdohxncMer2ihCaGrS8vuRv+6608GeLf72Sk6iNvgJDq1DqmMxGueBBzO9yE6H8w9INGy6bmYK4M6kuyU7RroWBpNX4AEQQVBJgUusVs6XzhNdME+6eMhewq/ooz1QQ5jH6mgag+xR9ulZbB9BUqJoKzpCyB1sr4YA7TQMBLPicEzAdFTK2s8FHivXimfT6trikfnCSCF1969cuVKpWd0mvxcnj3wXnsgg5j32uNZX9ID6LruI2y/isKJDVD0krUvX5tOCRW+WWiJn4eT0APTQa9Ad6nrVpaX3dZgx22Nt7HkOmoQedpOnVcqpx+3IcAXQVt+7UrgN3GW6GUyrGi1dZA03esCuwYoRGdlWPtpWTldlE+fFL3niQaLW7Qsj00CQAvypB4sOySYR9lf0ISHlM3aJtFJeSOsSjqY9N3BoO/2h33sD9Nxp5Y3FwrESH2sX6Xes97r/CJydbl9Fh1NtpBfMUn6rQsXLmQQM2ujZLq75oEMYu6a67Ni7YHf+Z3fGWFXk9cxL6aYwDDtZT+tXMuflZY2uut1VjEnBpN82ytuiBUv19AbM8RcC7rq5Ogg7unKtEUwITAhffaVr4AHJBzoKZCEHhvijfI9BKC0tsXjgQApAr/v5Yj0fmgp9niITLpzGfN5o+QXua2vt8XTiJ26Gt6uIKMOOAUlXravR0mP2G/8E30Q5QvJgCfzYk4M9XQB0CxjXtMaemIU9qx4WzJsHVOEJGcWuhRvKu8osognxafz6p9TVqTz/HBn6y2U5gMg0y7KuQvkgQxiFqgxTrIpn/70pwklvI4XaLFXjPVH6gVuaZrSdUGg4EEAX8ZqlhVM7l3CL/kOfsd3Xc+9ffAOAiTe54hkErhJFm+9Lx8IYfm4e5omS2KZ1MnfIzChtAUJHl9Qfgyokb+sT+oaMAkXah0ebMSelygnDhNRqQAfI51tS11iN5VpXwm92CXl7FTqL9HyVLDmfCkL/td6uRz5++iBOeAl8QNsUjjEyqQVtwIQOu3yHmimYt/Q5zZf2hdNopvopN2a+H1ZtH8aT9gg8W3w5QMgpzs2U9xlD9y7myjcZcdm9fN7AC/Xb2OVUuXXnw6MFLEonuigKJrqAus8lnRx1g52KnUr+CXf7Sy7dYCayztX3eD8EEFxmafHUvgmXRwWbHALQIbyaUfbQ+pNCUFY18MDEW+Ztpvlgpc3tAuGF+UFE1ngS8u8AaiArvAP2xj1lG2IQCTKUXq5euW5ONyPxP4PxtXcCv2BXwKn5Es95e69SsJib1Ah2tjAVMqAIXpeBuM+L6seDjF/CbadXz+H5dVoL3WAZ9JU235JojubOQ1UpLRbnrq0r95sAIao+LuNWeitw9bL8HFkTBmR87IHFsADuSdmARohm+A9gF/9l4Bh9nWAqr6cywHM+s7S2/JpaSysditumedUrGDPmC4C4T6W7l4dXvbre0LQk+Cr3/LaborybEu4Sxnn4UMHS9IVg7i3TOwXuTpt58mIzKg3IAu20Q89UI4/rDECnOiDKhKh/QaL3ESApxktpXoahxZ+AW9dW3gX+EnB4gO6Ez1BKLrXRk8GL+TbqJgm9FIPDE3qxYASrwQ7v3qG99hpuurs0zy1djQJvoNl7BvTLs3pWANNx9+QIEvnU/vRdxOHP75xB6uRRWcP3DYPZBBz21yZBd2qB/ACvYlA/e60FUr2pS16Kb8pwGq6OluJvwfwsozN7pbRE7MMENPBUuvXd96m8MpsOpDYMCn6CxACeoqllC8fypBgz/KMMUzHfFG6TtfVn8REHtMbE3Rwz1BxVQOi1smGz3CJ30t1DLZoeXFOTgBvYlMIyuyTkEeaxd/sP4FW3Mbep2JafzBwffTEDMYAM7jTsRH3rV/ADPEZjJ9GYgDDNPL3utx+d0pApcl2ywjD5Ts2Gg13NjY23n2v65L1ZQ8cxQMZxBzFa5nnjnjg9OnTN/ESvkyTe0vBNKGtKZAnyCtZtfx4k68CwKy0AF6w1HoZhwjSpnfvjC4jUO6XgUUAIyRc7GWAQ2n1oVRKHwdtCspsnY8qkpcCEBTIvRwDgmqClQQlrbvkV+ILgZ7y/YTOGPk1hqmzX/ik3NJJuqhXaAm9fJzLQr6+FcCF6q0otEySszs4AHjBXBj0yAxHA7e5vOY2Vzaq6DChoynL1qWJ9k6WkR3yqeipaXtLV61L1eOUg7896ol5+8aNG9tWRk5nDyyiBzKIWcRWObk20UnWr3e63coWq7UvceOrWemIjWkTvm5jifVad9WtA8ys9k659e6K2z7YdW8eYMFGYCiBgSBD8grwkJBts4iH+cJmb2STlSM8ZK2UCZ2tAwergD7YVEqG06ZFV+Ej0o1ySVtgQQinsIVleoCjbQgqSuBO19HrLNeapNAxCSKHSgU6iY2ag+uUuCife2FwSCdtSDgYHbgRTq9+3+aDWGG21jgfpk6mqJlWnjCnAlTJ6sLX5jnFr/OEL2VHqqysR/SW9dOXQdOlbPAHdC69vLq6mnfrTTko5y2cBzKIWbgmObkGIYDRpN7XxqPR1J4Y8lLqBS/eayoreTgRIGm/mFX0xCxhWGKF5sb0VjHfYuhe230T0RdzLtROuiSLAq8NDlq/DtYEMDgd9Apv7P/gmjEOSYduj1FEZpQVenVIvvINAx+kS/Nigs1eE8nzr4HCzrIxRMZXwEbhWQGcotzUovCtEcj+Eqki28uz7UY2yafwnWKlfWF2h/uYEzMEmMEp1pjT877NB8rGllVNTVkbpjIoAvkesAxVSS1T09Q91+lM2VaSzYzeubq9ONf4vGRrUNjpoOdxaenlU6dO0Q+KfGUPLLwHMohZ+CY6WQaiO/tl/Lre0+9b/kUb3GBf4jZ9W7yFmEt7xGy01rBSaRlABhvgYZ7M1fENtzPao/4JD0TmUFaADuEJEUbsl4Dii2OQLwJ4QpfweJoygegr5IdigROFPWyH7+ERWg+DFIhSjUF82ud1z6SuBgtxNBX9GhlpWcl6Bzu4jKyGnH30vgyxyV0fw0n74z13Bj1n51fPKuMTjmvIsoG+gbQoKrfdLBy3j0b7jKXWACer0fIVbQ+Ajh6578LHA8uT09kDi+iBDGIWsVVOsE14mX5rMh5f7rTbxeuYg2HDy9m+kMV9dfmzuLeLze7WaHIvAMxad92daq266/vb7vLgKoMYfbEeHZinKNBBrwjm4CmAhXouggt0MpiDHq/P06f4WX0ASQI6Cl+Eng1P4uuhZYjpRE+lXOYfpEgBuGrvSSFL+aNkY7DNN6fMB/KiWVWwm4a2tJ+8/RFNER1W0Lg9gEraF+YAu/T2AWYePf0ghgA3aOCksNc+1JfM34FT+NUquc1p7YujiNZ2puovvh8M+hP8kHj1KDoyT/bA3fBABjF3w+tZZ60HEJxeROE7uPPikrqXtw0eNi0K6vi1ASleGlJaB3hZWz7llns9dwrP2FHYvbz7CoKm/5EqfBRQeU8YBbRIvk3rvNIk2gAsSI5soCe8Yr/Mh5EgH2J9EfRtPQVmsW2SKAHBaJ/lJTs9XxyiIpBWrY8Ph37VUQA0oVeHlE6CPs0nAdTb5IGZ1MmjJd8yrD/Yoe3xpTibAiBnf3iA5e8YSkJ77I8w6Rr/Hjn9EB8fkboEBFJd6q5qHauURZs0yKlyzZ9Tp8fmkxm6Dac+V76n/jcCTeodj4fXR6NRXl49f3NljrvkgQxi7pLjs9q0B3CG0g0ExW/jRYwYWB9siNuW27TW0FTmZVXtoaXWtHsvn6OEowg2llbdG3uX3NYIZylhHgkFWpFrLWVAEk6tFskCDDjtIypHD8EYnK9k+qQqDUCC9TJpKMMtAgEqQJAnuaGc3Kh5vB1V/2kZTK9s8zxeH9MF2cIjpkgHiNBrv3ubuZbxqmljkncoNhTCI9uYVyXtuQNM6O2HeTH3rZ5259cu1PbBlPxszKDktO/IrDQJ0XNlkR11tth8n47fvpK/lW8tnzbIN6f/vh4eti6D9vW5DM7E2QN30QMZxNxF52fVaQ/gJfql4QDLTsxlX8Q66Fra+dMUOCIX6aIN79axyoVWKq1hhdIq7hMcJ/PywStY1WNgi0mLrdbmIk0RVYGBqfTBNA0miIf5ClNCmCbQAnopLwBJAAWiy8sq19n6jUSbmjLwEmfp+unnCG7iK8bbVNZQ24ahDmJ7UdfAvt/vu62DHYCYA7eLXpjx0sg9fu5Rt75cv7TaNpm2RNtuffBeppvsaLKfbKy0kzLc+ln8yfrCJ9C8feHCP7/0XtY568oeuBUPZBBzK97LvHfEA/vO/TECPHV3VOTLS56DawjiOsDZYKcFNJV5uvgLmAM8lgFvYBhpvb3OG9+toTdm3a26b2694m6Ob/LwRQzW1HXgwwjn4VEvWY7ByddJ+GJ+uaqSL0FcSpvrIGEs+s3rURNpVb+Ptl2eCyuKurCjOZttoWR4Zh7VRpSWj7efYUvByw+UY+RJvraBuVTUFrmUTX7dwvyknfEu98TsY3USHdj5yObDGI5rQ6P4QSTLvS7f0pXT4vO6tmrmri/VcpvaNZZF+zV98Rz8lSoT2z1eMX6gZkLb0Rwj+PZrS0ufqRz9UV+LXJI9cHc9kEHM3fV/1p7wwNr58y9hKOYKPjaWMTW9kC28sUFYXtoJ8XNl9bBj70Z3Az0yONm6tYLemR4Hzq/vvYyA6f98fCwvB3Qy0Nrkg7K2PdbCzyvxPShioAQjkWOHp4Sayik4RX2+V0nSCgsw5ijouMDbwD4NIIR9TCUMUCJQ034vbFPxUAdPz1sOulKvaCcpCjRcB29PUS55prH7OB9pHxsP0llJu5jYuzPYdWd7m+788rlaAHO7vg9Sh6PexUez2mPpyEM6r1KuGjtdphpMVYKaGvR9zIv50lHrlvmyB+6GBzKIuRtezzobPXB+aWkLvSBfwCRXPkWXY6m50i9oS3XraZpoS70xaz2sUFpbQ6/MCk637rpX9l5zW+MtPPMOp6VeF6+VQEF4CgBBgIEEIt1jUNQnMAmgKMBNCOjleseApHUR8KDN5Ohi+sKBAAp0ZpOklWNFj4CKCICqOkhuAXhU20ie2KjBipTpvFJdQvAlk8RPokd3rBDPzv6u2x7t8GReWpVEYObpc4/zgZ32e+FboPn/R+FpllgupaqRjnn01NIrkDKPDY20oYnbrdYevgefb6TNhdkDC+aBDGIWrEGyOd4DB6Px5xDwRvLinycAiA/reOryU3wUdLFLjFvHnjHrPDfmlDuF4SXaL+bVg9cxRyb2rBSBnQX53pFSezJo8D0eZAPRC3jQNkmcYuqQkEBogUGU79EEldMhjnQVOgJYoZsvj8BE6Ao9yIg6Yu9MSS/L9mBD9Cs8FE0qySoo+UHkabkFhQnUmvaA5sIMthym87q9Mc2H2cMRA6fcY2ce8wd0lrT7RFN7N5UR97TyhLoii3g9f9nfTTxNOq0tTWldJt8drVdsEzpeC7a09A6OG/j6NPtyefbAInkgg5hFao1sS+GBVnv8h1jquauDbtNLmxhj0IiOTOVF2nqHa120ZHejheMHWuiNwbk86+011xt33Yu733DXsAEezcMgO0uBPqR1vi+PYIOQgNYTg3UI8kqmABCyf4AUSwAAIABJREFUWHV+8LOvI06fVjqZLqyOovKCjro1EiBBeIseGXZN1OTtDHVkPb5U+Eikrr+GOLFegQ/MbBMJCZfI8WqjjzQNzYXZ6e9gLsye2x/s83MfvTEfvv9Zt47hJO3LQnDDwzT6aeVWtG8H36a3wlsnV/JFTyqty+KzB1HaPquDGhTlf3Dx4sWDSlnOyB5YYA9kELPAjXOSTVvrrL2NAPZit9stTTK0wcGm5/NZcxe/yKYJvqtYnUQ9MGvdNbeBFUsb7VMY0thzLx18w40wnMG/ZHFJMC4FZcqnQoolIYCT7BStrY9nkfkioXYEIgRgKOBCvLI3C1MGsEJ6RI7oLOqmgIRnqYILwTzaNnlOyfHAI9ocoYq339e9gqVC5eJN6yMZ1Atzo49emEP0wGAy784Ic2HWNt3FzSdQarVEXRXByLB+tjTTyjU90c5DPw+vlTstbesxa5rAKz6fm5U+02UPLIoHMohZlJbIdpQ8sLGxQQfQfa7X6430r3Eh0i/zWV7stxJoSCfmC7hTnVNuDb0wqzhLab2H++Gy+9bOd93l8eUIKlQvR8lGNhwAQYEXXWGZtFsCPwxW/CU+kLvMpxEdhEWoLBzgZ3pFtKayPAY3ptj6tmRTwh7xLd11W0VbPVO0lTT6XhkuMUBK9GlZY8zloRVJ2xP0xPQxJ2ZIc2IO3LNnL/Kyaj2/SKpjvxemmrXJWfmk3rWCphQ06UnJtvSNaTuCpb6X2ixue/gfvZ6DpV7vT6aYnIuzBxbOAxnELFyTZIP8e3VpiOGDPzjoH0zdL4boUy90myd0qfwmrzM9XvSrmNS7CSCzjiGl0wicm+0Nt4TpJ3+y+2V3gH++u8NLKutQMEEF7Ejjey1kq/0i+GP4pO7SAd7LsVAk2qFtoWf6FDoobZRo2d5n/giA8lBTlJ8CHVRq5ZTTYWiqpoK2jWgy743hTe6B2cIw0hZ6ZM6unXLPnH2Kh/PmuaxszdtUdhS6Mo//nkobpGxOldm8prSUUatSu8a018bpkC/66dBHXH+0lHfqTTVJzltwD2QQs+ANdJLNW15e/iZW07yOl6yNs+wWG3BsOh3WwZgYQqnzs5bZarcYuFCPDG18t0p7xyytuCv9a+5r+99ytG074R3hkaCt1XHPBzLKAd1Xj/PR41O5hD4I0jZVZVW4S/o0PQ8hKFvK/iOgE2URX0qv5MsP/XK9PH/SRsgmeVwW1Gg6LWc0GrubB1tu95Dmwuy5XcyJGePA82fPXHSby2fKQ2jV6s+cI3VoYiCb7fesib5clvwaFySzyLU0Nl3SZypU0IZ8rgsYMGRLQ0m/c+bMma3Z65IpswcWwwOJN+ZiGJatyB7Y3Nx8Fb0TLwHEjG0QFe/Yl7gOMvYXp/CkwI2VY70v5SsALqdbm9gzZhlgBnNksGqpd9h13xq+gmGlq66tJvlqmUVQVkEwFfAZBYWLQEZJRsUonyHBX4OOSn0SAc3SiD0+n7yU8pTXWeWN+WKPppFn0cGSBZSFelmZUt2d/R13cwQQMwSAmexhSGkXxwtsuveffRorktI21smqyw/Wi8rbcpfvH+ls0ltXXpdfZ1yTjjoeArHj8XiCdvljfOq7/uoE5PzsgbvsgQxi7nIDZPX1HsBLdYifiH+KEwgG8oJOvahtngUH9vevpRcL6vJ1OW1wR0NKpzvYAA/DShu05Hppze0c7LkXdl/EpNM+DyvZQRotm+zz6XQAJn0U34tJuiYIFkAAE46jLOrZiL6kfP0hgcInvS9ET3ZoPjtkJDLqWonKhacJRElNSV9hfxDKcEkAjSonfEKTea/2r2M5NQAM5sJsDXdxptLYfeT8cziU8zRsnz3uNrVvU9ms34+Kj7RjK4U+o06vzbeA3LdbbHBNnyqz8kg7+byNoSTs1PsGnr9dY2LOzh5YaA9kELPQzZON67bbv4bemLcwVFO8se1LmrxkX+IlzyWCCdPX5Rt5JVkIrN1O153vnnObWNZLE3xpeGnjcN29uv+me7H/EgMQGiTRAEA/k25Kl4BOyIvB3AMZy8e2GOyjAYC2leuoaH06rFQiMWQngxvPJX4t5ClhUh9WXwAOD7SK+vhIy1xEw8NVsuke8hTGUpL9o7Qf+4XtRg8BhpGu7l1314bXeXO77TEm9WJi7/tPP+Ge3HwquS+M1MEqEPk2n9LT7KqTmZQF22ehr6NJ5bPt4btqy1NpscuWcV2DfZ4G54P5oaSvXLhw4ZVUfXJe9sCieyCDmEVvoRNuH8bpvwwQ8w0Et7nOc+EXv7psmorqghfRSqC27pcyOkfpDIaVaMk1HRK5iaGl5cOe+2r/W+61yZsOZ1wzqwYY2gaWI8JD0KaJvf4Klh1GBOLBhqANL7cAQRz4oy6SQfK5xwX/xOaiTkQvutXd1pm0iQ66Wx8SliEaAR5sIw+BeaF+orJ/pjI9/8aql/oRq8i7ubftruOMKuqF2cJqpOvYIXkTvV8fOvec6+D4h9txcZ3Md+Wocq1/UnKofik6yrP5Ns+amaIXndWylN4l1+/3Qbr0J/D5MGVvzsseWHQPZBCz6C10wu3Dy3WCpZ//zxBrQK0rqi/5VGiOXPbFTiWpPKvHpomHhpVOtzfdue4Zt7F8Cr0y+GDvmMPxofv/9r7otg53cCCB//MScMCBPGxAJzJZP4OQ0DvDkUqGfiiv+idayBMYxDzVuhcBM0Q/LxmUZtWTyBN/iC2UJhDk7wokcf1lSCz6UHxJ4EbLYH7KxKX9rf3ChbgYOEH+3v4eJkxfRQ8MDnrEaqTt4bYbtQbuoxhGurByX6K29W2pdYqe23mvAyZWB9sR2sKW2bS12adjG+tyerZpLc/y+rJD3jYA17uT1ui3rP6czh44Lh6oviGPi+XZzhPjga5z/zdexJcAAIq3uA7Z+iWeek694FN52qE2MFhnU89Er91zFzrn3JneabexctoPK03W3TZW0Pxh//Nud2kfMKYMZEQOBXDSEfpWiiCvAYUHPB4AUL4uIzl1dSjRMnJRQARJO++F7QjyrQ62l/jFXrqTbpJjbQp6PIvUjCUUl5Yv9ut6EOHewb57e++yu4Gel+3+Nk4Mx+dw2z218aj7no33g4KWVOtvgNZQfraypXRq+xpgkNJQyJgCTOp0sR8TeqzNOm3pp5WVykv6/PcJ7fG1h+5/KO8Pk2rgnHcsPJBBzLFoppNt5CuvvPI2fjX+C6xSir0xs8WwpOPoxW6DtQ0cwtgUn2gn32Wcck2rldba2ACPdvKl+TFuzb05uOQ+P3wBJ/xgmxu2VYK6N1xsEDusTTqfbQFbikaDIHqugATGHx4wCfiQulp6qTP1/mgIonVwTQJY0U3AecpZCs8UIErkiwziERt44Avp0Xjkrh7cAHC5gXORdnHEACbzYh7M6bV19/EzH8IwEg55TMyGSbVfKk/bUPc8C9+sNHV0nG++XD6r/MWu4yfbdZn9nib5rD70ycHnv4lPZS+mOt/k/OyBRfNABjGL1iLZnooHnn/++SEmIP6TyeGEX7b0gpYgmXxZB5qKIJWR4kvlBQSSFEX01KtBK5XOttAbg5OuebUSzllanay4V/qvuRdGX8Vqmgn3Wvir+AXswQUyOZjjUw5KcYiA8wMYEQBBsvg5fIpn5Isc2+NCQZNCpMhgUGOjHxsJOo1iOK/+EnnaBjZYrqSOUBj8QpbRiOHV3Rvu6ugag5ebwy3uhTnsTNwPnvmYO7/8IOBLdTVSug719jbRN5kaq1MGGilNTRQp/T6vHsBQuearPnteS9dkM0TuYU7Mr6bsz3nZA8fFAxnEHJeWOuF24uX8BQS5rwDMcBSTl7UO6jY4VF/0ZSdaepE7j6tJRqfdcec6ZwBmNt0pAJnTmB+zsbTuVsbL7qXht9xXD7/JWIPm0VTsNuBG66a6yUfyKdh7lggSpuEN0lkAjeA7kaf9x3liD+GmIJjDYyK6V3gVnfZtmU4Am1jg79irxF0DgLk8uOy2MA9me4C9YQBgaG7Rh1afdk+sXSRoVWZqSM1OGYV4m5s5U98ZawbTJPzl3VOVb0nlOyJyrU6dLj0bQ0SO5Scy2pgR1x899thj37L253T2wHHyQAYxx6m1TrCtZ8+efRPh7/9YWuoMdA+DfVE3BQBbRu5MveBtntVhm4HKe+2uu6913p3tnsUKmtPcO0MnX/eGPfeFgxfdC+OvhR4Z/ycnOgoA0oBESiCAYyARV4Oh2CXAh3RoEFQAmQI42ZogrSb9UnAlHu5FwsfbHIFVyp9sXZCv7YiafIAXE6gmtIrp+v5N907/XYAWzH/BxnbXl/CZbLmHDs+55899DEAxvRrJthXp4TyLDEJ+ir7giUZWnurqqgmbaFJlMS+2pbVPp7UMK4/pQp1tmdgYZWF/GIAYtM/fwycPJVVaO2ccJw9kEHOcWusE24qX7Rh73v3eeDy4oif4zuKSupd69eUepdlgMk0PhaFVLLu+r3WOe2FoDxnaFG+jtc47+n4BIOYrS9/g3gTqkaEAX+gQoBCUCAiQ8tJdAYSiqyRhXMp+lmsBBnitLQQsBICQaJHl7SoPaxRgBA/CY3VLfbyZNDE4IrYJDna8tnvdXUIPDPpf0AtDS6lvunexMmltu+N++Pwn3SpWf2EosVJLq0fbaolTtJamLj2VF+ChiSZVZvPo+6Pz6NmmxT6bb9OaTuQIDd07nTZtcPcK5pj9YV2dc372wHHxQAYxx6Wlsp3ukUce+TKGHb7c6mCSxJRLv9iJVAdSGyCmiCoVW7mlQsRmmuB7AT0yG9g3ZhPzYzaw7HoTG+H1hl33JQCZF1pfcyP8o1VLHPRJgAQs1XsggEDbXdALj+o1YbqIDUogRLLZ9pqAWwIagky4cjGY6myS5Xm8dOuXkrzgJF8nj6PoeTKe8BDSpeEVdxO9LnRC9bXRTff2/mU3fnff/fiDn3L3n33IjW8RwJTaKJGwtmuSpjLfDPWDXHXfs6RM1fa2XKdtWaI6jVnUWjgZngDSr9x3332vNxLnwuyBY+CBDGKOQSNlE70HEPj28fQbo8GA7pXLBg378ufyCpfPsLyUWxcw6vKJh1YsEYDBwBIPJ9Hya9pPBuuXXLffcV8cfc19vvUVNwxARtvjg3wZFIiuCAoCqFA9H0WVgjALIEQHyzf1XwpgpMJTBFU9LydyF/SBjtKFX/Rz0FfCRcjjSbx7N9w7Qyylntx0W9iN9xqGkt5Gj8zBW9vuJ+//IffYA0/NNQ/GVC26RQEES9PUlk1lVs6s6ZTMVJ7Iq/u+Urnmo2ebTtnUwjASemEO0Jv522gznJGRr+yB4+0BPoM9X9kDx8UDCH5/v9Pt/tsY0/8QnhUIp2Dra0Evcwmy8mIvBd1AWCkDu+YlaTYtfmrKpzk7ZzHRtzNp40DIG35jOJp5MIaNuL/U+ra72dt2nxp93G1MsEGethtknFQ2CkCQOlARPccdfoNVVBCCWaT14KLwh5AGHTKMIfCkuAf9hd8KFRHIcJaxk7NUfmAjs4r2wcaF7t3dK+7q5Jrbchg+mmBJNe7fufa6u/ntq+4Xn/s596EnP+JGHMHLYVwHapHNVAmgksqL9tTDgya+Ol3T5FqZ86Q17Tx81lZqSzpmACDmRXx+T/svP2cPHFcP5J6Y49pyJ9RuDCldRcT6LKpvtkmvD0rzuioVKGzeNJmtNh0Uuenuw8TUjSX0yGCy7/nlM+7s0qbbGK26N4bvuN9s/757q/uuawHF8D8EGQYNCidwXlBGNogdVFu/GV7goWCfAG/WbjoWgCdGK/BB4gvv0bEBNZWzgIbIxGZdVpdHtuz3D9w7u++6S5N33Q1AGJr/cu3whvv6Wy+7yy++5T5z8cfdBy9+xPkzJuosKRto61hj/m3JbtJVV1aXX2fQvPQiR/OR51JyAPyxYfPkN5966qmbdfpzfvbAcfJA7ok5Tq2VbWUPoBfms3gZ/xXcH8EcGdM14J0kL3AJrpTWz0RVl6YyTe8lVvNSNEIr8k+11zF2Al1tWhGCeTBDfNBDQ3dsqO9+a/lz7pOtj7pnBo9Dga+KtytMf5UeEWuT6toQO2jKrFwWcBS2EhBSRlrwwUBIlSs1YWiHuCNFOeUZre9p8zzqNdrBKdSXMWH3OuAL7cBL82CuYFO7L730opu8tuf+yvf/m+5jz34fAAykGvySCsikrT5fVcI81vMYpTPyNdtRlskpcqq6tD26xNpZogsyoqjIaflEFbU1/l4u4/4PTNVyMnvg2Hogg5hj23Qn13CcuPvtt99++5dXVlb+xu7u7rJ4ogielJEY5ijKE2XEQuU6qFv6WWl0y1CvB22A1xouuV6n41rdlmsPcarSuIVVSz2cCbTjfq/3ebe1vuU+vvthDt5kA33YnmCXr1IcGvLBi+Y3S0+Mj/tEz7y4+wOkNU+5fmKn6CIJEhTFD0tLkETCyGccJ3HnZx80NeChUrI5LoEn25zrD/ruGk6jvozhIxo42l3a4yXUr958033xT19wjx2ccf/uj/5l98zjH3Bjc66TyBRb9T0VrFN5wvNelqV06TxbPm8Zez8imCSY0zLlOwWuX3n88ce/mvJnzsseOI4eyCDmOLbaCbcZL+TR66+//isH/f4vImC+T+aGcKzFR17wEojpZS7P1nW2zKYtPaVTNKk84SXdp7Dcuo0eGEAL1+oAyADc7Ez2kAeLJ9vu2+uvuw+3348N8laZTQKQ3K39KigVJjIN6uoxB3kigiEisjIKxiiBQYfQ+jrR8FIELNq3YpuWo3UcYlXRLg5yvLx31V05wPyXQ+zAu7zrbrS33Asvf929+KcvuudPPen+vR//q+7hBy660WT2g8pTulN5YtvtLquTN28+2ee96y3Vz1xWB1Tq8kOFrR38dzGZDDCf7O+KT/I9e+Be8EAGMfdCK57AOmA46QXsc/H7q6urf25vb69D73QJwFPdMRfx7KCFAkctUMA0lNUW9pHBXOTuYcd1utQbg4m/+FCvzGQPARw0DBi4LraPw9cq5ld7TZgCfKkTpn0R9cr43htOB3opkzwJpKSLAKLopHx6lgBZyldl4oetvW33+vW33LX+NXdzgF1g6CDHzo774qsvuW+88FX3M8/+qPu3fuQvunNnHwSAqRxSTuZM7WFgoimXDeia/KhlKZUpWdPyKuUJcKJpLH0lTYYpGWJnb3mZ2vKfPfzwwy+kbM952QPH1QMZxBzXljvhdl+8ePHgnXfe+T/39/c/jWB6gYKzxyYx+MsLXgKvDrpEXKQN+GA+BGsNIyhP6JtcP41uubPszo2wconAS6uNAw0xP2a05M4fbrreZHkmHVE//77mQE+2cT0pJ6R1PtXXgxNfq7q6CFAhHcwvyghUkV/CpetJNOJjKqZnGhbaGe25vaVd12/jGMze0B0cDnCUwI4b3zxwfxXzX/7s9/+sW15Zr66yUjoKhQ15VKRMK7FEi62kNEASKv4OJK66/AQp+09fTWlP6un5/zX6Z5Wn6bhtJpMhVlf/Mp73UrbmvOyB4+oB/Z4+rnXIdp9QDyAoLAPI/H1M8P1ZLBktAXIbpHW6qYxcOQ+tuH6aTN1EBI/GGDo5ODxwOz3EFOxae2a86drooSmBA9XrYe2iGEe4oiQ3ZGgZupyCo+6lIZvpo3tbyno8SCIaCcC0ukkCrNTZ6iOuEc5CegsneV/CPjDX+9gHBkNmO61d7J2z6j4wftJ9z7nn3CEm7cy6Ey/ZZUFAXZ7UOUXvefj/Qla61/HU6UrR27x50ppWnlN5TXXU9NRGqysrrj8c/uFkPP4zeVVSstlz5jH2QO6JOcaNd9JNxwu6/9qlS//j4Wj0afjinPYHhag6hE4veQs66nxpaSVAWP5Z6UgP9YnQ5Nc1/FulOTCwh7bftwangpjoJbyiwQXbH5BNkU80NEZV6oMhxwC8hF/61u6yHxJ+Uj0EbJ9CUqLXg6WW6+C4hSXM+cF6LOxkvOyeXHnYPb3ypDvV3gB4oR6k6sbLOgBrW+ryy/bGVB19Xb533/zAxuq38udJC63lER02X1try4SH2mQ46o+w8u2zGcDY1srpe8EDGcTcC614guvw6P33//NLly79Fnpjfq7fH3SKmEpBMvhFB3sBAfTS189EWirzGSxB04qrU3lSpu/T6KhXhgGX2bGJ+AjoyF3ssLIpLXbrMuElf/CgkAIfAnYYzIAp5QuRJWUpHeJX60e2Cb0s57BPzuRw5DZxltRprNA6t3wOgKY91/ARySIbUtftym/SkdJbR2/taUo3lWmdlk7KdH7aO56SDnoE7ZfR1P9bXV1yfvbAcfZA3Y/V41ynbPsJ88Cbb775KexE+r8Ph6OHCbpwYMZHf7l1ELYBuZQOgV1c2EgbiCwNZc+aZ5uKgpMOUAwUiCiAMh4OohwTuVL6dB1sMCR6BjhBjvBTmvL1xTYo0EdlYpd9gQgt80PWBMNmpILspt6X1GVtE5pUvvhiHjlsSkJ3Kq9J96xyrNymtC67leeU3WEzxBHa5C9fvHjxf0n5LOdlDxx3D+Qde497C2b73UMPPfQnmNfxj1ZXVwYc7CngNvjFBpUSaSLY6fJUMclrlBkEzEJHICAEH+ZiuVQfVKioE7JafhMYBhMRgKRBAslh/kAb6cvB3dfBy5D6CK3WI3aRPXX1pnk2NO9HLLodACY4hG+lq8H/pL/ORitG0nX0qXyb15T2TRn9q2lTz5Qn+aXnRJ10udSDemFwfWF9ff0f19U152cPHHcPZBBz3Fsw20/BeYDA/8sHBwfv4ITe4sd6KgjooCCu0wGE8mxAKZffOmCx+lJNKGAm2uifiJfKKCD6uw+KFmQQteQFHMT1Et0CiAgMsRz80zLoWXxB/EF7BQgJndAyeMGk3ml1bAIXKV5tu1gTrbI5wVqpeKI4pYPrkKDl/OiEgsLmTUvXSRc+b24EOaJIy+VnZUudX6j58DcxwjYE/+X999+/U1OtnJ09cOw9kEHMsW/CXAHywH333fclBNR/hiAazlSK4SgRf9hpleCgXGkDkvXytHKhn5XOype0AAsPFmKviy6noFYEwoSgVC8M0AhTim94bk5IaGDi9RfaaoM5gRf5JEyoZiUapS4gV5ljzlH8W8fD+TV2WRusjHnSmlaeA3RhNVaW6NYAi2jq6Igeu1nTQY+/CUD5G9b2nM4euJc8UPRQ30uVynU5mR549dVXn0RPzK/i5f4cAmrlu22Ds3hJ51NeHZ0tq+Ofh66Otq4Fqcek0l1AgTeAEn+rzmHRtlLwozpSUKw4SSm2ftG26iDaFExFXBPNUcrqeGrzyZAEQPHZGh54izknQW/l67TlaaRVsoWuJCtRnrLV6iAa9L5QL8zWUqfzc48/8shv+xrl/2cP3JseyD0x92a7nsha4UyYVybtyd/Bi72fcgC98KcFDOKro7NloiMVSOry5slP1YF6THzviIIfAcB4+tijwmkpAzkDFwEwhHtSCpglPc+GAJQMF9Fd+6lGFGen6iz0Rymr46nLD0YkTUzxcJ4BMARQLK1Nax6LfzStPNNdP6d8kqIVn1b0BwE0F2bsxr/92MMP/06y0jkze+Ae8kAGMfdQY+aqOLfWXftl+OFz6JEZ+yBR7xUbRGxQqAsgJDFFa3/PWxqxZN78uhoI2LCgptSDItGU47K3kO4a92h6AjbiF6GXYaJD7GVTZ3udjXX0KVCg/VPLZ9FBYKrJ5tKUrCb9ti7MbxRYmTrtn6OvpYzu+rmor6oD0wSbU7S19Qn20aRwDCNd7ra6/xXadfbDqGylczp74Jh4oO7H2DExP5uZPVD1AE64/pfxMv8HOF+pOBySqErB3aRtINdRflY+bUkTj7XY0jbJsbyLlLaBPWVbE01dmY/PFiJ66XU8VFpXlso/ap7mszJSZak8a6vQcI0VeCrxmjLxNQ0loSfmbz3xxBO/JHn5nj1wL3sg98Tcy617QuuGfWM+BwDz6+iN4Um+RVBQv4R1fuXZ+I34bfCR2GLL6lzeRKdlW/4mPku7yOmmejSV+TrNB2Dq5NXnVz1n28T23FTSBmwIv9apZaaeK7RBps1nXqVPrCcAg+tFfP67ao1yTvbAvemB3BNzb7bria8VdvH9XnSr/z282D+EewWsl3pe1NiK7RWpoyMHW1qaZVKanhJaoUqX4o1NlqKX0qayu9HoNtinbGiiud1ldfLmybe0TelZyzzmiENM5CfNO+3Z6rH8NA+m126PJktLv3Dx4sV/mGqHnJc9cC96oPJyvxcrmet08jzwwAMPvIBa/x0AmNpJvuKVugBivWYDSfXH8Hw9BlZ+yh5LQzbIx5a9V+lZbZhmp/Wntr+urElmE4/1TZ0cK8O2qC2vs1nT+edyu1XL41wkkqntszp9R0y0jIBtr9t1w8nkd2/cuPFrtq45nT1wL3sg98Tcy617wuuGl3/v9bde/+8xyfHnAWa62h11PSx1+cTbVDZLuaWps8c221F7X1J8FBBT+aSTwqJM7LU2TEvbQFtH30R3lLI6Hg7xVZQZsiw0Mb0iCV6tx+qsK0vlS16djFSPjfjS8kg+DSNh8vVbq6urf+HRRx/9F3W+z/nZA/eiB3JPzL3YqrlO7AEE68Ha8tp/jg2/XsLZSqUjk22ASQUXGzQsT5ObidbyE/28+ZonJW8WG0SnrqPOK2yqsXkWHU00TfWeVibl0+Tr8noAQyVlAJNsDwN+tN9tG9SVWV/X1SO2gwCpak+btTHy+LoAeE4wnPQ/PPLII787j58ybfbAveCBDGLuhVbMdaj1wIULF76OXpj/DKuVtsNZMgWtDQ5SUBeYrBLmV5kpeak8Ykl0ErCkOnpt2zQaa+edSM9qwzQ67WtrZxNvXRnLSzg3pcfmMcRpBDDRQq8mtr7wabu0rNRzWVcZXPnvQrWHyNoHcI4zqia/f+bMGVpSXRVinZrT2QP3mAd4Onu+sgfucQ/8E7zofxhd7v8OXvRd2veELhmR3A95AAAgAElEQVRWocBAzxIg9HOTX5hfARktT/hsnqSpR8DG2lhWDaa6TGTbgFa1tTrRmKLcLGPIHA2tgVUFlZzpNlXrZoU0yUiV1dk6K62vZhWQpPxsZUpa5zflebd6XSkeXW6ftT30fehgMu/kcPIGehr/+vnz57esH3M6e+AkeGCW99lJ8EOu4z3uAewd8wR6ZD6LHpmP46Vf9EBacCBpnV/3TC6r49futDQpvmn0Up6StQhNZ4N7yqZpNE3ldWXz5KdobV5TWpelni2YEhp7J99Y/jpepi3/j11Lm9qFuTB/7Zlnnvnb+F5EFMYU+coeOBkeyMNJJ6OdT3wt3/e+930XTviPEDze1UCgLmhRvg4+qWdyqqZLpSXPNoDl0+W+zHL4tPBZu9PUdzaXomZTPUT7NJpZylM1qfNBKt/mWZ2zpHV9Us/Sc6VlVfQWPjO+U71emoefuayMUbAHEvn+N8+ePft3M4BJfTty3knxQAYxJ6Wlcz0dVm78vxhK+q8xN+bAAplK4Ej4q4nGBivLXldel09Bi8rqy2MQnEZnbTlqWvQU+qYMN81i1yz1s/bWyW3KtzKa0tYmnZZnjy08sBAwRzLTtKotC59FUBJlpoGz2CocNLcLvYpvIP8/went2011yWXZA/e6B/Jw0r3ewrl+JQ+888476/1+/39dXl7+Wdw7EkDqhoxmyScFdphn3rQ20vKmmnAWmhTfncizQb9OBwfhBuDji8o9DiKrTses+Sk6m5cCIN7kKuCIVQlAJtQrJUPydP2b6LT/rI00jIRPH59fwDDSP6rzdc7PHjgpHsg9MSelpXM92QMPPvjgLo4k+E/xS/YLetk1BYsi2DQ8ixttcLFp625bLvpsPvHFMislprW99VR3tmRWG4qeihoAE+XcOoBJ2VTnY+0dTTP7c7m3zPJpW7jq9L0qtW/5Oyf2CJ+1m4Brp9Om78d/8/TTT//jO9u6WXr2wPHwQAYxx6OdspW30QNPPfXUV9Al/x+PxuO3MTmyFDltINKBhZ7rylNlNgjpoKarY+liWfNwkujUQa9Ox6267yg6CltqwIv1mbWxri5N+SkZ1tfa31aWLRNeybf0s5R73tCWxhdaXko2kYtu9B5iU7vD/wvf2f8CgKa075Gtd05nD5wUD+ThpJPS0rmeFQ+8+tZbf601Hv8trFY6RYUULIphGvzqlT+OWYaU7PDOvOloXHVZtDbcyq1UaloGV8rXjeMp0lJPHcCniWkqn0VOE828ZR4XVHtxtBxLw9QKUJRpy7JSZZLXWKZ0iL7i7h8KN6bkaB/TfjC4aDn1n/nABz5AhzzmK3sgewAeyCAmfw1OrAcQONpvvPHG34QD/kMEh2VyRAwmHkxY0DAN5JCMWh7l6VloRBbZZOlTjTYLTYrvKHk66E7jt4DB0k+TlSq3oIRkpumaAAlzFebUAYlUvuTZu7ZjFj5RXqL1QtDmZN2Sa2MeDHoOb2AezF/CPJhfKQzOD9kD2QMZxOTvwMn2AILH5muvvfY/4ZfunxsMBsVE3+iVMpjRQMGChlnLSLbltfrqWqWeL80xL72VkgIGlqYuPY03BUREVh3wqZOZyk+BiEK+6oWhvDpaybd3LaeJt+DzSpitTM85YS+YMuCiEprIizYcYUn138A8mL/NAvKVPZA9UHggz4nJX4YT7QEEiC0Eir8JAPP7ADJj/vlbunxgocCjP0QiaSG3wWyWtKbxcprnwVgbpjWetXve9DT5upxwwSz2Rb9Vg3ZRZkCG+NvaE2XFEptH6bKduvclggqxX3QJn+XX5ZrG663xQbDB0hOA4UvZGCANA13a0A7fz/+WzkYqVSInsgeyB9gD9o2d3ZI9cCI98NZbbz03GA/+Z3Tcf994NGrpwGV7Myit8+JzeT5Lmia618qVkrp8/oOtgKx0c81Kl+ZO56aCeZoy5k7jaSr3cT0NdKxeK2eetKbVIEN0NJVb+lloSW6KTtfp/2/vXGMtya67XlXncZ/dM9PjSWdsh3TGTmwwchKNUTxOkC6KIHwgQjySAJIDUoQUkURBKAjlQ1AkLISElAiCEBBFSCgWiviAEEo+BCW+AgUnKB2MZfBzehrs8bg909Mzffu+zqMOv//atevss0/Ved/b3dNVM31P7dfaj6pT+3fWWntXmmZJp9NWvv/I+7/+ZrMfTHzFm3AzAm4EGohp7oRmBIoRePn/vvwDnbTzL/nl+yGWYGc5s2j4BfFgEH+q+CxgiYFiXthfkDhfeKGUpolwVp6HdWHDCbquDbPy1KVVxcdxy4TDvPPOfXpVvjBNyKV7RnGz8mpcqiBNZXRNtSMvflq/x4sd//p73vOer9aNYxPfjMCTPgINxDzpd0DT/4kRwNH3BwGYf4dp6XlMTKmfVHymKljxcVVpVeUUVwUfVXF1eePLVlc2zndR4XDCnlXHrHx1aVXxpp8JTDAuGJiJovRYRhVghDKq0n1cnOZhJISSurx+bGIZ4ZhpKTUA83/29vb+6o0bNz4/azybtGYEnvQRaCDmSb8Dmv5PjcDt27d/Aij4J7yi4F3+jdc+UwgsMTisAjP63R5biGK5YQNnpU12ZFruVEdXjIiBYJ6YKo1DWKZO3jxQ8TLi8rPCdfBQFT8rzqfNyxP2IR6Hqv5JA8M9d4u+/a0PfehD/23e2DbpzQg86SPQQMyTfgc0/a8cgS+9/PLf6GTZL5P4LfwqtjwhQMwDlqr0WEZVWERT9aVcBF4WyVPZ2Q1EVk3IVWJjwAjz1KXF8VV1TeUJtDRVoKF658XHoDIJJE7rM5WHeqdgpWjLRH2uAdZ9XTelCWBw4P0ampgfQwPz36vGr4lrRqAZgckRqHpeNmPUjEAzAozArVu3fpy55Z9nWfrUMGeD1GIyGsPCWNtRQotGzqtWAiCJASMMx2k2+DUw45IW+9r6ybFS/hpXOAaGeaLm5a9Lr4qP42aFJ6AhgBq1tyrNx8VplfDihJRyZpe1zOUwxW1WQrGZ3R1eifHT3/3d3928UqAcreakGYHZI7DY03C2jCa1GYF37AgAMj+Do+8vMvFc8xoZ39kSXApoqQOTReJjmeGAzoKQWWkP86JUTdRhe2alx2nVmhdJC8DAgtWgEEOJb0dVfB2MOPGT2hcfF5fxmpg6jUw8Dl3txpumd1lO/VMf+MAHfiNMb86bEWhGYPYINBAze3ya1GYEkldeeeXHmGR+aZTnzwMy5XemCk5isPHDNy8+zlcXDi/HMgCzTF5NylX5q2Bi3u0RA0mYv05eVZkYCCQnzhfDhK9rFqw4Ofa33HAurCuWuWg4bJ/6qZsmbq/yyIREwp00y36C1wn8puKaoxmBZgQWH4EGYhYfqybnEzwCaGR+lEnon6KV+TZU/rWrlmJYqQIdDWNdvBviaqfcKrCYuCQzTFCXdemqJuq47ro8VfFx3DLhMG/V+SKworb7svosz13CBJhYehEflvP9j9suExL30zfwg/m5D37wg5+Mx6kJNyPQjMD8EWggZv4YNTmaEbAR+PKXv/xDTDj/ionnBsuvy1FZBFzqoCUGk3lhX2mcr+oSLZKnqtwycfHEXFd2Vr6qtEXiwjxVQKK21McXpqEiU1W+ElhcYqCpmTQrTbYjShs3YmJoilVIX+N++mlWIf2nunFr4psRaEZg9gg0EDN7fJrUZgQmRoB9ZP7C+fn5r3iQqYITi4u0IjHoSGhVWV9ZFYBUxc3Kv9Clq9DeVAHEQrKCTPNk1KVXxVdBgq9q2bQYTCQnjotlLhsOZYbttOsH43S3OslgMPwK+8D8FC90/O1lx7bJ34xAMwLjEWggprkbmhFYcgReffXV7z09Pf0XgMzH2BhvonQMK3FYmWMYqcpTla8ublZ8ZdcqwCXOJ+VD4a9sSXX+K3G5MFwFJD69Li2OXyYcw0ZcV1W6j4vTqsxCylPmt0GZXE49llWO2NTwSANDvv+JBubjaGD+91SGJqIZgWYElhqBBmKWGq4mczMCbgS++tWvvh+NzK9mWetgMOhrg7JqzUoBDFVal0XhJYYefw3q4pU+K+2irmEIAnEdsyCoqlwcNyscps06r0rz7apM82akGZ/j8uqxMyXZWVHGj4OuB+AiH5jf4V75O9/zPd/zpXiMmnAzAs0ILD8CDcQsP2ZNiWYEbAS++MUvvgeI+cfMTx9nYkq1BDsGk3lhyYmBIwzPSgsvQ5xv9iWqdhyuKqPJOJQdT85VZXzcrLxVaYvETcCGKor8VVzUNEz4ci77pAOuLzPO48ovG47rtjD/2sCLxhB5//7KlSt/9/3vf/83ldYczQg0I7D+CDQQs/4YNhKe4BFgYtrC4fcn+fwFfmU/y8qlcjTqAEYZFknzgmJAsQlRMqJxj/PNuizFpDoFUGEZTfjrmJSqoETyq+K9RsPXH4fjcqGMeecxjHhZVeUUVxcftiGW6eEoHvNWu811Gp0ykr+M9uUTjDvnzdGMQDMCmxqB+Dm4KbmNnGYEnpgRYEJLv/KVr/wwmphfwWTwxwQymuRCqND5vLAfsDhfOJBVoFIVVyXrIi9IOPFX1VOXXhU/ARESFphm6tJiqHDFJjUyIWjE+cPwZD6TVILNON9kfNhn5dE1kfmI4w3g9h+wC+8niTsP8zXnzQg0I7D+CDQQs/4YNhKaEbARePnllz8yGA5+KcmTP52P8olf9B407FNAU4yZwjGETOQNxrYuXzz8cb44fTI827TkJm21dgwEs+VVa1p8mXkaFuWL89SBi+WtA5wifhpWXA1xuXn5ptPdeIRyfB+zNEtabQOY/4Uj79/Dgfd3fVrz2YxAMwKbHYEGYjY7no20J3wEbt25c/3s3r1fZHb9CXwhOn71UgwrIcyE0FGeB6CjIZ0AkyjND/kseFGaJtxZeVa5dFWTeCynKs8icXGeMBxDheqclR7nj/PWhT1QxeXD+lweXaQkaWVZIohJs/S38JP62RdffPEr8Xg04WYEmhHY3Ag0ELO5sWwkNSNgI8CEl37+85//eLud/gL+vu/3fjIxrPhwHC8ZC8GMy7iab4w0QgtCjZQayu76Zn9dYM7fEAzCrHH8MuEYNsrWRJoX19bxEuhQu+PNRSGYTKZP77zry3i5vj9lexggA5gsfYu8n+Ca/+pHP/rR+3OGqEluRqAZgTVHoIGYNQewKd6MQN0I4PD7J9DEfIKJ7ofxi2gLZmJwUbgKWOJ8vo4q4Cnrr9HQuPTZZqO6PsyLjwGkKn9VnjguhATJmIAVF2Gi60xNIZD4NsRxs8IT9dGYUgNT1O21LSPMhKX8Is2WTutfmn6a81/48Ic//Ltcp8VIr5TWnDQj0IzAKiPQQMwqo9aUufQRYJJ57O5VTWR/+Id/uLu/v/+3cfr9ed5SfF3mJe0pA9TYGE5ATBGWXcJrPkJo8fn94M9KCy9QnO+iLl4MJmE9VWl1oOLLxWAxKz4GFOUt41xgHA60NlV1xLLGYUEUJrlAtnt9wOiElN949tlnf/6FF164c1Hj28htRqAZgekReOwmhukuNDGP6gjw8L+s++uy6lllqEeCmS984Qt/nvct/RxvK/5BmXE0MXq4cJ8xuMRhV3UIJJNwMq1pWRRefD43WTs5YftUs9dEzDMlKV84yYcDNqVF8YkFVFg9decu0UpU5ZkCjyJ/qVEZd8DKx/lDuZZeUV9Yr5L1AkfivoD25Z/l35v/2kfSj/QJr3Uv6l6xTjZHMwLNCCw0Amt94Raqocl0qSOw7kO0prEP6z55WPXWDMPq0UxOw7t3717llQV/jfO/jybm/dLIhDv9epjQp9PEBKYmqg6hJAaUOKyWVsX5HsxKW6aXjjmq5926tCmYCcBFdYewUJ57sCgaNw9CQjlh3rBNZbzq5FpYGVfQnQewU1RrzkGYjdTG806W/Xorzz/xvS+9dJuwVGvL3q/VA1dWttGTteriflmr/EZ70ghrRiAYgWW/dM3grTgCFwQXas2jeg0f1XbNvIKHFziefyZJtKXv6DOf+cx38ev9H3JP/EVMTPt+XxlNkBq0EGbUHG9asosdBCZBpD5f2OFNwUs8iCVsRAkxsPjkMH+cJ5ZVwkYAO1VxeS7t1hiClMfLnqgvghPLVxVXNlYno4RrleQu42eSVvKJj/6pj/4m43lOlK2nfgSOywKNleppQOgRuEPegU14LCeaR+U68PDa1PhtSs68obmseua1Y+H0ww1DxZWbNx/6GNy6dSv/kR/5kdZnP/vZv8KD/WcYjJfkIxOvYhJwTEFLAToawBhI5oXdoE+bnRa+GDMyxiDis4bwEBaP42PIUF7J1MXyaVOflqkwDTl6mcgba13CNjoWGc/Foey4bRpXmY7wa/om5/9W5qOPfOQjr33qU59qJwcHYbcmzklZabKvFXixCZfR1pXqaODnYi/84y79oT/QH9YA8qBat+/rlq/q+kXIrKqnjDvcMCR4wRuFhRdfLNvL2bpjNP0gvXkzSV580ctdV/7M8Q4S5SvTw/H3Xdvb2z/GBPmThP+k3r/kD02eIZjY+ZoQE8pbtKGL5qsHGUmYHPYYFKogxtc7BS+RRqaUHGhTfFvKz0ArY62p0Ly4eKU505LGSnCJye+cz0+S/q8/9rGP/Q/KZjdv3rw07cvRiy9O37OLXpSafAfxBanJd8HRG++XLu2qbW5gadWRe7jlLuuBfem9XBNSLmJcLkJm7bgerjnZrwshbPK1aH9n5ju8fZjeSG7U9tMn3LhxY6aceQLAmHSMSvNyL5Re157yIXsnuZNeT673kZb+0ec+90I2GHyc8x/nHy+WtMmzrMjDR92nMlYByqJxC/VoTqYYTHx2DxJh8RJMykzjuSeWEwJHKGsMKBIydta1UAg0BfSUdVZAkPeJ8c2x1WOj0YA6bgKZ/+jbv/3b/+tzzz13BHR2lri3wy7PPQeMVp6A5wnfNAgdrAEL89q6ZPqmxmwlOQ34LHm1LiB73YP2Aqq6GJFrwMpF9v0iZZcDebgiqCwKKAs8rKf6GUPHa6+9VuZ56aWXEh7U4zJQw3vvvHdCxvXr15PXX389ZcKwh8rryetF+nPJc4TfeOONqTqVj0lnHH9tfK+9cuut9JlxsPLsmWeeSd5+++1KuWGBiToqJdVHZk8H7Yuy3Xvr3qg36OWtrJXuJXs3Tt48+dlhMvwhfDCe18TrYUZAEkJJ1XkMLXFYVVfF1bd88ZQYPsKSYVqcry6thA61mX8xhFSFY1njPGqN931x5+XfAHK0ZJpVZEPULJ9tZ9m/wY70H05OTt4+ODhQE9y6+LBj7nylCXBazHIxFwk9YUs2AUAHjwb0bOI6rSyjAZ7l7u9Fc899cC8q6DLy8UBapr3L5J3V/E3JmVXHRNrhBcBJBZBU9uv27dsT8TUajok8bIxh4ev8G0OH61L6hmwg7ngZ0PjO4vyVtwK4ACLuFxDBrqeW/6kin4HD1YT/+cNxdHRUyrO0/X2L/8bxcfo8n8d8FkXLj+yKZO5ZWH+ZlCbynKanRXg3Lprs7+2VedkMJAlz7EzlTpI30zen6q/IVhs1fLCVd58dDI9vHX8UH5kf5cH357JW9lw+HK9k8hBSBTHLmJusEbo8TOKrgk0MJGHHHBtMPvPj/HXhGEYkN4aWqrgwD064rjnSyrjMhQxdIpfm26j+F/8+hwLsN9rt7NfZcfert5PbHTSB6aeLjj1/+3blJMb3pDI+HI8FzjchY4FqJrNcNAwtC0EHTzjwNLCz3C281gN3uarGuZeAkVXat0qZVbtSW+5wSRCZqx3BL2QBf5CJvodA4mFED+OXXKvLvHfuYNZAA6JDWpDkueeSNNB4hBqIt4AP32lpML72ta9lyVNPGXQ44LiafB3QeE+RyYOGUOO4mCmPqS+hvisFTHioOD0FJnZ3TY6HBYvjONs74/NZlrfe49OpWnbPFOcORJfn5+k5a0YIb7u0XrqTeii6T76nthL92iY/JxypnXPwK3zi8PE+kuxpb1xPWOdkwfVCRyqeZb3drJ+dPej/8bPj4z+LNuYvMy7vUTf9RB102VjEbjlNxkX1Ybqljps+bqDi3mEQ44FFEKOx0HjJMJcKZoxaLNbGIBiTP2q18l/b33/md9hx9xWS2m+++WbbMnEw/iVgjN5V0NHrRVqhNUzuTO5z97XrX5uAEr7BFvZApPM6KHKSp//e2AwsSfClA9NFw5I6tQgwHTyEvq8x3itfJ+7tlctO33mPbox/3m20hUtASljvKm1ZpczG+nronoZz5c0FFCRUaEokd6J/C2hJyvxeOyIhmYEJwgKtiAcTDyXepHIEQFQBic9vEzdEcnznOL1y5YrVV0IIafvSjuzsJKdoJM7O9tJnSb9HvIDDyhYHjMFxTng72Sni021OCkjoJQILoAKQ8OUecHKF8vZJUr9P9t6DQmZXE1J6kvYxydBX0grlS0KklpdYzcrTJ8J0MkSlBUgNiPdtw6Rg5x3+G1CJzv1shnakzGf5C9qaim+7hMHAa3m89PrPdntn4qHTPumNhtlwMGqPOqOz0becHZ8d4Pj7lwQz/OtqQrZJWS3Sh98FuKgi6NIUwIRp9S1aPsU6UMzx/tRx0uTz1IOYyzNOC8v7c593Ik19Lyoo04N6vQkuLqMiWdYy6CMPd0b6ecbyk9zLv8WOu2/wOQLk23t7e6PXyPutfHLH2f8hyCifZOnlSPlbb9n52/y7EsBOmF/pTz/9tOXTEacZGE1A0RiI8Juycvht2cGPmVKOwjwXJsJFtomPFeBnrsyqejYVdxHAswjgVLX/4GKgZ53xXags9/ZC+ar6/DjFTT6Ql2j5JYJK2KqV27tE1yzr4YKA4uVuClQkr0qDcjO5ieOp/ZJLC4fQ4twM9TYuXnvigaM02aAxyTDXxICSFqaZ7OrVNMUMI1OMTC826XNIC8KW+alpQ6ARQcm7II6ztwogQdPRu9/Lkm0HIoIQMYf0G3d7vexKobkQOKRbwEMBHRYAJazNxKVdAQfAcJplg4QIiGJXgMExOB1kg67AYZf00zTtkDjoAEpsujLMsh3w4mxwlnbI+4C/2sujQzjtcH42SLXWZzAcWnjA+22G5+fptoikjQyO4fnA2ptT/oxPKW/OyV8oabSs1vJtFRE9wuGylHRYaHHYOETbwPAeY2Xn71bSag1Gw2Hb1UMlksXy3PLB0iW9dzJMu8SdW6nxsVvGnSOHMoPWKEdV0B+eXM2PBz+QD4ffz0T4gXanc0VOqQ5oNGY2biZIn4rXp48L6yjzucxF3oJBVIZ4YyROHCzZSSk3rCOUW54XoFF2eAJuxs9Xu5E9lHBuZiBLdnUJSFzQlamFmkh+CUpFJ/heWNMGw8Fd/I9usmz6P+99695/2R/tn97nfuU25ibnWm9tFdU5gSfb2xbWHjHb28ej5K6JgdV3eN/ASbItcNGLBwi7FO7W3d3RscrsHo0SeGTvOiDy4EEyKqAovz/W7AiIyjdF3r9vgIOPVuJBKQSeEISsTQE0KVxqiTjHi2w0RqE7mHs9DIFDBRH1ypVPn0Yr9HzZfsm6zb+DzWh+JuRK9kUdy8LPKmBzUNydF9CHTYxTrQy+77VpF9CXSxPpnnYLVrcCuCwlv6IZ65avELk8oEjIPEhZRJMiOUtpUwozjzPxCFKK2Qk5sSZFss28c3SUeU3K17lrZdZRXh3eX4RJMXN+ILuJNCenu7vpHpqSCY0JD/Rt/sPs4goXgPKgd5cw0AMyDAY72ZZMLphhBCXZwFUkrcdweNaSdqNrhMJ8CIicHQ0z6UOO+SksjYqBBZqNYZdyvBsxg0rOs17Wbm0naZ7qjYnpaZ5nAIbNPinn7a0hoNQGVgAT4vNT0ttp2k5aBLVrKv/z6ui8Td5hK+3nwFLaTvNkmHZAi4HJG2R53krb5GszYdGGLAeeMjQv1JECC3zkdu+xI2tqjeagLMqODNtEy9L82qHY29PF9zXuto2rDroWvDpQ12RoD5SM+BH5VIa8FtdugyXUpTImo8ibs46JMcMBOOn18153eD5836A//CASPsxc9r5Wlo4JCTkMiMTVQoxPs0zxsSDExMV82DpSQEX55JwBMaH2xkHM+HlrgBbKC+QapFlV49VJYX5lxafIJnvyfZZ7/1MAxh/sPfPM57azrM9OdWZDpMwo6emsZ+fd/X1K9pIzlGCWZseRpQE9I5n80AZarUrpjqQYc+en+jw7S0YGQ2fJ1mgMRdvSxijNwOg0OR7p825ybXRtdCpBp6fJAwOTk2Rn5KBoBBBZ9clxkh/lIw9EivF1epiBh0bJ/avJWwxint8bPU2e+3y93ryaj55+K0n4P/ljN67myZtJ8sorr6Ssusrlq5YkX06+79r32a3L80YfdsjBHnNzGcbsPOIHVRkOTWTzTGM3Vgeiov9ltUudLAs2dcJXAR4v6+DiwCdu7jJjtUxeq0cP2bjChx1eGBL4sszLOy990b5uSs5UfYeaTJc8ZsFLDbiohrKeGdBS5pkw/RSrcTywxLASrqRRmqVfdX4o36ZzTD0pziceWDJMPjKv3D09tflUjqrZ+bmDAu7IM5l50K6goOA4T3ez3cwMOMDJUXIErlwFVzi2tjjrI7fvoKaLxqTfVfmWNgKT+iRLu9ng7CwTvJApMzhBG9LZ6aAj6aS98/OWIEVQ0h4AFgWgCE4UJ43IGXN0W2CiOtMivtVOh/wHbaBLAVZgCSYKYqmGsqgqqH6QsfGK6qbqQTZkgUmrhbYFGBDcEMpa4IKAhQajFeoztdFsyvb7wxZbyCMWMMpRDumdxPkAKcCRAGhEn9H4ZMQNs3baIt+Atma5Hv7u4K0CY2cUorQ2V0drBPRw5JBGQqG0RXjEycg9DGizoIRcgEw+VK/4oo2Unda2+TOkA6AUyKSea7JqER4qvt09bxmAJVeHg8G35qP8w1k+ej8d3mcOY+5GMNUSLoHGGuUBRacWHGtsLH3O4fPXZSvm8jLZBsBzQBEb5u3rFVYAACAASURBVPHn8ee4mBtMpcflvOzJeOuiwEWTMgrI7A86W1u/3d3aennnqafu7KHwO2n1Oh1u/f422pV+e9SHHAUVfUhi+0orl2YFrZ6uVDLSK5J66kA/4WPU7ggqjpPOaJf4nmsCp8ozAnocCHVGmCVdwyMYUi4d6h8w78rDQKf85/p8FSTiHK0Q/MP/AQQBP/AHx5vJM6NnRnzPrczONQc8D45z0MfJntQGoYfZezB6wANib+/IPnXk9++7dkA/mJbt3AORZYjCT7/wAnlogWvERN7YJIaXXdF/L2kqPGUKmwM6sbxS8LonDxN0DqbHad3uVJVfZeyWKqMHbVXFFx230KTOd2KhfEVjl8kb9m/VcpVjdBiARGWGGZErgMtE26vMQfHYVIGL8ghePLgoLJ8VDy4+fgJcrrqJNAQX+arITwXji7Vrfw9tC//tYQ5S+ByIIckcXwUvuxLIIXiRpqUEF8JZX9Aimw+HmX66TO7kxzbEBxoUZ+4ZomUZdrvZLoCA2SQDbOwTJ9uMPxl4gPbDQYnBiRQcJh4IaneydMQ58Uy3gEbe2sYqc4zKZavb5md0i2TsKUzxapJpQoZ9GKZF+X5bUILdhrm9hTKn3x4AIQq30xGfKEM6wAuWHJCvNcyHfKatIcYZlU/6gzY+J1Y/7aOiDIDic5i0huILFwYHgJyhVkFn9AtdDcjEb3uhicEYDELDEKMf/BrlLAJmp3jR8NuvGf0rAoigkMJYTfSZ63/+ACFMwoDNyJhuBCbRoQQjmvRFqgmFk3ZmY1Imk/2KxizTHQ2T58n/Hvr7DDwkNZnGrQSWog1WfXxeRjr9hqMBIv0NrvlRsnTYXKlzmzMV57rk8xRzaSkyDFedu6nXLSmfqKOoS+l+IzovVHJ8ffJ1GQz0DsbRPVR1X+f2/P2dve7v77S7d1u73R4IPOImN4CHL/IEG94ZcXZjASytfp+h49JtbeXnw+OUdWK5IKbVpgrEakflrb0tmJZziHS7DQFRBmXKaAD8jJAh8Nkh/wkF2wCOwmgmbWB6vWNqEiyRt9MDd5yGRSCkw+J1mPLHwdB+d390P0jbtwwurzqBGslMkZyO3uZEaeYsJW0PR2gaY78bA6BnaK/TAAE/hawHwFA1/KDJMRMY/kHk/bo+AelX+Xx3UdZDT4625yn+u5fcU/bkHh/fIeh58030PEnyvsD0pbYpT/6cM6uFfj9TPj+6sW7fNpn+mAM7Ppu7ISdKrhbYBOQsq8k58F+o1ZpcV2oTY7KwjPI5V9eaDcRPTL5V8rjX5uaJyl10/qpmTsUdLgkxs8BFwmu0LmVfZ2hcVLzM5+ElK/c/IbEwE3lIiZ1tQ3gpTUTAi8BFwr3WxcOL4gQw0rrIwVbh9tsYaXiImeZFMwQOAL3e/Wz3qG+ri7z2Ba0LECNjUWp+tkCCgxisQvKVkdPrGaYic2QxgOmmw8ERMNNRGrAyFDBgutGinx66kBTNTi/r5B1MWGmG/4D7FNTwb5QPDEwMYqSvAGCYUNJBfgIuGMBk2GLaTsMCNwEpI+Bj2D9n1iELAWla1MVBr9cZdTooTDAwyZKDroKRx5lk1JKBCZeV9jDP263WENVGu5XkQxgg6WA4gkl0LlvRqI0WQyocAVCbSQ3tD+WkVMkHyMMlBnnIZDbiHNYQxKgPKFcgnMSpXgRbwTHxpVCAx4CeBEzK9kBAgHuo832DlKQ/sqc8uIJQpUEw+o8PBMsJhhOG0L6g/OUcoiIzHc+FboKadLubtUHYdAugAfrk++uapVvAH/48jFOaD1s7+Oc/y4KKs1bbn6mjmKcsPjyPw0pzYsafYR6fbjLsf/1h9OmL0AwfF43fXdr7dfp/G/D9LLBxq9PZ022NxQ4nbSm5GBv8oyg8pHiWw6lJZ3uUo7WT6Y+rCtng45Rxt0LS3F6t0aAL5JzDiHwOh+fk28nly3QCMOizBVtzh4hrHAhxRnOS/ha351l/xM0GtwhcBtxRrXybW0cAhFS52GBCGqDxwaSEGSnf3s5x6Rq1E/KfmCoIrU9ndAz8oAQigQLwzlOYl97q9xMpf3QUY1WEMHdd2x/dfdBLOmfQ0P79wvx1lOx3rnFPYC7D+CWT19WirM6dHGf60rmZvVAFjZJtgMfVcY1PmbwEPNPmrsLUVTpEczMWfj8eeEINj86fegrgEelw1Dk9j971LhyeXzezlvLhD2i+PWOD1nxH5xnAYzLXOS4Lbg7qvmTrNH5cdpVxWKWM1ch3cuWyVd2deLYqA/fpVFxQcFZalXwft2q5WTIXdr6dByizKpkHLyq7ruZFMkKAmWkyKjQvKjNb++IAxmtfuHGc6UgzUwEwO9iRJKdfzGwyIYUQY+0KNTECGUxIg+w0G6CV2cqYG2nGIMOEJEIRwGA2km8LRJPt8EQ2bQyaHwczThujiQV1BqSTZ33mDEw5LXxX8IXpot0AakAQnFlk38HfpZ32BqdtnF/5NHrRo7zFpCKLCzMLO8TlmKh44pMly9HMoKogX84nPiLMVsNB3pHahQcnLr1DAxFmMAhp2O4BOoxIi6c1M4dABoDJSR/1xWGUz2Urkz2HcN5CC8NnJtBp0wCASsyQyObUZoZAjtmYiBN7iETG3ycNvQ6bEzRwdm5RY0oozie/MKt9fVSP2EpHG96TnodG2VuY5QDNgLmqRTcwl5pHFmuXr9G3uWilwUbZGisQpvjzoo8Era/BYaEizqcprsxHmvvBPlmOcXftI71og7jhm/TjNv/+X7vbvtPudr+51emc6jah14JbLjNQx5VqAy/nXCD5F3G7c1OArcU5JyOck8o4NrkzrZZ8koiEB3GwQncndVsP/OiwkW8r4y9xKPyIdWECBkrnaM8ygEgaEbQ3o3NARqZSkCIXFBFlgNTlRNqhATC0w210DvxII7QFgJ625cx9lrT7rVEPZN7nB8gRmiA4KE9OCy0QwCRFkCDpFFOYzGK6gQ1++NdLSDT7F3FAEI7I+THwQ8xohy+DuxQEaJhMX/L/8Zoe5bHLJhUPl0fp/AKyOEEP7j76W2p8FK8fSTrk9ywH6B38fELgKc1bRzg7c2gFmD5VxgOOzu8JcIjXaq/3XrmSx6DzZfQ678vf58oCOV964/fS73/X91t/imPy5gnuUp7VcZoVuVHtr1OZN6in9nRZuFlGS3MQ9Ke2AaslrNzfoLqFZejxuFozJ0tNPB25f+Y9Leel17Vp1XKV8g6D52hlhijyAiDG11D2axFNzCwTkgQKZOJ9WNjcrfxFr3SvibH8kTamShOjfNLGCGZ0KCyo0GcIM0ob+8IkheuuFXErn1nKXB6BVuaUJUWlA29hWjKg2QVecIrp4JxrHjHevETd1JNtd9DZFH4xyM36aDPkrMvUivYHvxjgBSCRacdghkkqHZz30agwD7dxzT3t8QMW6JEWZMA8UpiaNIE5UxMsha8LWMJzX3M3Zip+26ZDyWiDO3JtGVHvAMCR6oOZSuYkoIRpUp7J1EIeA5pRhx10taZJs35bGhoHPTZnEJ8T784FN4pj9hMwobXBNzglj1xa0B2II5hauZSaZ+37Ztei8rtXAAVpdrk2ciBKGCCQEbgY1MhYZjoNnRfxhbsP40a17jY3ZqEtitM/a5W1TelILdJctGuzb7uT48ornXGC99SScT6TQhDfngm5yqsDGQPOT7lI99FQvAH9PuCmeYDp6FRYQjp6O66q2CWRmzlKGpyK2hAI5kPcolIuYgs1DOnwLmveQBCos92WN1IuyNDniFsvIxdXyeDHh80/XLealG3Eu0votF+CIDLioCUFmQMkUIKO4EcDDHWkkQGqlM1rhFodAIYV9AIipGK6cvCju1IaHu5chgfikd4G6YKdbNRFoeM0QFr91AX/lXqGL1ULaBH06O4U3GxticWdGay/DRwVADRC88MXDL+fQttDfsacr5tdHxZZ7eSlrw9hfkiY1khanC7mrTPOPezI1CW/HkGOzFqdAo4EOt0uoKQlfxwq71d5PcO5fHl2rl1DJo7MgR+PnJjzGsgJNTp+OXuozVE9XqMjKApXauWs1HItGa/SUrNcnP0QLc8Vd2MaaibSfblZn8uCjGQtAzNx3QdBf+K0NcJL97uoa245vq9z8yzS7olfijMKlJP1jDxVSauWq5I1FXe4AMysAzC+whptjJKn+jcHZsoyVUDzJcxKHygqFbDo1HxidFJsja94S8OZV5vYpq8epd8AZt6txgQOvVfIo00wvF9MhmkpNdPSs4nhjDaKwydmvFzamZekndGhFcWimrv4yFzB/dAiOTAg8Zy2rdlpB66vhbuM9BRnZ/ilqCznWzj54qCQanm019IIZs6H59lxN8322zsJlMP8gbaG2ZRZB9/Y8xSOybQiySCGlVGClCHnW2CCnHEFNKpDmhs+ABo5CKPFoWoBjjADD5FWn5a2aYNWHbVgEzNd2aoklZYWh/kL6JIZS3KGI57+cpvRufxrmEKkWcFeRNs015kqI+ujiWHuIQ9+NYCNIEefZAJ6BDN4AANA9EazpX4DE3afPLvR9mCSYgpB3QDGyYzloUfuLTJPGSgx+zAfCsy42Dj1qp3+u6oOlN9b05tM3YXFTRR82Bw06yiSEW0aD+ozsXYuy5gvb+kOeCbEFc1w2Zwwnau86maUbcawdP7oRZf9/iDpDfqWp4tzONoJewxrHizbaw0Q4Mu8BlwwYkhgIpdiTeouSZMRLzNPKcrLZ2ggnyEm9z7zP7cXblLYcxAj3kadYT7bemfVAEdxS+Nay2vczlG0cZEwSsofHB6BtQAi1C7o77iJINPWkFbrYnO3irkAJDfR4xsuREWhxWp+6kXViHmpgCLaPOxTERRsoATb5qYZMq0Q5kDOpf3hRhDmos2BeFBX8odSuD4BPGAMhln6ahofaJtzwdc5Gh6t8Cc6l6aHXYQEHvkWMCSP9vv0DPMT9SK91Qd7BDgQDkCD0kcKG8qdMlwADmOrNNG4tDpF3whxYN4S7XPxEvk15+cCNa3oQouz3x3dZ7lXHeC49VvOgbnbZYUUfjs6JNa0OPx/V47VApxiufqD/AEanR3YpliyDuCUe/iog9wEryav4p/zbrvp7rEi60rOrgOYqp7BVHWLuBeL/XnecCo+W4buoUZ7aOVmqgqXoE+aqDzg3JgGG2u+dWLFYxHQWQZsDtZsz5xurNLXuWX0OJtT78zkRSHGC9FzbZ1j3fKVdR8u9BifLLou3MwAm8qxmgM35biUPjPRBnUh1KiCcHM6CxdgU+79QliH35jOr1KKHX5RMpv/jJZY6yh9ZiQUyHnQb7Wk2r2f3gdvABzARquW3DJrlXjAxnNXkjdlXio2pjMP4O4+H9pUrpNIcXMqYPAH56jGbW8XVSMzlADnjIgu08JZegabOMhhXxYcc0nVJnOF9ka+OkNoRxwls1SOWUr7sRjQ9E6zLdPiMPGDVKbogFycRgeHYtx9BwMU/NrKjlnoXFA0OEeb1CZ/Ll8eZjS8Uga9jFlNLTYPFWYsg6EzAAf1ivZ7oWrzh+EryMxTrH4SkDGFokGSLcL5yeBsAYwAJmiGmBuBJU0r2j9P3hqYuNDSMO90mLYoM5BHJ/OE+fJ0+Hltmh/l59Gr5tEo5i1pg8x8RV6nIeIcxYGsRfZbXFoe9YgB8D47Y02rxr3U8Oka+EOXxLQj/rGiT+Uuw8HzhnhBib95fVl7JBVpvrijoaIWiaegNC76VDlphOTjIoGSaX8mtEHjNtadFbfTRLK1Vm3Umja6xiejYE5UNskDJ/ZJBu4E7QoAfIhwtdxOmh/+cbG4KzNmfi5Y2tYGR1KPyFIlUOlzG6EAdACELC48WiEWvYlCpLNhpNE5wicod+gldYLZgBBJ3FGwLhAkbRDYBNFwc2k/gLZ8nOQ7Lk2PeaGL+7QyDXnS+qAgAWBoCPmcuWvIAj3dJKNtbnNxt8pKhjQ8+PmojGmbGJK+ZEI7WXeHO5JPlJ6DNp/ZVr6LWpS7c3RaQE4r7zn4EfMQZ5ADZJjjskxUx3Jg7uHQvJP3wCEbclZwjR48MFNVCDgKCXLu8x8/jqSuMf8cHd1TzrBTmaWKQ3KkvTHNTbE/j1ZhzdLcjPYoV2xMONKGhMW+O5Il4PGamyofHPO/sQMfnGCPnVmrrEINzo1qyJHAQq6THv5dBGKmS7mYeXBzMKPeOplrxNf2cY7Mlcrpe+zl2vOHe8Q/h+bUZ8nL5K2St275KZmHS7RpXXjxlS8AMWE7J/q8KNBIQJXGRvHxKia/sV24ksmDj0xQtvya4xucX2VTO+01cXpykuX8wrlC3AnQ5Da3e45Pp7E523uVGZlXAJztWlmy2affbTfU2hi/aM8Yl01ZzTlYO+va+QMzVnEIcNyHk4mPjcxQBikdNDhM94EGx29upxlF1COY0Qm7zuDYcSVhsxR+oOKXA8yYmYpPAQ6KDluyLY2SAMe0OgXsSNexzZTVw4lTGh9zXgZukr7mJM0WSbpln7JQ2KopAi0DHPafSUcszMI1mHanGRpz5hxBjqY9tFQdsYEtOc/SnuYG67+tJ7Kl4HzqhzJN4Ee7fsdbz2yZuDRDNgcSNq0Q+eR0IUiRDyuzHHYPdBFQEXvWsNY7B6JkcxDB4b8zkNnL+fqYFkg/+vEb5RsudVVH5jQaQnFMXQId4qShUpq0QghixiOv2iNtkIcfLYqy9itB3Cj4Ki+0Jgd/fyh6oYM6JvK5ma94LilppUfbQlVbprJ+1ePr49NNnQZW0tm5qdQgQhZHVo1hrJSSTeYfRkOaG8DGAQ9yuBOVrrA0PPoU4HAzADZK59rCDyyCIg4diexD0uwMpIxBVgFM0IQ0SvL4yjGJocHhjkJ9I5OYdnvkBI2PDKK6M2nqsCv9iG5ZtDwCHWuf8LfQ9qD1EfkIix3g6Fx3I3eSLq/y00YBVg6rGODIX0dhcCjPt4AmlJUagxZ2Kb4zo2353fRkiJUZC3wS2HAzyBkZTa2ZoWCcvC+7F5obvjsUN6opfHDs1B0s9dbmfoIamaRkLtKx3+GWLlZaFVHajDA/tn127rK6yvvduJVW0thggre7p/S5EdhwfBVH43cvDTau7NgcZe+IC+/O8nwBoFnorl4WbObBjB83fR5c7Ddrof6F7QnOFy6r72Uoo3yScCdNPlVqaiqil8lbJWnd8lMyD92jaCq+LmIdmFkSYKqaMNX/OWAjGWWZWWCjjLO0NpWvFKhY6TSlucF+vv8cu/e+6bbR5wFhm+PZW4xwFD7D7KVD2hu9t0ibc6guHYr3/jZ6k8BRz/vcoMXBVKUl285E5f1utAcNstjgxpmrunycpAOtjpIwLfNmbmBWts3y9J/AwTsW71Anu+5mmr6l4REmsOzV4rSpnt/BVxQi243gR968ptAAXOTSgy+Ejbecj3swgoDI4KiHhgfwwdHBgEfGFZZt234ygh5tvIcHBlADYwBFfXnW6Hc9n7JSSabAhzYZCMhhRxvwmclLMAApCY6k/XHMI7uF2tYxWJASQWnaeE/ghOamKOtgSDPbCC0SM5Yzt8nHR0AkGEIsv6G1DN3OeRIAMwYkrL7SFGPN4X8tCWO1Fw7RPK4xjUkPhepAL0AQCJmrCJoigRBp3v8HmtNMj9uJgFkGFeZnAzLTDgnnzDxoLbNPEBleQPeC9Ur6EY2nqUj8vW4UoftZCegpnI1LA1dxKNH52Kh6ZUD4+GtjJfzTz1dQIWahKMkpqpAWxzQ8hAUighgDm+JcW0ACK8Rz2QQvpBvcQKbwAlobmbBcvLxunXYHzY7SkEE+wY+sUhkmLm587RQAx3TRHMm/ByblrgZYgBrUfCXYUF6qO4GSbhxrF+MpM5Z9wiCcK05+6E7jwz7X3B1U0wdWgBjUSaYJMsAR6Mjs1ZUWyfnfDLdwO6MXuBijg2nlW60esCOgET5ta+mdAY1ZsVrbsiHqR3PpZ+McihXjNTR84kyjixCan2y3HG0eWACNdyI2DQ2Hh5lwmXgVzGjFVOhbo7KhhkZhHdLUKF7noW+Nwh5oFoEZ5b9RraGZmIiVzx/LQozKPWSQqe1L2K8553Nl6DtWJWPqu8y9NBVXVbCIWyavF7NKmRlNqE46LJ4x1anzd+CtK1cVvwGokdipcYnBxtfNlyLOG4dLebbbr4TbNOCOGHLkb+NfS6AczjSV8CLHsQbHywg30fPvHVKa9qHZz/btdQChicqHqZzXFfDySBx8UKK4Nuk9jWxUg/0bY5WLY68O06DIZKWtwLLsmMlPPjkP0Jhsm8nK7xCsPhnscFj/0ORo5ZSFtYqK/7RjsF6bdMbrCxRPWXx0wBRMVJaPH7b6bSvtjkxp8tE5Z9/gthoO+PTPe+wfzIyCv87QNEEAjABHr1zAcUFpek2B2iz4ERQBDKbhMT1OAUP62T5E88Ovbm0gbJv3WQaDIKJkLwCGNNtMQhBKFGQIfASApgUqYAcbGFYCPYQdHDkYciCkODODoemR6UsABKSAHNIRMJvizqxPDYo8bwyKACB+BQOcwgw2DET+ltqFxkjg48DIAZFpiTT7qcsY01hXbNwFnWhTH/keoUEq4Ad/IasZyKG15OOT6uUrxCwqVxAgSjyJwQb/I9ENs7JcXJitzdIk3yFIQD5K2EfoNoNiECTFg6SqIQY/AijBKoV44smvyK4z50YaksOpYKf8PijejEzKWHwNgYQy3aLLFAdCSvRPVL5PDIUi3CSPLGk5HNDQS5bbma8Oy/blUAywOG0NLlYeemS5dFobgw5zEQNQUPhJuwOsyFdYfjs0k47LZQazEnnwZ5GtCGCSAUmLsdDqyGTFhZcPjiE0vjwMGpdRZjG7xRzM6A7kEoCmprmh0TJx6aJg3upIJZhjTZZ/DOAikOnKxyfPdrLhGTojVgwa/HBvko8+y38GzYw2Dmz1TvJ8u4WtFJjpQTBoZc75r40iBv2MOQ4XShlEoB5iJ+rYl0ZaGY27NDN+I0DvSyPoWRZkzNTEUWpkFCjMTTHIVJub5mplJLGcaOdoZionZAnQsSjIzIOXg6A9XvaGP2f2Y4m6FpKjb2osc+qL6jMsCTO+WK28uOIgvEqZGeKmkw79k2k6aSpmHQ2NF7YhqJlqGxGVY1UFOzfGoKOLnrKvAu9esi+Yf/dSKZ9Nxku5te9fUu4CdjwE2accjDn8m6u1Yko2ac0L3h9H6Vo5pc/wZZEKayM+Bz3OhNU7f81gY8qE5bYU1t4zqV6Zrfdmu3c1ubdR+x2GHfCo9smXRQJfyHWvR7C26Vwvc9K57TgsHpIPDzAiixdTivbEkU1AZiQzcZnWhwPqUZulyVFYyV7To3On/Tlj9RUKGM3fcv4pNECmqYKG9EoFaW4U1iot8w9SuDB/KW2L81P8fpwWiAxof+Tk7MGIMxsrsZD2N9GrF3p6zUIXRxoi+zJ30fgh69i9ZsgwgnkMwwQWtDzFURlAwoGj0PZAOlAOE7iYg/ERAKmSATAkCNJadbhCKFJkld5Gpi6KFZ8KmNZIMGOqHXGNbCdojWij/fTXLcInnJiy279USgZFUuvgNCsSYQZGU6N9hNQEpmrVxBRomxIyqWs3ZgMn6ZoorJlf2iG3NF88AezIQVqmOBmCzCeXAZDOgV7YhouCGZNFFHBo8OOUKgX8qA3SFBWQUz5BRavFIRJhSCmgHushK8sRRWxPZ2pTPtnxAA3AjuZKuyFVFPsp6qEsv14cXZQm05I0H4ye137Qc5mfpLFRnDQu+LpLLrsIyIeGDuolXewjoD0cpZmhXhqhTy6EiFriqEuLwI1jnWmJRrD6nLq6BjECEoX1KYjR0i61Rc7DjBabQsu8pHSnldnR8JJ3IGjhonB1tNsAMQDMaAtNDr40WvZdaGXOR2hpKGC+M4KYcpdj+Qvv5X7V09uI0oonQcykMzAaGu1izBECjLQwGmK/YZ9MSgpLExOalEotTGRS4tk0tYxbUFNc3glNzDwtjMrMgRdlKWX7OmZByzxQ8TIOKuT6tA1/TrV/RfkbkVM5KVY1SF/iqviKuEXzVRS1qHXL18m1+MMl5W8CaqoadEGgM3PsqmBHbQuAR8EJGROmq8LZ2DIt8B4nXmJnL51Ufu94bGX9iyeLNB7klifU8iis1yWMoUdmLN71hBlLaadvAj28lNL2wUFpIu2ONClK8/L8jsR6p0IPbY93UBYAybxleYEi56issIxbrvwDOSwTEua4N2WPocfL1+cJ9i1XZx/Y2eOt1yd8utcwyPhl5iFmZfnymN8PL7fWaq0zQGiXNusdOqYNUvshGSmy2A7E/H/kuWsGNl7dgIKIaY6f8WiEpCIa4sViWiEdAI9MXcSkXjNk5jAoyEBJfVI60xivpQR62H6QadDeP6X/mXPFRiYKUNJPdR16qVCP3NIS9TCNSeXBlKeNcRkX6CHrMu3K6wf5MpkxHXotkeZ4HFVJM49oAxlnFiOe8XCmMg9Ahb+RFj2rTlAA45mN3QiI0y4/0hqZKzIgpalVstRQ2VxQ1xGJ2wnQpjwCIpBK7cE5m47QRq0uk/8RjzFbiw0QSJ1jthd9asoHFBhjWTDRZwj0SNNuiZCDjZHaJuDxShuNlMVpl2aDl8lDC6flJWyxQhR4S6okKZCk9xjhbKtXUEgkNUrTInwDhxhFrR8yRjDo0KirEaraRloNwXTkXj+hsEmxrSMBIlAFNLVVUAISlUW/B+bhCNzGvUU2KFqAAiSTvRQ7oV5KNhrilAtG9gf9fLuzPeSdFuhIuqaJMf8YymjZN5oX1DVtfeIfszU8Qlm0XZiUtsAZmZa0v+Q2mhqtbmIAzKTUwj9GWpixf4xwRKyyP2JFomli5PC7333WzEl+Q74ToMiZkhzAhM6+83xiprQvNY6+qi9cnq2wNyOF/jCKX8OMNHWPSF4VwCwKLip/cHnwouoq+6CEFY61ZOmbrTrdQ3DB2vWNWjBrmG2VMnE1m5ARy6wMHy4xJpsGnAsAU1n2PAAAD3FJREFUm6XHrQ50/GDdvXGDaeJmwovfyvHzoMOX247X2Y0Y7/4y/Y033ijbYdobc6Rxx1u3MDHpQMtzH+jRC+v827YVrfwTe+ME4OOhx/IV74iKoUdp9toF+fIAPToEPvf4L6Ehasps+OkBP0/Z6izpf7QA3bRBHGgQAB13eG+eMLyt6dCWoz+QVodnN3NnF4cgPj387AE+pUYIUYKmpHOcKIMka76VI5DAaIAAgVBbICQoklVsZ8fOBT8CI8GQyjkgcm/4FgzZyzaZvZU21Fu/CStCkCEfIUGR5QOM7C3eaIjalg4IqU0ccpo+AXz0Rm//Nm8HRwCRPLvlK8QhgFG6bSOoEFoipQmCwCfLw7Jigx+Z0ORULW2R0uVTJI0T3js2FpIl+tKuPcqvKVyaD7mxWvlCg6SwOycP036YRxWhSbL65Hhtag7+SHPk0mR6k2O5yyKHbKUbNKksxGUQxWEgBmJZuSJOmjohiss9/VdQaAYnVFnYacoHt3+xp0rIrCPk0740gg4tsVa8nJu0ZFvn0nHY0mupsuStJMMScVJL6d2Vtlxb5iGtBterxGR30v40Ij20Jmx6wEYCUpiYfkPu4bbjsF+dJECRQ2+/C3ICItK88L4pqbu0cZOtSmKVIY5PaFRYmn1iK5XG2pYEs5GWY5uWhcZuex8Yr3Fh+bVMSIIWOQCrETr4EZHwegVMRjIfvZ10TlhJFaxSktZF/dcSbL0uwfm9jPeXWUbzompthdItdgrGtO3A5ctcmveNvkgd38Xya9Wlo0broiTLE2pcXAn7QViWL+LisEVXgYuXoc95EHOwWZgIq553XtmfeYWC9JXK8xWqLVf7xVuiUWVW7sd15K1T1rdhEzLmdv2QZ87cTEGGTcNOWPcGwGepvlT1uwp8+DJPyJU5S2XH6GNbiKdsIV6KdG/rHsOPN20pg8FPcWgllk61f47e0CvwYUMdPUEsR3b/vrZXMVOXjF2olS2/xe3vs5/O8bhthI95W7gVvH49ucI7p3TqYUjnWoION1h5/Hd4FYx7lcMZWiHjIgjiHvCwW2iCFCX2ePv8bTQjvJGbQ3HOFObcnRWn8FPYijT/b0ntwSGnZ4GQoEhhX9Z/anm54gVG5g+k1V/hJ+orumAv/XQvEO9YXzpEyDFaZeUj5M1g7i3j0oAIYRwcyXQmjZE0Xym9VwdNi8ThTGnIkAeHwmh/XLmz9Bwwgn2QBDwJYoAlhaRVss9ChqDJzGgyq5H/vIjXBoiSJfOafaKUkDyBkPc7sqX1Kl8cUibZKRsJqUrT/AgyGVcHU06WmeQEQzrhUDlvEeoBTZa5OERfmlxtryTyeWiVE+oQ2QIkHUGRsuz4ZJyKTgeeEJQMcclyfh6Sge9TmV17u7DfUJmusPKrDbz7wJ1To151oHc+2esQyCPwEIRI0C7QoTVmKEUIn2Nbcw6yvE3MXia5hcMsG+ohBbuPtCQ6JIIS2jdGQb0Qk71izCFXrxaQPwuXDoGsRNLyaXbXabHkqH98zA7AABNQwrswzcTjj+41Vhidn0mnYsupDVJG+7nt+sv/eseTbYqHk273qtsvRmVVv4DlDc4NXO6y+ogVTw9Yqq00ncerj1ROYFJ0pTyPd/tV+tRGeMXLuhfdJ0YybkxDilWtP1XHLFiZBypV8nzcwYw6Z5VbIa22b0vKWksOj73a8uXDYMkGrZWd+25WvbPSVq33ImTWtuWwmLBrM0QJ60LOBkBm0aZW5Vt5bA9v305vBBJfu/Easl4qY7o3bzrZkA+aH7uJ79y5k11neXiRiXS9TUXHdbMkCIGAobFJibAHoBB+VOI+sMOTLWkVkKN3SJWrt5QBCPKmLwVLkApBKIAg7/ejvCEEKRyCEE9jRdlOyvrcS52JTOeCoWvM3NqEUGEPLzrXwYRa6AcIyLm4eHUEm9iSX5oip+nQ7McSKuKgnEJz5MEohiSvMTL5D5xOqahuov6yLQEoKR+uQ+wcByzhUySTWlkW05qHJWdiAzIAKDIbvHgwMhObgYyRUwlOOvdaJr2zxyDIhg6oAhh1eoqg3QKklOLyubFTHU6LxJljNGUBsHDgRkYQlQwLAJXZbny4QHwNwhy0sAz6iThMR3ExcfACs9GZtZLL1+KctqCXKCdhy1786ZPXtulTXoS7UqaRIT8J/C/thPM7cW+x1t4tXoRgQ6YbHeZIizalD4Xo3Uva3U7xeiuBdhX2YVZHj87RmFgZAQoqHltBpATLS5mjo6S9t2d+K0o76h2l8l45FaRwaOeXeDM7lTMzEO1V97WqyPmy8M4oduz1skNIURn5tMgk9HX87PTiSWtX0Q7BCybrZIiPy1W0K3rjZOyQW64sAlgcrNSbg1CtjG6rguBYBlpmAYsXuSq4HFwetITdt/He0LG0rFngErbJTRIbauWmxHCPzmrXrLRlm7BJWWXdh0tCzKxGrws4XvZDBp2N3nNVmh9VwANn6npKAxRqf5TPm798o7RrZ2D9qvT38XnD10KE2iGle/8fnT/z9NNlW0JtUFlnoRVSONQMhSYyYG0MQ3t7ie3lwzd7h025TjHROadoSWDDwkI75OVrCbw/l+ns2va1EowUr71+pOXQ6jDBkIhIvkNWxqk/DJD8MnlbPYZW4CntLc/hzUJmWjJY0jEGJhdmsmJ1mX6PK+xhwO8fZOa14jBFFH/41T2WpSji2JOkjJP6yZdxn85XydhJ+5Hw6TFKGqkyr6nrXB7XDnPXnjoU+3ahjfOJ0mItcuwWb6UO8zqE8DHjkE3EQaKcXK39HNoVlxEuxcgGE4a5trmNkwCDXXI7zPI2RoyVfEvUvz1pOiSLQ+MtjQiDWUwkvD6ABcyWDndIsyPNRfhCSFCPsixp5lPbz/nGSF5p3uH8bpGgXXZ1uvXerfyk0HBMvRU7cLS1utWm4hCQvMr5u4kzOCnir3jzT/GiSEXX+a4obcZ+Lkou61NgQXPQVDlF6JgHLasCi5fvPw8eb4CZGPO4b3GYW3Wp/CofPRBikQ83zP28TPuWyRt2bNVyKw/O4QWP+6bAJ+7gBYLQRq9BHeTE/akKvwYIjXVBLsfNpNAIlQUcFr3Xm6GK+BBq/ITti8TAo/gQiHw+mcf8eewfVMoqAMmtC3Ox3mQ2UR9aIn8YKBXh0nxGorULQNIRLplX+C5L0XedcoR8LJ/nKIK8dNntF2QFsak5v6JnvdsRP4rxObrmfI6UxfsdWX4Ojc/bBTQ9pf0/OM61wRD/a8tWT1JsQeRAy0ptm0+SnUbHGyzNV5TMc95kY7aY4ug/eDDWYBVx43xSVhUgVtDUEeErxaRvUQscY+wozgotRljU19PZ33fmHBFEccjM4kEiLKMJXdqNMk4rdGyMODjX5v1+DItXFQEeLt2/rwgbqHb5LqDjLlv7Oz8TifBb/AseTjAhaZt/xe8Wb47G4z450oqfO07nqTRtlglx6tS0JUCVnXvTzquv8iqAd7tXASheL3W0DBwCE70WQJoTf8QaFB/v32KtcPwm67KwO5ma/JaAlLK6SKYF58GKL7MutBw83rAycwyrxjWMWwVefPnKB8K8Ch+F9CUB5zL6+9DH8vAC4OgigOgCYWjRW3Mj16oKlgRBagQgNPFQ/XTyaeLHeMRZbRtCTdHYY8h1zfkNxd10fkShD5FyvAygfGeQ1ZvTvuOFF0Zv3bqVypx29epV2invIgHN2+M2YWazA1ejo6P7KZa2iSPLnqYsJrkiNjS7Kcre5+XmNcvxjW98I02efx4vawdWz1safwge3wl8lOQjxf/Zyevm1+OUEw6y9Dc205nw6NCeRS7KI9cYvuK8PlxCprP01WUL4mdldIYfmUnqBPHqxeIYnynCA0RVOf/+IJfmRibfpQ7PFv5mIby3d330GmPLiCdYY6wd0vKx5niUszuu+vv1opLvRLOjU4Gw36pfYQ8kMtloN90iexnvwyGA1OUJt/RXHm3r7/PqU0Zh/OMsDu1pefBzYWoMl4CTqbIXCSQHFW0NurLJ06l+bVJ4JGulutaBkmX7UvsgXVbQo5p/RdhRdy5ibC5C5lJDf3gB/do06LxTIGepC7NA5ipoCotVmdPCdO9crbjYwXqy+jE6mamt7njuOUxv45VncbYq7VOZp2qFWiDA/JWKg0myTPEap3BSDesNTXoRd8XNS7LA5DeVuEREqBHzUFdXPH/rLZsU4rH5alFgP9BYKEpaC32q33V99nXlOdqNxK260Yc/FoGMcW5mYq3QKUxCYbz3KTGDbHF48PBhDyBrwsdEc8JA1flFgklY38HlQUpVN1eCiSpBUdxG5F4mtMR9qn9AxTnfIeE1oCYcgYsYt4uQufZVO9wQ9GwadOo69ggAUF3TNhm/8XulDpDmgdGqnQpNdOFy/VnycOou+y1/oWUOv3P1RBkgrDwqJu3Z8scFAinB3E9smOCF4XQ+7/BmkzAffZ9ZLHB2n5VvqQmrSuMRC+f+WFTmovkmqlgUUHyhVU06Bw8XUOJhVXil8aoSFMWtJPdhQsq8Pm38YTivwkcxfUNgE3ftIsb2ImTG7V45fLgh4KlqwGVBkK/7HQxDF3kPrfSAZMyXblMddFXdO++EuCVgYVZ3l7o+IUCs831YFkTCDqwKJbMGQWkHFwcJ86quS1/q2tQJIX5lOY8yqMzo7/IPj1nCmrT6EVgDlJZ+wNe3ojblMuqorXzdhMMVJsFV67xsmFq1nSq3zsSzTr2PSllNnhc9ButM0I/KOK3ajosAjIM1JuFV+7HBcisDxAJtWEn24womC4xHmeWxnryW6ejjlHdF4HmUruWj1JaZl/7wEgHIN+RxAqGZg9ckPlYjcBHQsewAHDxekLISOCw7JkX+lep6EiBl3ng+NpPNvI48yekrQk88ZJd5L1xmXXE/Ly18+BAAaZOda2Brk6M5W9bDBoyDxwsuZg9mfepKoFAvbm7KwvU1MDJ3LGszPBGTSW3vm4SFRuAxhKSF+lVkar4Dy4xWk7cZgdVHYOFJffUqpkpeaJ0NfEyN96VHNA/wSx/yx7vCDQHNOoPwTr1n36n9WudaN2Uf3ghc6OS/YLcurQ0NjCx4RR7BbM2D8xG8KE9akx4BMFp0yB/n78vj3PZFr8+jnu/SJuVHZCAean8bMHlE7oILbkbzYLvgAW7EP94j8IgCVvO9fbxvq0e59Q8VPOKBaUAkHpEmHI9A8zCMR6QJNyPwhI/AIwpuj81VaSbex+ZSNQ19B4xAAzHvgIvYdKEZgYc5AvOg51Ga1MO2PkrtepjXr6m7GYHHeQT+P+K+66G8F+C7AAAAAElFTkSuQmCC;" vertex="1" parent="1">
          <mxGeometry x="879.5" y="222.89999999999998" width="131" height="114.19" as="geometry" />
        </mxCell>
        <mxCell id="NSrM9LkIRHbTniB8a5pW-2" value="" style="shape=flexArrow;endArrow=classic;html=1;rounded=0;" edge="1" parent="1">
          <mxGeometry width="50" height="50" relative="1" as="geometry">
            <mxPoint x="860" y="260" as="sourcePoint" />
            <mxPoint x="710" y="260" as="targetPoint" />
          </mxGeometry>
        </mxCell>
      </root>
    </mxGraphModel>
  </diagram>
</mxfile>
